<svg width="690" height="142" viewBox="0 0 690 142" fill="none" xmlns="http://www.w3.org/2000/svg">
<path d="M14.2841 23L9.51136 5.54545H11.6591L15.3068 19.7614H15.4773L19.1932 5.54545H21.5795L25.2955 19.7614H25.4659L29.1136 5.54545H31.2614L26.4886 23H24.3068L20.4545 9.09091H20.3182L16.4659 23H14.2841ZM37.892 23.2727C36.6307 23.2727 35.5426 22.9943 34.6278 22.4375C33.7188 21.875 33.017 21.0909 32.5227 20.0852C32.0341 19.0739 31.7898 17.8977 31.7898 16.5568C31.7898 15.2159 32.0341 14.0341 32.5227 13.0114C33.017 11.983 33.7045 11.1818 34.5852 10.608C35.4716 10.0284 36.5057 9.73864 37.6875 9.73864C38.3693 9.73864 39.0426 9.85227 39.7074 10.0795C40.3722 10.3068 40.9773 10.6761 41.5227 11.1875C42.0682 11.6932 42.5028 12.3636 42.8267 13.1989C43.1506 14.0341 43.3125 15.0625 43.3125 16.2841V17.1364H33.2216V15.3977H41.267C41.267 14.6591 41.1193 14 40.8239 13.4205C40.5341 12.8409 40.1193 12.3835 39.5795 12.0483C39.0455 11.7131 38.4148 11.5455 37.6875 11.5455C36.8864 11.5455 36.1932 11.7443 35.608 12.142C35.0284 12.5341 34.5824 13.0455 34.2699 13.6761C33.9574 14.3068 33.8011 14.983 33.8011 15.7045V16.8636C33.8011 17.8523 33.9716 18.6903 34.3125 19.3778C34.6591 20.0597 35.1392 20.5795 35.7528 20.9375C36.3665 21.2898 37.0795 21.4659 37.892 21.4659C38.4205 21.4659 38.8977 21.392 39.3239 21.2443C39.7557 21.0909 40.1278 20.8636 40.4403 20.5625C40.7528 20.2557 40.9943 19.875 41.1648 19.4205L43.108 19.9659C42.9034 20.625 42.5597 21.2045 42.0767 21.7045C41.5938 22.1989 40.9972 22.5852 40.2869 22.8636C39.5767 23.1364 38.7784 23.2727 37.892 23.2727ZM48.1449 5.54545V7.07954C48.1449 7.54545 48.0597 8.04261 47.8892 8.57102C47.7244 9.09375 47.4801 9.60227 47.1562 10.0966C46.8381 10.5852 46.4517 11.0114 45.9972 11.375L44.9062 10.4886C45.2642 9.97727 45.5739 9.44602 45.8352 8.89489C46.1023 8.33807 46.2358 7.74432 46.2358 7.11364V5.54545H48.1449ZM50.2862 23V9.90909H52.2294V11.8864H52.3658C52.6044 11.2386 53.0362 10.7131 53.6612 10.3097C54.2862 9.90625 54.9908 9.70454 55.7749 9.70454C55.9226 9.70454 56.1072 9.70739 56.3288 9.71307C56.5504 9.71875 56.718 9.72727 56.8317 9.73864V11.7841C56.7635 11.767 56.6072 11.7415 56.3629 11.7074C56.1243 11.6676 55.8714 11.6477 55.6044 11.6477C54.968 11.6477 54.3999 11.7812 53.8999 12.0483C53.4055 12.3097 53.0135 12.6733 52.7237 13.1392C52.4396 13.5994 52.2976 14.125 52.2976 14.7159V23H50.2862ZM64.3061 23.2727C63.0447 23.2727 61.9567 22.9943 61.0419 22.4375C60.1328 21.875 59.4311 21.0909 58.9368 20.0852C58.4482 19.0739 58.2038 17.8977 58.2038 16.5568C58.2038 15.2159 58.4482 14.0341 58.9368 13.0114C59.4311 11.983 60.1186 11.1818 60.9993 10.608C61.8857 10.0284 62.9197 9.73864 64.1016 9.73864C64.7834 9.73864 65.4567 9.85227 66.1214 10.0795C66.7862 10.3068 67.3913 10.6761 67.9368 11.1875C68.4822 11.6932 68.9169 12.3636 69.2408 13.1989C69.5646 14.0341 69.7266 15.0625 69.7266 16.2841V17.1364H59.6357V15.3977H67.6811C67.6811 14.6591 67.5334 14 67.2379 13.4205C66.9482 12.8409 66.5334 12.3835 65.9936 12.0483C65.4595 11.7131 64.8288 11.5455 64.1016 11.5455C63.3004 11.5455 62.6072 11.7443 62.022 12.142C61.4425 12.5341 60.9964 13.0455 60.6839 13.6761C60.3714 14.3068 60.2152 14.983 60.2152 15.7045V16.8636C60.2152 17.8523 60.3857 18.6903 60.7266 19.3778C61.0732 20.0597 61.5533 20.5795 62.1669 20.9375C62.7805 21.2898 63.4936 21.4659 64.3061 21.4659C64.8345 21.4659 65.3118 21.392 65.7379 21.2443C66.1697 21.0909 66.5419 20.8636 66.8544 20.5625C67.1669 20.2557 67.4084 19.875 67.5788 19.4205L69.522 19.9659C69.3175 20.625 68.9737 21.2045 68.4908 21.7045C68.0078 22.1989 67.4112 22.5852 66.701 22.8636C65.9908 23.1364 65.1925 23.2727 64.3061 23.2727ZM79.8089 23V5.54545H81.8203V11.9886H81.9908C82.1385 11.7614 82.343 11.4716 82.6044 11.1193C82.8714 10.7614 83.2521 10.4432 83.7464 10.1648C84.2464 9.88068 84.9226 9.73864 85.7749 9.73864C86.8771 9.73864 87.8487 10.0142 88.6896 10.5653C89.5305 11.1165 90.1868 11.8977 90.6584 12.9091C91.13 13.9205 91.3658 15.1136 91.3658 16.4886C91.3658 17.875 91.13 19.0767 90.6584 20.0938C90.1868 21.1051 89.5334 21.8892 88.6982 22.446C87.8629 22.9972 86.8999 23.2727 85.8089 23.2727C84.968 23.2727 84.2947 23.1335 83.7891 22.8551C83.2834 22.571 82.8942 22.25 82.6214 21.892C82.3487 21.5284 82.1385 21.2273 81.9908 20.9886H81.7521V23H79.8089ZM81.7862 16.4545C81.7862 17.4432 81.9311 18.3153 82.2209 19.071C82.5107 19.821 82.9339 20.4091 83.4908 20.8352C84.0476 21.2557 84.7294 21.4659 85.5362 21.4659C86.3771 21.4659 87.0788 21.2443 87.6413 20.8011C88.2095 20.3523 88.6357 19.75 88.9197 18.9943C89.2095 18.233 89.3544 17.3864 89.3544 16.4545C89.3544 15.5341 89.2124 14.7045 88.9283 13.9659C88.6499 13.2216 88.2266 12.6335 87.6584 12.2017C87.0959 11.7642 86.3885 11.5455 85.5362 11.5455C84.718 11.5455 84.0305 11.7528 83.4737 12.1676C82.9169 12.5767 82.4964 13.1506 82.2124 13.8892C81.9283 14.6222 81.7862 15.4773 81.7862 16.4545ZM102.692 17.6477V9.90909H104.704V23H102.692V20.7841H102.556C102.249 21.4489 101.772 22.0142 101.124 22.4801C100.477 22.9403 99.6584 23.1705 98.6697 23.1705C97.8516 23.1705 97.1243 22.9915 96.4879 22.6335C95.8516 22.2699 95.3516 21.7244 94.9879 20.9972C94.6243 20.2642 94.4425 19.3409 94.4425 18.2273V9.90909H96.4538V18.0909C96.4538 19.0455 96.7209 19.8068 97.255 20.375C97.7947 20.9432 98.4822 21.2273 99.3175 21.2273C99.8175 21.2273 100.326 21.0994 100.843 20.8438C101.366 20.5881 101.803 20.196 102.156 19.6676C102.513 19.1392 102.692 18.4659 102.692 17.6477ZM108.388 23V9.90909H110.399V23H108.388ZM109.411 7.72727C109.018 7.72727 108.68 7.59375 108.396 7.3267C108.118 7.05966 107.979 6.73864 107.979 6.36364C107.979 5.98864 108.118 5.66761 108.396 5.40057C108.68 5.13352 109.018 5 109.411 5C109.803 5 110.138 5.13352 110.416 5.40057C110.7 5.66761 110.842 5.98864 110.842 6.36364C110.842 6.73864 110.7 7.05966 110.416 7.3267C110.138 7.59375 109.803 7.72727 109.411 7.72727ZM116.094 5.54545V23H114.083V5.54545H116.094ZM124.722 23.2727C123.631 23.2727 122.668 22.9972 121.832 22.446C120.997 21.8892 120.344 21.1051 119.872 20.0938C119.401 19.0767 119.165 17.875 119.165 16.4886C119.165 15.1136 119.401 13.9205 119.872 12.9091C120.344 11.8977 121 11.1165 121.841 10.5653C122.682 10.0142 123.653 9.73864 124.756 9.73864C125.608 9.73864 126.281 9.88068 126.776 10.1648C127.276 10.4432 127.656 10.7614 127.918 11.1193C128.185 11.4716 128.392 11.7614 128.54 11.9886H128.71V5.54545H130.722V23H128.778V20.9886H128.54C128.392 21.2273 128.182 21.5284 127.909 21.892C127.636 22.25 127.247 22.571 126.741 22.8551C126.236 23.1335 125.563 23.2727 124.722 23.2727ZM124.994 21.4659C125.801 21.4659 126.483 21.2557 127.04 20.8352C127.597 20.4091 128.02 19.821 128.31 19.071C128.599 18.3153 128.744 17.4432 128.744 16.4545C128.744 15.4773 128.602 14.6222 128.318 13.8892C128.034 13.1506 127.614 12.5767 127.057 12.1676C126.5 11.7528 125.813 11.5455 124.994 11.5455C124.142 11.5455 123.432 11.7642 122.864 12.2017C122.301 12.6335 121.878 13.2216 121.594 13.9659C121.315 14.7045 121.176 15.5341 121.176 16.4545C121.176 17.3864 121.318 18.233 121.602 18.9943C121.892 19.75 122.318 20.3523 122.881 20.8011C123.449 21.2443 124.153 21.4659 124.994 21.4659ZM134.685 23V9.90909H136.696V23H134.685ZM135.707 7.72727C135.315 7.72727 134.977 7.59375 134.693 7.3267C134.415 7.05966 134.276 6.73864 134.276 6.36364C134.276 5.98864 134.415 5.66761 134.693 5.40057C134.977 5.13352 135.315 5 135.707 5C136.099 5 136.435 5.13352 136.713 5.40057C136.997 5.66761 137.139 5.98864 137.139 6.36364C137.139 6.73864 136.997 7.05966 136.713 7.3267C136.435 7.59375 136.099 7.72727 135.707 7.72727ZM142.391 15.125V23H140.38V9.90909H142.323V11.9545H142.494C142.8 11.2898 143.266 10.7557 143.891 10.3523C144.516 9.94318 145.323 9.73864 146.312 9.73864C147.198 9.73864 147.974 9.92045 148.638 10.2841C149.303 10.642 149.82 11.1875 150.19 11.9205C150.559 12.6477 150.744 13.5682 150.744 14.6818V23H148.732V14.8182C148.732 13.7898 148.465 12.9886 147.931 12.4148C147.397 11.8352 146.664 11.5455 145.732 11.5455C145.09 11.5455 144.516 11.6847 144.011 11.9631C143.511 12.2415 143.116 12.6477 142.826 13.1818C142.536 13.7159 142.391 14.3636 142.391 15.125ZM159.703 28.1818C158.732 28.1818 157.896 28.0568 157.197 27.8068C156.499 27.5625 155.916 27.2386 155.45 26.8352C154.99 26.4375 154.624 26.0114 154.351 25.5568L155.953 24.4318C156.135 24.6705 156.365 24.9432 156.643 25.25C156.922 25.5625 157.303 25.8324 157.786 26.0597C158.274 26.2926 158.913 26.4091 159.703 26.4091C160.76 26.4091 161.632 26.1534 162.32 25.642C163.007 25.1307 163.351 24.3295 163.351 23.2386V20.5795H163.18C163.033 20.8182 162.822 21.1136 162.55 21.4659C162.283 21.8125 161.896 22.1222 161.391 22.3949C160.891 22.6619 160.214 22.7955 159.362 22.7955C158.305 22.7955 157.357 22.5455 156.516 22.0455C155.68 21.5455 155.018 20.8182 154.53 19.8636C154.047 18.9091 153.805 17.75 153.805 16.3864C153.805 15.0455 154.041 13.8778 154.513 12.8835C154.984 11.8835 155.641 11.1108 156.482 10.5653C157.322 10.0142 158.294 9.73864 159.396 9.73864C160.249 9.73864 160.925 9.88068 161.425 10.1648C161.93 10.4432 162.317 10.7614 162.584 11.1193C162.857 11.4716 163.067 11.7614 163.214 11.9886H163.419V9.90909H165.362V23.375C165.362 24.5 165.107 25.4148 164.595 26.1193C164.089 26.8295 163.408 27.3494 162.55 27.679C161.697 28.0142 160.749 28.1818 159.703 28.1818ZM159.635 20.9886C160.442 20.9886 161.124 20.804 161.68 20.4347C162.237 20.0653 162.661 19.5341 162.95 18.8409C163.24 18.1477 163.385 17.3182 163.385 16.3523C163.385 15.4091 163.243 14.5767 162.959 13.8551C162.675 13.1335 162.254 12.5682 161.697 12.1591C161.141 11.75 160.453 11.5455 159.635 11.5455C158.783 11.5455 158.072 11.7614 157.504 12.1932C156.942 12.625 156.518 13.2045 156.234 13.9318C155.956 14.6591 155.817 15.4659 155.817 16.3523C155.817 17.2614 155.959 18.0653 156.243 18.7642C156.533 19.4574 156.959 20.0028 157.521 20.4006C158.089 20.7926 158.794 20.9886 159.635 20.9886ZM175.794 27.9091V9.90909H177.737V11.9886H177.976C178.124 11.7614 178.328 11.4716 178.589 11.1193C178.857 10.7614 179.237 10.4432 179.732 10.1648C180.232 9.88068 180.908 9.73864 181.76 9.73864C182.862 9.73864 183.834 10.0142 184.675 10.5653C185.516 11.1165 186.172 11.8977 186.643 12.9091C187.115 13.9205 187.351 15.1136 187.351 16.4886C187.351 17.875 187.115 19.0767 186.643 20.0938C186.172 21.1051 185.518 21.8892 184.683 22.446C183.848 22.9972 182.885 23.2727 181.794 23.2727C180.953 23.2727 180.28 23.1335 179.774 22.8551C179.268 22.571 178.879 22.25 178.607 21.892C178.334 21.5284 178.124 21.2273 177.976 20.9886H177.805V27.9091H175.794ZM177.771 16.4545C177.771 17.4432 177.916 18.3153 178.206 19.071C178.496 19.821 178.919 20.4091 179.476 20.8352C180.033 21.2557 180.714 21.4659 181.521 21.4659C182.362 21.4659 183.064 21.2443 183.626 20.8011C184.195 20.3523 184.621 19.75 184.905 18.9943C185.195 18.233 185.339 17.3864 185.339 16.4545C185.339 15.5341 185.197 14.7045 184.913 13.9659C184.635 13.2216 184.212 12.6335 183.643 12.2017C183.081 11.7642 182.374 11.5455 181.521 11.5455C180.703 11.5455 180.016 11.7528 179.459 12.1676C178.902 12.5767 178.482 13.1506 178.197 13.8892C177.913 14.6222 177.771 15.4773 177.771 16.4545ZM190.419 23V9.90909H192.362V11.8864H192.499C192.737 11.2386 193.169 10.7131 193.794 10.3097C194.419 9.90625 195.124 9.70454 195.908 9.70454C196.055 9.70454 196.24 9.70739 196.462 9.71307C196.683 9.71875 196.851 9.72727 196.964 9.73864V11.7841C196.896 11.767 196.74 11.7415 196.496 11.7074C196.257 11.6676 196.004 11.6477 195.737 11.6477C195.101 11.6477 194.533 11.7812 194.033 12.0483C193.538 12.3097 193.146 12.6733 192.857 13.1392C192.572 13.5994 192.43 14.125 192.43 14.7159V23H190.419ZM204.268 23.2727C203.087 23.2727 202.05 22.9915 201.158 22.429C200.271 21.8665 199.578 21.0795 199.078 20.0682C198.584 19.0568 198.337 17.875 198.337 16.5227C198.337 15.1591 198.584 13.9687 199.078 12.9517C199.578 11.9347 200.271 11.1449 201.158 10.5824C202.05 10.0199 203.087 9.73864 204.268 9.73864C205.45 9.73864 206.484 10.0199 207.371 10.5824C208.263 11.1449 208.956 11.9347 209.45 12.9517C209.95 13.9687 210.2 15.1591 210.2 16.5227C210.2 17.875 209.95 19.0568 209.45 20.0682C208.956 21.0795 208.263 21.8665 207.371 22.429C206.484 22.9915 205.45 23.2727 204.268 23.2727ZM204.268 21.4659C205.166 21.4659 205.905 21.2358 206.484 20.7756C207.064 20.3153 207.493 19.7102 207.771 18.9602C208.05 18.2102 208.189 17.3977 208.189 16.5227C208.189 15.6477 208.05 14.8324 207.771 14.0767C207.493 13.321 207.064 12.7102 206.484 12.2443C205.905 11.7784 205.166 11.5455 204.268 11.5455C203.371 11.5455 202.632 11.7784 202.053 12.2443C201.473 12.7102 201.044 13.321 200.766 14.0767C200.487 14.8324 200.348 15.6477 200.348 16.5227C200.348 17.3977 200.487 18.2102 200.766 18.9602C201.044 19.7102 201.473 20.3153 202.053 20.7756C202.632 21.2358 203.371 21.4659 204.268 21.4659ZM218.964 9.90909V11.6136H212.18V9.90909H218.964ZM214.157 6.77273H216.168V19.25C216.168 19.8182 216.251 20.2443 216.415 20.5284C216.586 20.8068 216.802 20.9943 217.063 21.0909C217.33 21.1818 217.612 21.2273 217.907 21.2273C218.129 21.2273 218.31 21.2159 218.452 21.1932C218.594 21.1648 218.708 21.142 218.793 21.125L219.202 22.9318C219.066 22.983 218.876 23.0341 218.631 23.0852C218.387 23.142 218.077 23.1705 217.702 23.1705C217.134 23.1705 216.577 23.0483 216.032 22.804C215.492 22.5597 215.043 22.1875 214.685 21.6875C214.333 21.1875 214.157 20.5568 214.157 19.7955V6.77273ZM227.167 23.2727C225.985 23.2727 224.948 22.9915 224.056 22.429C223.17 21.8665 222.477 21.0795 221.977 20.0682C221.482 19.0568 221.235 17.875 221.235 16.5227C221.235 15.1591 221.482 13.9687 221.977 12.9517C222.477 11.9347 223.17 11.1449 224.056 10.5824C224.948 10.0199 225.985 9.73864 227.167 9.73864C228.349 9.73864 229.383 10.0199 230.269 10.5824C231.161 11.1449 231.854 11.9347 232.349 12.9517C232.849 13.9687 233.099 15.1591 233.099 16.5227C233.099 17.875 232.849 19.0568 232.349 20.0682C231.854 21.0795 231.161 21.8665 230.269 22.429C229.383 22.9915 228.349 23.2727 227.167 23.2727ZM227.167 21.4659C228.065 21.4659 228.803 21.2358 229.383 20.7756C229.962 20.3153 230.391 19.7102 230.67 18.9602C230.948 18.2102 231.087 17.3977 231.087 16.5227C231.087 15.6477 230.948 14.8324 230.67 14.0767C230.391 13.321 229.962 12.7102 229.383 12.2443C228.803 11.7784 228.065 11.5455 227.167 11.5455C226.269 11.5455 225.531 11.7784 224.951 12.2443C224.371 12.7102 223.942 13.321 223.664 14.0767C223.386 14.8324 223.246 15.6477 223.246 16.5227C223.246 17.3977 223.386 18.2102 223.664 18.9602C223.942 19.7102 224.371 20.3153 224.951 20.7756C225.531 21.2358 226.269 21.4659 227.167 21.4659ZM241.487 23.2727C240.26 23.2727 239.203 22.983 238.317 22.4034C237.43 21.8239 236.749 21.0256 236.271 20.0085C235.794 18.9915 235.555 17.8295 235.555 16.5227C235.555 15.1932 235.8 14.0199 236.288 13.0028C236.783 11.9801 237.47 11.1818 238.351 10.608C239.237 10.0284 240.271 9.73864 241.453 9.73864C242.374 9.73864 243.203 9.90909 243.942 10.25C244.68 10.5909 245.286 11.0682 245.757 11.6818C246.229 12.2955 246.521 13.0114 246.635 13.8295H244.624C244.47 13.233 244.129 12.7045 243.601 12.2443C243.078 11.7784 242.374 11.5455 241.487 11.5455C240.703 11.5455 240.016 11.75 239.425 12.1591C238.839 12.5625 238.382 13.1335 238.053 13.8722C237.729 14.6051 237.567 15.4659 237.567 16.4545C237.567 17.4659 237.726 18.3466 238.044 19.0966C238.368 19.8466 238.822 20.429 239.408 20.8438C239.999 21.2585 240.692 21.4659 241.487 21.4659C242.01 21.4659 242.484 21.375 242.911 21.1932C243.337 21.0114 243.697 20.75 243.993 20.4091C244.288 20.0682 244.499 19.6591 244.624 19.1818H246.635C246.521 19.9545 246.24 20.6506 245.791 21.2699C245.348 21.8835 244.76 22.3722 244.027 22.7358C243.3 23.0938 242.453 23.2727 241.487 23.2727ZM254.893 23.2727C253.712 23.2727 252.675 22.9915 251.783 22.429C250.896 21.8665 250.203 21.0795 249.703 20.0682C249.209 19.0568 248.962 17.875 248.962 16.5227C248.962 15.1591 249.209 13.9687 249.703 12.9517C250.203 11.9347 250.896 11.1449 251.783 10.5824C252.675 10.0199 253.712 9.73864 254.893 9.73864C256.075 9.73864 257.109 10.0199 257.996 10.5824C258.888 11.1449 259.581 11.9347 260.075 12.9517C260.575 13.9687 260.825 15.1591 260.825 16.5227C260.825 17.875 260.575 19.0568 260.075 20.0682C259.581 21.0795 258.888 21.8665 257.996 22.429C257.109 22.9915 256.075 23.2727 254.893 23.2727ZM254.893 21.4659C255.791 21.4659 256.53 21.2358 257.109 20.7756C257.689 20.3153 258.118 19.7102 258.396 18.9602C258.675 18.2102 258.814 17.3977 258.814 16.5227C258.814 15.6477 258.675 14.8324 258.396 14.0767C258.118 13.321 257.689 12.7102 257.109 12.2443C256.53 11.7784 255.791 11.5455 254.893 11.5455C253.996 11.5455 253.257 11.7784 252.678 12.2443C252.098 12.7102 251.669 13.321 251.391 14.0767C251.112 14.8324 250.973 15.6477 250.973 16.5227C250.973 17.3977 251.112 18.2102 251.391 18.9602C251.669 19.7102 252.098 20.3153 252.678 20.7756C253.257 21.2358 253.996 21.4659 254.893 21.4659ZM265.907 5.54545V23H263.896V5.54545H265.907ZM278.864 12.8409L277.057 13.3523C276.943 13.0511 276.776 12.7585 276.554 12.4744C276.338 12.1847 276.043 11.946 275.668 11.7585C275.293 11.571 274.812 11.4773 274.227 11.4773C273.426 11.4773 272.759 11.6619 272.224 12.0312C271.696 12.3949 271.432 12.858 271.432 13.4205C271.432 13.9205 271.614 14.3153 271.977 14.6051C272.341 14.8949 272.909 15.1364 273.682 15.3295L275.625 15.8068C276.795 16.0909 277.668 16.5256 278.241 17.1108C278.815 17.6903 279.102 18.4375 279.102 19.3523C279.102 20.1023 278.886 20.7727 278.455 21.3636C278.028 21.9545 277.432 22.4205 276.665 22.7614C275.898 23.1023 275.006 23.2727 273.989 23.2727C272.653 23.2727 271.548 22.983 270.673 22.4034C269.798 21.8239 269.244 20.9773 269.011 19.8636L270.92 19.3864C271.102 20.0909 271.446 20.6193 271.952 20.9716C272.463 21.3239 273.131 21.5 273.955 21.5C274.892 21.5 275.636 21.3011 276.188 20.9034C276.744 20.5 277.023 20.017 277.023 19.4545C277.023 19 276.864 18.6193 276.545 18.3125C276.227 18 275.739 17.767 275.08 17.6136L272.898 17.1023C271.699 16.8182 270.818 16.3778 270.256 15.7812C269.699 15.179 269.42 14.4261 269.42 13.5227C269.42 12.7841 269.628 12.1307 270.043 11.5625C270.463 10.9943 271.034 10.5483 271.756 10.2244C272.483 9.90057 273.307 9.73864 274.227 9.73864C275.523 9.73864 276.54 10.0227 277.278 10.5909C278.023 11.1591 278.551 11.9091 278.864 12.8409ZM292.732 23.3068C291.903 23.3068 291.15 23.1506 290.474 22.8381C289.798 22.5199 289.261 22.0625 288.863 21.4659C288.465 20.8636 288.266 20.1364 288.266 19.2841C288.266 18.5341 288.414 17.9261 288.71 17.4602C289.005 16.9886 289.4 16.6193 289.894 16.3523C290.388 16.0852 290.934 15.8864 291.531 15.7557C292.133 15.6193 292.738 15.5114 293.346 15.4318C294.141 15.3295 294.786 15.2528 295.281 15.2017C295.781 15.1449 296.144 15.0511 296.371 14.9205C296.604 14.7898 296.721 14.5625 296.721 14.2386V14.1705C296.721 13.3295 296.491 12.6761 296.031 12.2102C295.576 11.7443 294.886 11.5114 293.96 11.5114C292.999 11.5114 292.246 11.7216 291.701 12.142C291.156 12.5625 290.772 13.0114 290.55 13.4886L288.641 12.8068C288.982 12.0114 289.437 11.392 290.005 10.9489C290.579 10.5 291.204 10.1875 291.88 10.0114C292.562 9.82955 293.232 9.73864 293.891 9.73864C294.312 9.73864 294.795 9.78977 295.34 9.89204C295.891 9.98864 296.423 10.1903 296.934 10.4972C297.451 10.804 297.88 11.267 298.221 11.8864C298.562 12.5057 298.732 13.3352 298.732 14.375V23H296.721V21.2273H296.619C296.482 21.5114 296.255 21.8153 295.937 22.1392C295.619 22.4631 295.195 22.7386 294.667 22.9659C294.138 23.1932 293.494 23.3068 292.732 23.3068ZM293.039 21.5C293.835 21.5 294.505 21.3438 295.05 21.0312C295.602 20.7188 296.016 20.3153 296.295 19.821C296.579 19.3267 296.721 18.8068 296.721 18.2614V16.4205C296.636 16.5227 296.448 16.6165 296.158 16.7017C295.874 16.7812 295.545 16.8523 295.17 16.9148C294.8 16.9716 294.44 17.0227 294.087 17.0682C293.741 17.108 293.46 17.142 293.244 17.1705C292.721 17.2386 292.232 17.3494 291.778 17.5028C291.329 17.6506 290.965 17.875 290.687 18.1761C290.414 18.4716 290.278 18.875 290.278 19.3864C290.278 20.0852 290.536 20.6136 291.053 20.9716C291.576 21.3239 292.238 21.5 293.039 21.5ZM304.415 15.125V23H302.403V9.90909H304.347V11.9545H304.517C304.824 11.2898 305.29 10.7557 305.915 10.3523C306.54 9.94318 307.347 9.73864 308.335 9.73864C309.222 9.73864 309.997 9.92045 310.662 10.2841C311.327 10.642 311.844 11.1875 312.213 11.9205C312.582 12.6477 312.767 13.5682 312.767 14.6818V23H310.756V14.8182C310.756 13.7898 310.489 12.9886 309.955 12.4148C309.42 11.8352 308.688 11.5455 307.756 11.5455C307.114 11.5455 306.54 11.6847 306.034 11.9631C305.534 12.2415 305.139 12.6477 304.849 13.1818C304.56 13.7159 304.415 14.3636 304.415 15.125ZM321.386 23.2727C320.295 23.2727 319.332 22.9972 318.496 22.446C317.661 21.8892 317.008 21.1051 316.536 20.0938C316.065 19.0767 315.829 17.875 315.829 16.4886C315.829 15.1136 316.065 13.9205 316.536 12.9091C317.008 11.8977 317.664 11.1165 318.505 10.5653C319.346 10.0142 320.317 9.73864 321.42 9.73864C322.272 9.73864 322.945 9.88068 323.44 10.1648C323.94 10.4432 324.32 10.7614 324.582 11.1193C324.849 11.4716 325.056 11.7614 325.204 11.9886H325.374V5.54545H327.386V23H325.442V20.9886H325.204C325.056 21.2273 324.846 21.5284 324.573 21.892C324.3 22.25 323.911 22.571 323.406 22.8551C322.9 23.1335 322.227 23.2727 321.386 23.2727ZM321.658 21.4659C322.465 21.4659 323.147 21.2557 323.704 20.8352C324.261 20.4091 324.684 19.821 324.974 19.071C325.263 18.3153 325.408 17.4432 325.408 16.4545C325.408 15.4773 325.266 14.6222 324.982 13.8892C324.698 13.1506 324.278 12.5767 323.721 12.1676C323.164 11.7528 322.477 11.5455 321.658 11.5455C320.806 11.5455 320.096 11.7642 319.528 12.2017C318.965 12.6335 318.542 13.2216 318.258 13.9659C317.979 14.7045 317.84 15.5341 317.84 16.4545C317.84 17.3864 317.982 18.233 318.266 18.9943C318.556 19.75 318.982 20.3523 319.545 20.8011C320.113 21.2443 320.817 21.4659 321.658 21.4659ZM338.099 23V9.90909H340.11V23H338.099ZM339.121 7.72727C338.729 7.72727 338.391 7.59375 338.107 7.3267C337.829 7.05966 337.69 6.73864 337.69 6.36364C337.69 5.98864 337.829 5.66761 338.107 5.40057C338.391 5.13352 338.729 5 339.121 5C339.513 5 339.849 5.13352 340.127 5.40057C340.411 5.66761 340.553 5.98864 340.553 6.36364C340.553 6.73864 340.411 7.05966 340.127 7.3267C339.849 7.59375 339.513 7.72727 339.121 7.72727ZM345.805 15.125V23H343.794V9.90909H345.737V11.9545H345.908C346.214 11.2898 346.68 10.7557 347.305 10.3523C347.93 9.94318 348.737 9.73864 349.726 9.73864C350.612 9.73864 351.388 9.92045 352.053 10.2841C352.717 10.642 353.234 11.1875 353.604 11.9205C353.973 12.6477 354.158 13.5682 354.158 14.6818V23H352.146V14.8182C352.146 13.7898 351.879 12.9886 351.345 12.4148C350.811 11.8352 350.078 11.5455 349.146 11.5455C348.504 11.5455 347.93 11.6847 347.425 11.9631C346.925 12.2415 346.53 12.6477 346.24 13.1818C345.95 13.7159 345.805 14.3636 345.805 15.125ZM363.663 9.90909V11.6136H356.606V9.90909H363.663ZM358.719 23V8.10227C358.719 7.35227 358.896 6.72727 359.248 6.22727C359.6 5.72727 360.058 5.35227 360.62 5.10227C361.183 4.85227 361.776 4.72727 362.401 4.72727C362.896 4.72727 363.299 4.76704 363.612 4.84659C363.924 4.92614 364.157 5 364.31 5.06818L363.731 6.80682C363.629 6.77273 363.487 6.73011 363.305 6.67898C363.129 6.62784 362.896 6.60227 362.606 6.60227C361.941 6.60227 361.461 6.76989 361.165 7.10511C360.876 7.44034 360.731 7.93182 360.731 8.57954V23H358.719ZM366.482 23V9.90909H368.425V11.8864H368.561C368.8 11.2386 369.232 10.7131 369.857 10.3097C370.482 9.90625 371.186 9.70454 371.97 9.70454C372.118 9.70454 372.303 9.70739 372.524 9.71307C372.746 9.71875 372.913 9.72727 373.027 9.73864V11.7841C372.959 11.767 372.803 11.7415 372.558 11.7074C372.32 11.6676 372.067 11.6477 371.8 11.6477C371.163 11.6477 370.595 11.7812 370.095 12.0483C369.601 12.3097 369.209 12.6733 368.919 13.1392C368.635 13.5994 368.493 14.125 368.493 14.7159V23H366.482ZM379.263 23.3068C378.434 23.3068 377.681 23.1506 377.005 22.8381C376.329 22.5199 375.792 22.0625 375.394 21.4659C374.996 20.8636 374.798 20.1364 374.798 19.2841C374.798 18.5341 374.945 17.9261 375.241 17.4602C375.536 16.9886 375.931 16.6193 376.425 16.3523C376.92 16.0852 377.465 15.8864 378.062 15.7557C378.664 15.6193 379.269 15.5114 379.877 15.4318C380.673 15.3295 381.317 15.2528 381.812 15.2017C382.312 15.1449 382.675 15.0511 382.903 14.9205C383.136 14.7898 383.252 14.5625 383.252 14.2386V14.1705C383.252 13.3295 383.022 12.6761 382.562 12.2102C382.107 11.7443 381.417 11.5114 380.491 11.5114C379.531 11.5114 378.778 11.7216 378.232 12.142C377.687 12.5625 377.303 13.0114 377.082 13.4886L375.173 12.8068C375.513 12.0114 375.968 11.392 376.536 10.9489C377.11 10.5 377.735 10.1875 378.411 10.0114C379.093 9.82955 379.763 9.73864 380.423 9.73864C380.843 9.73864 381.326 9.78977 381.871 9.89204C382.423 9.98864 382.954 10.1903 383.465 10.4972C383.982 10.804 384.411 11.267 384.752 11.8864C385.093 12.5057 385.263 13.3352 385.263 14.375V23H383.252V21.2273H383.15C383.013 21.5114 382.786 21.8153 382.468 22.1392C382.15 22.4631 381.727 22.7386 381.198 22.9659C380.67 23.1932 380.025 23.3068 379.263 23.3068ZM379.57 21.5C380.366 21.5 381.036 21.3438 381.582 21.0312C382.133 20.7188 382.548 20.3153 382.826 19.821C383.11 19.3267 383.252 18.8068 383.252 18.2614V16.4205C383.167 16.5227 382.979 16.6165 382.69 16.7017C382.406 16.7812 382.076 16.8523 381.701 16.9148C381.332 16.9716 380.971 17.0227 380.619 17.0682C380.272 17.108 379.991 17.142 379.775 17.1705C379.252 17.2386 378.763 17.3494 378.309 17.5028C377.86 17.6506 377.496 17.875 377.218 18.1761C376.945 18.4716 376.809 18.875 376.809 19.3864C376.809 20.0852 377.067 20.6136 377.585 20.9716C378.107 21.3239 378.769 21.5 379.57 21.5ZM398.207 12.8409L396.401 13.3523C396.287 13.0511 396.119 12.7585 395.898 12.4744C395.682 12.1847 395.386 11.946 395.011 11.7585C394.636 11.571 394.156 11.4773 393.571 11.4773C392.77 11.4773 392.102 11.6619 391.568 12.0312C391.04 12.3949 390.776 12.858 390.776 13.4205C390.776 13.9205 390.957 14.3153 391.321 14.6051C391.685 14.8949 392.253 15.1364 393.026 15.3295L394.969 15.8068C396.139 16.0909 397.011 16.5256 397.585 17.1108C398.159 17.6903 398.446 18.4375 398.446 19.3523C398.446 20.1023 398.23 20.7727 397.798 21.3636C397.372 21.9545 396.776 22.4205 396.009 22.7614C395.241 23.1023 394.349 23.2727 393.332 23.2727C391.997 23.2727 390.892 22.983 390.017 22.4034C389.142 21.8239 388.588 20.9773 388.355 19.8636L390.264 19.3864C390.446 20.0909 390.79 20.6193 391.295 20.9716C391.807 21.3239 392.474 21.5 393.298 21.5C394.236 21.5 394.98 21.3011 395.531 20.9034C396.088 20.5 396.366 20.017 396.366 19.4545C396.366 19 396.207 18.6193 395.889 18.3125C395.571 18 395.082 17.767 394.423 17.6136L392.241 17.1023C391.043 16.8182 390.162 16.3778 389.599 15.7812C389.043 15.179 388.764 14.4261 388.764 13.5227C388.764 12.7841 388.972 12.1307 389.386 11.5625C389.807 10.9943 390.378 10.5483 391.099 10.2244C391.827 9.90057 392.651 9.73864 393.571 9.73864C394.866 9.73864 395.884 10.0227 396.622 10.5909C397.366 11.1591 397.895 11.9091 398.207 12.8409ZM401.474 23V9.90909H403.417V11.8864H403.553C403.792 11.2386 404.224 10.7131 404.849 10.3097C405.474 9.90625 406.178 9.70454 406.962 9.70454C407.11 9.70454 407.295 9.70739 407.516 9.71307C407.738 9.71875 407.906 9.72727 408.019 9.73864V11.7841C407.951 11.767 407.795 11.7415 407.55 11.7074C407.312 11.6676 407.059 11.6477 406.792 11.6477C406.156 11.6477 405.587 11.7812 405.087 12.0483C404.593 12.3097 404.201 12.6733 403.911 13.1392C403.627 13.5994 403.485 14.125 403.485 14.7159V23H401.474ZM416.917 9.90909V11.6136H410.133V9.90909H416.917ZM412.11 6.77273H414.121V19.25C414.121 19.8182 414.204 20.2443 414.369 20.5284C414.539 20.8068 414.755 20.9943 415.016 21.0909C415.283 21.1818 415.565 21.2273 415.86 21.2273C416.082 21.2273 416.263 21.2159 416.406 21.1932C416.548 21.1648 416.661 21.142 416.746 21.125L417.156 22.9318C417.019 22.983 416.829 23.0341 416.585 23.0852C416.34 23.142 416.031 23.1705 415.656 23.1705C415.087 23.1705 414.531 23.0483 413.985 22.804C413.445 22.5597 412.996 22.1875 412.638 21.6875C412.286 21.1875 412.11 20.5568 412.11 19.7955V6.77273ZM428.192 17.6477V9.90909H430.204V23H428.192V20.7841H428.056C427.749 21.4489 427.272 22.0142 426.624 22.4801C425.977 22.9403 425.158 23.1705 424.17 23.1705C423.352 23.1705 422.624 22.9915 421.988 22.6335C421.352 22.2699 420.852 21.7244 420.488 20.9972C420.124 20.2642 419.942 19.3409 419.942 18.2273V9.90909H421.954V18.0909C421.954 19.0455 422.221 19.8068 422.755 20.375C423.295 20.9432 423.982 21.2273 424.817 21.2273C425.317 21.2273 425.826 21.0994 426.343 20.8438C426.866 20.5881 427.303 20.196 427.656 19.6676C428.013 19.1392 428.192 18.4659 428.192 17.6477ZM439.206 23.2727C437.979 23.2727 436.922 22.983 436.036 22.4034C435.149 21.8239 434.467 21.0256 433.99 20.0085C433.513 18.9915 433.274 17.8295 433.274 16.5227C433.274 15.1932 433.518 14.0199 434.007 13.0028C434.501 11.9801 435.189 11.1818 436.07 10.608C436.956 10.0284 437.99 9.73864 439.172 9.73864C440.092 9.73864 440.922 9.90909 441.661 10.25C442.399 10.5909 443.004 11.0682 443.476 11.6818C443.947 12.2955 444.24 13.0114 444.354 13.8295H442.342C442.189 13.233 441.848 12.7045 441.32 12.2443C440.797 11.7784 440.092 11.5455 439.206 11.5455C438.422 11.5455 437.734 11.75 437.143 12.1591C436.558 12.5625 436.101 13.1335 435.771 13.8722C435.447 14.6051 435.286 15.4659 435.286 16.4545C435.286 17.4659 435.445 18.3466 435.763 19.0966C436.087 19.8466 436.541 20.429 437.126 20.8438C437.717 21.2585 438.411 21.4659 439.206 21.4659C439.729 21.4659 440.203 21.375 440.629 21.1932C441.055 21.0114 441.416 20.75 441.712 20.4091C442.007 20.0682 442.217 19.6591 442.342 19.1818H444.354C444.24 19.9545 443.959 20.6506 443.51 21.2699C443.067 21.8835 442.479 22.3722 441.746 22.7358C441.018 23.0938 440.172 23.2727 439.206 23.2727ZM452.987 9.90909V11.6136H446.203V9.90909H452.987ZM448.18 6.77273H450.192V19.25C450.192 19.8182 450.274 20.2443 450.439 20.5284C450.609 20.8068 450.825 20.9943 451.087 21.0909C451.354 21.1818 451.635 21.2273 451.93 21.2273C452.152 21.2273 452.334 21.2159 452.476 21.1932C452.618 21.1648 452.732 21.142 452.817 21.125L453.226 22.9318C453.089 22.983 452.899 23.0341 452.655 23.0852C452.411 23.142 452.101 23.1705 451.726 23.1705C451.158 23.1705 450.601 23.0483 450.055 22.804C449.516 22.5597 449.067 22.1875 448.709 21.6875C448.357 21.1875 448.18 20.5568 448.18 19.7955V6.77273ZM464.263 17.6477V9.90909H466.274V23H464.263V20.7841H464.126C463.82 21.4489 463.342 22.0142 462.695 22.4801C462.047 22.9403 461.229 23.1705 460.24 23.1705C459.422 23.1705 458.695 22.9915 458.058 22.6335C457.422 22.2699 456.922 21.7244 456.558 20.9972C456.195 20.2642 456.013 19.3409 456.013 18.2273V9.90909H458.024V18.0909C458.024 19.0455 458.291 19.8068 458.825 20.375C459.365 20.9432 460.053 21.2273 460.888 21.2273C461.388 21.2273 461.896 21.0994 462.413 20.8438C462.936 20.5881 463.374 20.196 463.726 19.6676C464.084 19.1392 464.263 18.4659 464.263 17.6477ZM469.958 23V9.90909H471.901V11.8864H472.038C472.276 11.2386 472.708 10.7131 473.333 10.3097C473.958 9.90625 474.663 9.70454 475.447 9.70454C475.594 9.70454 475.779 9.70739 476.001 9.71307C476.222 9.71875 476.39 9.72727 476.504 9.73864V11.7841C476.435 11.767 476.279 11.7415 476.035 11.7074C475.796 11.6676 475.543 11.6477 475.276 11.6477C474.64 11.6477 474.072 11.7812 473.572 12.0483C473.077 12.3097 472.685 12.6733 472.396 13.1392C472.112 13.5994 471.969 14.125 471.969 14.7159V23H469.958ZM483.978 23.2727C482.717 23.2727 481.629 22.9943 480.714 22.4375C479.805 21.875 479.103 21.0909 478.609 20.0852C478.12 19.0739 477.876 17.8977 477.876 16.5568C477.876 15.2159 478.12 14.0341 478.609 13.0114C479.103 11.983 479.79 11.1818 480.671 10.608C481.558 10.0284 482.592 9.73864 483.773 9.73864C484.455 9.73864 485.129 9.85227 485.793 10.0795C486.458 10.3068 487.063 10.6761 487.609 11.1875C488.154 11.6932 488.589 12.3636 488.913 13.1989C489.237 14.0341 489.398 15.0625 489.398 16.2841V17.1364H479.308V15.3977H487.353C487.353 14.6591 487.205 14 486.91 13.4205C486.62 12.8409 486.205 12.3835 485.665 12.0483C485.131 11.7131 484.501 11.5455 483.773 11.5455C482.972 11.5455 482.279 11.7443 481.694 12.142C481.114 12.5341 480.668 13.0455 480.356 13.6761C480.043 14.3068 479.887 14.983 479.887 15.7045V16.8636C479.887 17.8523 480.058 18.6903 480.398 19.3778C480.745 20.0597 481.225 20.5795 481.839 20.9375C482.452 21.2898 483.165 21.4659 483.978 21.4659C484.506 21.4659 484.984 21.392 485.41 21.2443C485.842 21.0909 486.214 20.8636 486.526 20.5625C486.839 20.2557 487.08 19.875 487.251 19.4205L489.194 19.9659C488.989 20.625 488.646 21.2045 488.163 21.7045C487.68 22.1989 487.083 22.5852 486.373 22.8636C485.663 23.1364 484.864 23.2727 483.978 23.2727ZM505.038 9.90909V11.6136H497.981V9.90909H505.038ZM500.094 23V8.10227C500.094 7.35227 500.271 6.72727 500.623 6.22727C500.975 5.72727 501.433 5.35227 501.995 5.10227C502.558 4.85227 503.151 4.72727 503.776 4.72727C504.271 4.72727 504.674 4.76704 504.987 4.84659C505.299 4.92614 505.532 5 505.685 5.06818L505.106 6.80682C505.004 6.77273 504.862 6.73011 504.68 6.67898C504.504 6.62784 504.271 6.60227 503.981 6.60227C503.316 6.60227 502.836 6.76989 502.54 7.10511C502.251 7.44034 502.106 7.93182 502.106 8.57954V23H500.094ZM512.636 23.2727C511.454 23.2727 510.417 22.9915 509.525 22.429C508.638 21.8665 507.945 21.0795 507.445 20.0682C506.951 19.0568 506.704 17.875 506.704 16.5227C506.704 15.1591 506.951 13.9687 507.445 12.9517C507.945 11.9347 508.638 11.1449 509.525 10.5824C510.417 10.0199 511.454 9.73864 512.636 9.73864C513.817 9.73864 514.852 10.0199 515.738 10.5824C516.63 11.1449 517.323 11.9347 517.817 12.9517C518.317 13.9687 518.567 15.1591 518.567 16.5227C518.567 17.875 518.317 19.0568 517.817 20.0682C517.323 21.0795 516.63 21.8665 515.738 22.429C514.852 22.9915 513.817 23.2727 512.636 23.2727ZM512.636 21.4659C513.533 21.4659 514.272 21.2358 514.852 20.7756C515.431 20.3153 515.86 19.7102 516.138 18.9602C516.417 18.2102 516.556 17.3977 516.556 16.5227C516.556 15.6477 516.417 14.8324 516.138 14.0767C515.86 13.321 515.431 12.7102 514.852 12.2443C514.272 11.7784 513.533 11.5455 512.636 11.5455C511.738 11.5455 510.999 11.7784 510.42 12.2443C509.84 12.7102 509.411 13.321 509.133 14.0767C508.854 14.8324 508.715 15.6477 508.715 16.5227C508.715 17.3977 508.854 18.2102 509.133 18.9602C509.411 19.7102 509.84 20.3153 510.42 20.7756C510.999 21.2358 511.738 21.4659 512.636 21.4659ZM521.638 23V9.90909H523.581V11.8864H523.717C523.956 11.2386 524.388 10.7131 525.013 10.3097C525.638 9.90625 526.342 9.70454 527.126 9.70454C527.274 9.70454 527.459 9.70739 527.68 9.71307C527.902 9.71875 528.07 9.72727 528.183 9.73864V11.7841C528.115 11.767 527.959 11.7415 527.714 11.7074C527.476 11.6676 527.223 11.6477 526.956 11.6477C526.32 11.6477 525.751 11.7812 525.251 12.0483C524.757 12.3097 524.365 12.6733 524.075 13.1392C523.791 13.5994 523.649 14.125 523.649 14.7159V23H521.638ZM543.011 9.90909V11.6136H536.227V9.90909H543.011ZM538.204 6.77273H540.215V19.25C540.215 19.8182 540.298 20.2443 540.462 20.5284C540.633 20.8068 540.849 20.9943 541.11 21.0909C541.377 21.1818 541.658 21.2273 541.954 21.2273C542.175 21.2273 542.357 21.2159 542.499 21.1932C542.641 21.1648 542.755 21.142 542.84 21.125L543.249 22.9318C543.113 22.983 542.923 23.0341 542.678 23.0852C542.434 23.142 542.124 23.1705 541.749 23.1705C541.181 23.1705 540.624 23.0483 540.079 22.804C539.539 22.5597 539.09 22.1875 538.732 21.6875C538.38 21.1875 538.204 20.5568 538.204 19.7955V6.77273ZM548.329 15.125V23H546.317V5.54545H548.329V11.9545H548.499C548.806 11.2784 549.266 10.7415 549.88 10.3438C550.499 9.94034 551.323 9.73864 552.352 9.73864C553.244 9.73864 554.025 9.91761 554.695 10.2756C555.366 10.6278 555.886 11.1705 556.255 11.9034C556.63 12.6307 556.817 13.5568 556.817 14.6818V23H554.806V14.8182C554.806 13.7784 554.536 12.9744 553.996 12.4062C553.462 11.8324 552.721 11.5455 551.772 11.5455C551.113 11.5455 550.522 11.6847 549.999 11.9631C549.482 12.2415 549.073 12.6477 548.772 13.1818C548.477 13.7159 548.329 14.3636 548.329 15.125ZM565.986 23.2727C564.724 23.2727 563.636 22.9943 562.722 22.4375C561.812 21.875 561.111 21.0909 560.616 20.0852C560.128 19.0739 559.884 17.8977 559.884 16.5568C559.884 15.2159 560.128 14.0341 560.616 13.0114C561.111 11.983 561.798 11.1818 562.679 10.608C563.565 10.0284 564.599 9.73864 565.781 9.73864C566.463 9.73864 567.136 9.85227 567.801 10.0795C568.466 10.3068 569.071 10.6761 569.616 11.1875C570.162 11.6932 570.597 12.3636 570.92 13.1989C571.244 14.0341 571.406 15.0625 571.406 16.2841V17.1364H561.315V15.3977H569.361C569.361 14.6591 569.213 14 568.918 13.4205C568.628 12.8409 568.213 12.3835 567.673 12.0483C567.139 11.7131 566.509 11.5455 565.781 11.5455C564.98 11.5455 564.287 11.7443 563.702 12.142C563.122 12.5341 562.676 13.0455 562.364 13.6761C562.051 14.3068 561.895 14.983 561.895 15.7045V16.8636C561.895 17.8523 562.065 18.6903 562.406 19.3778C562.753 20.0597 563.233 20.5795 563.847 20.9375C564.46 21.2898 565.173 21.4659 565.986 21.4659C566.514 21.4659 566.991 21.392 567.418 21.2443C567.849 21.0909 568.222 20.8636 568.534 20.5625C568.847 20.2557 569.088 19.875 569.259 19.4205L571.202 19.9659C570.997 20.625 570.653 21.2045 570.17 21.7045C569.688 22.1989 569.091 22.5852 568.381 22.8636C567.67 23.1364 566.872 23.2727 565.986 23.2727ZM16.6705 53.9091V55.6136H9.61364V53.9091H16.6705ZM11.7273 67V52.1023C11.7273 51.3523 11.9034 50.7273 12.2557 50.2273C12.608 49.7273 13.0653 49.3523 13.6278 49.1023C14.1903 48.8523 14.7841 48.7273 15.4091 48.7273C15.9034 48.7273 16.3068 48.767 16.6193 48.8466C16.9318 48.9261 17.1648 49 17.3182 49.0682L16.7386 50.8068C16.6364 50.7727 16.4943 50.7301 16.3125 50.679C16.1364 50.6278 15.9034 50.6023 15.6136 50.6023C14.9489 50.6023 14.4688 50.7699 14.1733 51.1051C13.8835 51.4403 13.7386 51.9318 13.7386 52.5795V67H11.7273ZM27.7393 61.6477V53.9091H29.7507V67H27.7393V64.7841H27.603C27.2962 65.4489 26.8189 66.0142 26.1712 66.4801C25.5234 66.9403 24.7053 67.1705 23.7166 67.1705C22.8984 67.1705 22.1712 66.9915 21.5348 66.6335C20.8984 66.2699 20.3984 65.7244 20.0348 64.9972C19.6712 64.2642 19.4893 63.3409 19.4893 62.2273V53.9091H21.5007V62.0909C21.5007 63.0455 21.7678 63.8068 22.3018 64.375C22.8416 64.9432 23.5291 65.2273 24.3643 65.2273C24.8643 65.2273 25.3729 65.0994 25.8899 64.8438C26.4126 64.5881 26.8501 64.196 27.2024 63.6676C27.5604 63.1392 27.7393 62.4659 27.7393 61.6477ZM39.1278 53.9091V55.6136H32.3438V53.9091H39.1278ZM34.321 50.7727H36.3324V63.25C36.3324 63.8182 36.4148 64.2443 36.5795 64.5284C36.75 64.8068 36.9659 64.9943 37.2273 65.0909C37.4943 65.1818 37.7756 65.2273 38.071 65.2273C38.2926 65.2273 38.4744 65.2159 38.6165 65.1932C38.7585 65.1648 38.8722 65.142 38.9574 65.125L39.3665 66.9318C39.2301 66.983 39.0398 67.0341 38.7955 67.0852C38.5511 67.142 38.2415 67.1705 37.8665 67.1705C37.2983 67.1705 36.7415 67.0483 36.196 66.804C35.6563 66.5597 35.2074 66.1875 34.8494 65.6875C34.4972 65.1875 34.321 64.5568 34.321 63.7955V50.7727ZM50.4034 61.6477V53.9091H52.4148V67H50.4034V64.7841H50.267C49.9602 65.4489 49.483 66.0142 48.8352 66.4801C48.1875 66.9403 47.3693 67.1705 46.3807 67.1705C45.5625 67.1705 44.8352 66.9915 44.1989 66.6335C43.5625 66.2699 43.0625 65.7244 42.6989 64.9972C42.3352 64.2642 42.1534 63.3409 42.1534 62.2273V53.9091H44.1648V62.0909C44.1648 63.0455 44.4318 63.8068 44.9659 64.375C45.5057 64.9432 46.1932 65.2273 47.0284 65.2273C47.5284 65.2273 48.0369 65.0994 48.554 64.8438C49.0767 64.5881 49.5142 64.196 49.8665 63.6676C50.2244 63.1392 50.4034 62.4659 50.4034 61.6477ZM56.0987 67V53.9091H58.0419V55.8864H58.1783C58.4169 55.2386 58.8487 54.7131 59.4737 54.3097C60.0987 53.9062 60.8033 53.7045 61.5874 53.7045C61.7351 53.7045 61.9197 53.7074 62.1413 53.7131C62.3629 53.7187 62.5305 53.7273 62.6442 53.7386V55.7841C62.576 55.767 62.4197 55.7415 62.1754 55.7074C61.9368 55.6676 61.6839 55.6477 61.4169 55.6477C60.7805 55.6477 60.2124 55.7812 59.7124 56.0483C59.218 56.3097 58.826 56.6733 58.5362 57.1392C58.2521 57.5994 58.1101 58.125 58.1101 58.7159V67H56.0987ZM70.1186 67.2727C68.8572 67.2727 67.7692 66.9943 66.8544 66.4375C65.9453 65.875 65.2436 65.0909 64.7493 64.0852C64.2607 63.0739 64.0163 61.8977 64.0163 60.5568C64.0163 59.2159 64.2607 58.0341 64.7493 57.0114C65.2436 55.983 65.9311 55.1818 66.8118 54.608C67.6982 54.0284 68.7322 53.7386 69.9141 53.7386C70.5959 53.7386 71.2692 53.8523 71.9339 54.0795C72.5987 54.3068 73.2038 54.6761 73.7493 55.1875C74.2947 55.6932 74.7294 56.3636 75.0533 57.1989C75.3771 58.0341 75.5391 59.0625 75.5391 60.2841V61.1364H65.4482V59.3977H73.4936C73.4936 58.6591 73.3459 58 73.0504 57.4205C72.7607 56.8409 72.3459 56.3835 71.8061 56.0483C71.272 55.7131 70.6413 55.5455 69.9141 55.5455C69.1129 55.5455 68.4197 55.7443 67.8345 56.142C67.255 56.5341 66.8089 57.0455 66.4964 57.6761C66.1839 58.3068 66.0277 58.983 66.0277 59.7045V60.8636C66.0277 61.8523 66.1982 62.6903 66.5391 63.3778C66.8857 64.0597 67.3658 64.5795 67.9794 64.9375C68.593 65.2898 69.3061 65.4659 70.1186 65.4659C70.647 65.4659 71.1243 65.392 71.5504 65.2443C71.9822 65.0909 72.3544 64.8636 72.6669 64.5625C72.9794 64.2557 73.2209 63.875 73.3913 63.4205L75.3345 63.9659C75.13 64.625 74.7862 65.2045 74.3033 65.7045C73.8203 66.1989 73.2237 66.5852 72.5135 66.8636C71.8033 67.1364 71.005 67.2727 70.1186 67.2727ZM90.6669 67.2727C89.4851 67.2727 88.4482 66.9915 87.5561 66.429C86.6697 65.8665 85.9766 65.0795 85.4766 64.0682C84.9822 63.0568 84.7351 61.875 84.7351 60.5227C84.7351 59.1591 84.9822 57.9687 85.4766 56.9517C85.9766 55.9347 86.6697 55.1449 87.5561 54.5824C88.4482 54.0199 89.4851 53.7386 90.6669 53.7386C91.8487 53.7386 92.8828 54.0199 93.7692 54.5824C94.6612 55.1449 95.3544 55.9347 95.8487 56.9517C96.3487 57.9687 96.5987 59.1591 96.5987 60.5227C96.5987 61.875 96.3487 63.0568 95.8487 64.0682C95.3544 65.0795 94.6612 65.8665 93.7692 66.429C92.8828 66.9915 91.8487 67.2727 90.6669 67.2727ZM90.6669 65.4659C91.5646 65.4659 92.3033 65.2358 92.8828 64.7756C93.4624 64.3153 93.8913 63.7102 94.1697 62.9602C94.4482 62.2102 94.5874 61.3977 94.5874 60.5227C94.5874 59.6477 94.4482 58.8324 94.1697 58.0767C93.8913 57.321 93.4624 56.7102 92.8828 56.2443C92.3033 55.7784 91.5646 55.5455 90.6669 55.5455C89.7692 55.5455 89.0305 55.7784 88.451 56.2443C87.8714 56.7102 87.4425 57.321 87.1641 58.0767C86.8857 58.8324 86.7464 59.6477 86.7464 60.5227C86.7464 61.3977 86.8857 62.2102 87.1641 62.9602C87.4425 63.7102 87.8714 64.3153 88.451 64.7756C89.0305 65.2358 89.7692 65.4659 90.6669 65.4659ZM105.499 53.9091V55.6136H98.4418V53.9091H105.499ZM100.555 67V52.1023C100.555 51.3523 100.732 50.7273 101.084 50.2273C101.436 49.7273 101.893 49.3523 102.456 49.1023C103.018 48.8523 103.612 48.7273 104.237 48.7273C104.732 48.7273 105.135 48.767 105.447 48.8466C105.76 48.9261 105.993 49 106.146 49.0682L105.567 50.8068C105.464 50.7727 105.322 50.7301 105.141 50.679C104.964 50.6278 104.732 50.6023 104.442 50.6023C103.777 50.6023 103.297 50.7699 103.001 51.1051C102.712 51.4403 102.567 51.9318 102.567 52.5795V67H100.555ZM120.386 67.2727C119.158 67.2727 118.102 66.983 117.215 66.4034C116.329 65.8239 115.647 65.0256 115.17 64.0085C114.692 62.9915 114.454 61.8295 114.454 60.5227C114.454 59.1932 114.698 58.0199 115.187 57.0028C115.681 55.9801 116.369 55.1818 117.249 54.608C118.136 54.0284 119.17 53.7386 120.352 53.7386C121.272 53.7386 122.102 53.9091 122.84 54.25C123.579 54.5909 124.184 55.0682 124.656 55.6818C125.127 56.2955 125.42 57.0114 125.533 57.8295H123.522C123.369 57.233 123.028 56.7045 122.499 56.2443C121.977 55.7784 121.272 55.5455 120.386 55.5455C119.602 55.5455 118.914 55.75 118.323 56.1591C117.738 56.5625 117.281 57.1335 116.951 57.8722C116.627 58.6051 116.465 59.4659 116.465 60.4545C116.465 61.4659 116.624 62.3466 116.942 63.0966C117.266 63.8466 117.721 64.429 118.306 64.8438C118.897 65.2585 119.59 65.4659 120.386 65.4659C120.908 65.4659 121.383 65.375 121.809 65.1932C122.235 65.0114 122.596 64.75 122.891 64.4091C123.187 64.0682 123.397 63.6591 123.522 63.1818H125.533C125.42 63.9545 125.138 64.6506 124.69 65.2699C124.246 65.8835 123.658 66.3722 122.925 66.7358C122.198 67.0938 121.352 67.2727 120.386 67.2727ZM133.792 67.2727C132.61 67.2727 131.573 66.9915 130.681 66.429C129.795 65.8665 129.102 65.0795 128.602 64.0682C128.107 63.0568 127.86 61.875 127.86 60.5227C127.86 59.1591 128.107 57.9687 128.602 56.9517C129.102 55.9347 129.795 55.1449 130.681 54.5824C131.573 54.0199 132.61 53.7386 133.792 53.7386C134.974 53.7386 136.008 54.0199 136.894 54.5824C137.786 55.1449 138.479 55.9347 138.974 56.9517C139.474 57.9687 139.724 59.1591 139.724 60.5227C139.724 61.875 139.474 63.0568 138.974 64.0682C138.479 65.0795 137.786 65.8665 136.894 66.429C136.008 66.9915 134.974 67.2727 133.792 67.2727ZM133.792 65.4659C134.69 65.4659 135.428 65.2358 136.008 64.7756C136.587 64.3153 137.016 63.7102 137.295 62.9602C137.573 62.2102 137.712 61.3977 137.712 60.5227C137.712 59.6477 137.573 58.8324 137.295 58.0767C137.016 57.321 136.587 56.7102 136.008 56.2443C135.428 55.7784 134.69 55.5455 133.792 55.5455C132.894 55.5455 132.156 55.7784 131.576 56.2443C130.996 56.7102 130.567 57.321 130.289 58.0767C130.011 58.8324 129.871 59.6477 129.871 60.5227C129.871 61.3977 130.011 62.2102 130.289 62.9602C130.567 63.7102 130.996 64.3153 131.576 64.7756C132.156 65.2358 132.894 65.4659 133.792 65.4659ZM142.794 67V53.9091H144.737V55.9545H144.908C145.18 55.2557 145.621 54.7131 146.229 54.3267C146.837 53.9347 147.567 53.7386 148.419 53.7386C149.283 53.7386 150.001 53.9347 150.575 54.3267C151.155 54.7131 151.607 55.2557 151.93 55.9545H152.067C152.402 55.2784 152.905 54.7415 153.575 54.3438C154.246 53.9403 155.05 53.7386 155.987 53.7386C157.158 53.7386 158.115 54.1051 158.859 54.8381C159.604 55.5653 159.976 56.6989 159.976 58.2386V67H157.964V58.2386C157.964 57.2727 157.7 56.5824 157.172 56.1676C156.643 55.7528 156.021 55.5455 155.305 55.5455C154.385 55.5455 153.672 55.8239 153.166 56.3807C152.661 56.9318 152.408 57.6307 152.408 58.4773V67H150.362V58.0341C150.362 57.2898 150.121 56.6903 149.638 56.2358C149.155 55.7756 148.533 55.5455 147.771 55.5455C147.249 55.5455 146.76 55.6847 146.305 55.9631C145.857 56.2415 145.493 56.6278 145.214 57.1222C144.942 57.6108 144.805 58.1761 144.805 58.8182V67H142.794ZM163.653 67V53.9091H165.597V55.9545H165.767C166.04 55.2557 166.48 54.7131 167.088 54.3267C167.696 53.9347 168.426 53.7386 169.278 53.7386C170.142 53.7386 170.861 53.9347 171.435 54.3267C172.014 54.7131 172.466 55.2557 172.79 55.9545H172.926C173.261 55.2784 173.764 54.7415 174.435 54.3438C175.105 53.9403 175.909 53.7386 176.847 53.7386C178.017 53.7386 178.974 54.1051 179.719 54.8381C180.463 55.5653 180.835 56.6989 180.835 58.2386V67H178.824V58.2386C178.824 57.2727 178.56 56.5824 178.031 56.1676C177.503 55.7528 176.881 55.5455 176.165 55.5455C175.244 55.5455 174.531 55.8239 174.026 56.3807C173.52 56.9318 173.267 57.6307 173.267 58.4773V67H171.222V58.0341C171.222 57.2898 170.98 56.6903 170.497 56.2358C170.014 55.7756 169.392 55.5455 168.631 55.5455C168.108 55.5455 167.619 55.6847 167.165 55.9631C166.716 56.2415 166.352 56.6278 166.074 57.1222C165.801 57.6108 165.665 58.1761 165.665 58.8182V67H163.653ZM192.763 61.6477V53.9091H194.774V67H192.763V64.7841H192.626C192.32 65.4489 191.842 66.0142 191.195 66.4801C190.547 66.9403 189.729 67.1705 188.74 67.1705C187.922 67.1705 187.195 66.9915 186.558 66.6335C185.922 66.2699 185.422 65.7244 185.058 64.9972C184.695 64.2642 184.513 63.3409 184.513 62.2273V53.9091H186.524V62.0909C186.524 63.0455 186.791 63.8068 187.325 64.375C187.865 64.9432 188.553 65.2273 189.388 65.2273C189.888 65.2273 190.396 65.0994 190.913 64.8438C191.436 64.5881 191.874 64.196 192.226 63.6676C192.584 63.1392 192.763 62.4659 192.763 61.6477ZM200.469 59.125V67H198.458V53.9091H200.401V55.9545H200.572C200.879 55.2898 201.344 54.7557 201.969 54.3523C202.594 53.9432 203.401 53.7386 204.39 53.7386C205.276 53.7386 206.052 53.9205 206.717 54.2841C207.381 54.642 207.898 55.1875 208.268 55.9205C208.637 56.6477 208.822 57.5682 208.822 58.6818V67H206.81V58.8182C206.81 57.7898 206.543 56.9886 206.009 56.4148C205.475 55.8352 204.742 55.5455 203.81 55.5455C203.168 55.5455 202.594 55.6847 202.089 55.9631C201.589 56.2415 201.194 56.6477 200.904 57.1818C200.614 57.7159 200.469 58.3636 200.469 59.125ZM212.497 67V53.9091H214.509V67H212.497ZM213.52 51.7273C213.128 51.7273 212.79 51.5938 212.506 51.3267C212.227 51.0597 212.088 50.7386 212.088 50.3636C212.088 49.9886 212.227 49.6676 212.506 49.4006C212.79 49.1335 213.128 49 213.52 49C213.912 49 214.247 49.1335 214.526 49.4006C214.81 49.6676 214.952 49.9886 214.952 50.3636C214.952 50.7386 214.81 51.0597 214.526 51.3267C214.247 51.5938 213.912 51.7273 213.52 51.7273ZM223.886 53.9091V55.6136H217.102V53.9091H223.886ZM219.079 50.7727H221.09V63.25C221.09 63.8182 221.173 64.2443 221.337 64.5284C221.508 64.8068 221.724 64.9943 221.985 65.0909C222.252 65.1818 222.533 65.2273 222.829 65.2273C223.05 65.2273 223.232 65.2159 223.374 65.1932C223.516 65.1648 223.63 65.142 223.715 65.125L224.124 66.9318C223.988 66.983 223.798 67.0341 223.553 67.0852C223.309 67.142 222.999 67.1705 222.624 67.1705C222.056 67.1705 221.499 67.0483 220.954 66.804C220.414 66.5597 219.965 66.1875 219.607 65.6875C219.255 65.1875 219.079 64.5568 219.079 63.7955V50.7727ZM226.911 67V53.9091H228.923V67H226.911ZM227.934 51.7273C227.542 51.7273 227.204 51.5938 226.92 51.3267C226.641 51.0597 226.502 50.7386 226.502 50.3636C226.502 49.9886 226.641 49.6676 226.92 49.4006C227.204 49.1335 227.542 49 227.934 49C228.326 49 228.661 49.1335 228.94 49.4006C229.224 49.6676 229.366 49.9886 229.366 50.3636C229.366 50.7386 229.224 51.0597 228.94 51.3267C228.661 51.5938 228.326 51.7273 227.934 51.7273ZM238.095 67.2727C236.834 67.2727 235.746 66.9943 234.831 66.4375C233.922 65.875 233.22 65.0909 232.726 64.0852C232.237 63.0739 231.993 61.8977 231.993 60.5568C231.993 59.2159 232.237 58.0341 232.726 57.0114C233.22 55.983 233.908 55.1818 234.788 54.608C235.675 54.0284 236.709 53.7386 237.891 53.7386C238.572 53.7386 239.246 53.8523 239.911 54.0795C240.575 54.3068 241.18 54.6761 241.726 55.1875C242.271 55.6932 242.706 56.3636 243.03 57.1989C243.354 58.0341 243.516 59.0625 243.516 60.2841V61.1364H233.425V59.3977H241.47C241.47 58.6591 241.322 58 241.027 57.4205C240.737 56.8409 240.322 56.3835 239.783 56.0483C239.249 55.7131 238.618 55.5455 237.891 55.5455C237.089 55.5455 236.396 55.7443 235.811 56.142C235.232 56.5341 234.786 57.0455 234.473 57.6761C234.161 58.3068 234.004 58.983 234.004 59.7045V60.8636C234.004 61.8523 234.175 62.6903 234.516 63.3778C234.862 64.0597 235.342 64.5795 235.956 64.9375C236.57 65.2898 237.283 65.4659 238.095 65.4659C238.624 65.4659 239.101 65.392 239.527 65.2443C239.959 65.0909 240.331 64.8636 240.643 64.5625C240.956 64.2557 241.197 63.875 241.368 63.4205L243.311 63.9659C243.107 64.625 242.763 65.2045 242.28 65.7045C241.797 66.1989 241.2 66.5852 240.49 66.8636C239.78 67.1364 238.982 67.2727 238.095 67.2727ZM255.848 56.8409L254.041 57.3523C253.928 57.0511 253.76 56.7585 253.538 56.4744C253.322 56.1847 253.027 55.946 252.652 55.7585C252.277 55.571 251.797 55.4773 251.212 55.4773C250.411 55.4773 249.743 55.6619 249.209 56.0312C248.68 56.3949 248.416 56.858 248.416 57.4205C248.416 57.9205 248.598 58.3153 248.962 58.6051C249.325 58.8949 249.893 59.1364 250.666 59.3295L252.609 59.8068C253.78 60.0909 254.652 60.5256 255.226 61.1108C255.8 61.6903 256.087 62.4375 256.087 63.3523C256.087 64.1023 255.871 64.7727 255.439 65.3636C255.013 65.9545 254.416 66.4205 253.649 66.7614C252.882 67.1023 251.99 67.2727 250.973 67.2727C249.638 67.2727 248.533 66.983 247.658 66.4034C246.783 65.8239 246.229 64.9773 245.996 63.8636L247.905 63.3864C248.087 64.0909 248.43 64.6193 248.936 64.9716C249.447 65.3239 250.115 65.5 250.939 65.5C251.876 65.5 252.621 65.3011 253.172 64.9034C253.729 64.5 254.007 64.017 254.007 63.4545C254.007 63 253.848 62.6193 253.53 62.3125C253.212 62 252.723 61.767 252.064 61.6136L249.882 61.1023C248.683 60.8182 247.803 60.3778 247.24 59.7812C246.683 59.179 246.405 58.4261 246.405 57.5227C246.405 56.7841 246.612 56.1307 247.027 55.5625C247.447 54.9943 248.018 54.5483 248.74 54.2244C249.467 53.9006 250.291 53.7386 251.212 53.7386C252.507 53.7386 253.524 54.0227 254.263 54.5909C255.007 55.1591 255.536 55.9091 255.848 56.8409ZM269.717 67.3068C268.887 67.3068 268.134 67.1506 267.458 66.8381C266.782 66.5199 266.245 66.0625 265.847 65.4659C265.45 64.8636 265.251 64.1364 265.251 63.2841C265.251 62.5341 265.398 61.9261 265.694 61.4602C265.989 60.9886 266.384 60.6193 266.879 60.3523C267.373 60.0852 267.918 59.8864 268.515 59.7557C269.117 59.6193 269.722 59.5114 270.33 59.4318C271.126 59.3295 271.771 59.2528 272.265 59.2017C272.765 59.1449 273.129 59.0511 273.356 58.9205C273.589 58.7898 273.705 58.5625 273.705 58.2386V58.1705C273.705 57.3295 273.475 56.6761 273.015 56.2102C272.56 55.7443 271.87 55.5114 270.944 55.5114C269.984 55.5114 269.231 55.7216 268.685 56.142C268.14 56.5625 267.756 57.0114 267.535 57.4886L265.626 56.8068C265.967 56.0114 266.421 55.392 266.989 54.9489C267.563 54.5 268.188 54.1875 268.864 54.0114C269.546 53.8295 270.217 53.7386 270.876 53.7386C271.296 53.7386 271.779 53.7898 272.325 53.892C272.876 53.9886 273.407 54.1903 273.918 54.4972C274.435 54.804 274.864 55.267 275.205 55.8864C275.546 56.5057 275.717 57.3352 275.717 58.375V67H273.705V65.2273H273.603C273.467 65.5114 273.239 65.8153 272.921 66.1392C272.603 66.4631 272.18 66.7386 271.651 66.9659C271.123 67.1932 270.478 67.3068 269.717 67.3068ZM270.023 65.5C270.819 65.5 271.489 65.3438 272.035 65.0312C272.586 64.7188 273.001 64.3153 273.279 63.821C273.563 63.3267 273.705 62.8068 273.705 62.2614V60.4205C273.62 60.5227 273.433 60.6165 273.143 60.7017C272.859 60.7812 272.529 60.8523 272.154 60.9148C271.785 60.9716 271.424 61.0227 271.072 61.0682C270.725 61.108 270.444 61.142 270.228 61.1705C269.705 61.2386 269.217 61.3494 268.762 61.5028C268.313 61.6506 267.95 61.875 267.671 62.1761C267.398 62.4716 267.262 62.875 267.262 63.3864C267.262 64.0852 267.521 64.6136 268.038 64.9716C268.56 65.3239 269.222 65.5 270.023 65.5ZM281.399 59.125V67H279.388V53.9091H281.331V55.9545H281.501C281.808 55.2898 282.274 54.7557 282.899 54.3523C283.524 53.9432 284.331 53.7386 285.32 53.7386C286.206 53.7386 286.982 53.9205 287.646 54.2841C288.311 54.642 288.828 55.1875 289.197 55.9205C289.567 56.6477 289.751 57.5682 289.751 58.6818V67H287.74V58.8182C287.74 57.7898 287.473 56.9886 286.939 56.4148C286.405 55.8352 285.672 55.5455 284.74 55.5455C284.098 55.5455 283.524 55.6847 283.018 55.9631C282.518 56.2415 282.124 56.6477 281.834 57.1818C281.544 57.7159 281.399 58.3636 281.399 59.125ZM298.37 67.2727C297.279 67.2727 296.316 66.9972 295.481 66.446C294.646 65.8892 293.992 65.1051 293.521 64.0938C293.049 63.0767 292.813 61.875 292.813 60.4886C292.813 59.1136 293.049 57.9205 293.521 56.9091C293.992 55.8977 294.648 55.1165 295.489 54.5653C296.33 54.0142 297.302 53.7386 298.404 53.7386C299.256 53.7386 299.93 53.8807 300.424 54.1648C300.924 54.4432 301.305 54.7614 301.566 55.1193C301.833 55.4716 302.04 55.7614 302.188 55.9886H302.359V49.5455H304.37V67H302.427V64.9886H302.188C302.04 65.2273 301.83 65.5284 301.558 65.892C301.285 66.25 300.896 66.571 300.39 66.8551C299.884 67.1335 299.211 67.2727 298.37 67.2727ZM298.643 65.4659C299.45 65.4659 300.131 65.2557 300.688 64.8352C301.245 64.4091 301.668 63.821 301.958 63.071C302.248 62.3153 302.393 61.4432 302.393 60.4545C302.393 59.4773 302.251 58.6222 301.967 57.8892C301.683 57.1506 301.262 56.5767 300.705 56.1676C300.148 55.7528 299.461 55.5455 298.643 55.5455C297.79 55.5455 297.08 55.7642 296.512 56.2017C295.95 56.6335 295.526 57.2216 295.242 57.9659C294.964 58.7045 294.825 59.5341 294.825 60.4545C294.825 61.3864 294.967 62.233 295.251 62.9943C295.54 63.75 295.967 64.3523 296.529 64.8011C297.097 65.2443 297.802 65.4659 298.643 65.4659ZM320.401 67.2727C319.219 67.2727 318.183 66.9915 317.29 66.429C316.404 65.8665 315.711 65.0795 315.211 64.0682C314.717 63.0568 314.469 61.875 314.469 60.5227C314.469 59.1591 314.717 57.9687 315.211 56.9517C315.711 55.9347 316.404 55.1449 317.29 54.5824C318.183 54.0199 319.219 53.7386 320.401 53.7386C321.583 53.7386 322.617 54.0199 323.504 54.5824C324.396 55.1449 325.089 55.9347 325.583 56.9517C326.083 57.9687 326.333 59.1591 326.333 60.5227C326.333 61.875 326.083 63.0568 325.583 64.0682C325.089 65.0795 324.396 65.8665 323.504 66.429C322.617 66.9915 321.583 67.2727 320.401 67.2727ZM320.401 65.4659C321.299 65.4659 322.038 65.2358 322.617 64.7756C323.197 64.3153 323.626 63.7102 323.904 62.9602C324.183 62.2102 324.322 61.3977 324.322 60.5227C324.322 59.6477 324.183 58.8324 323.904 58.0767C323.626 57.321 323.197 56.7102 322.617 56.2443C322.038 55.7784 321.299 55.5455 320.401 55.5455C319.504 55.5455 318.765 55.7784 318.185 56.2443C317.606 56.7102 317.177 57.321 316.898 58.0767C316.62 58.8324 316.481 59.6477 316.481 60.5227C316.481 61.3977 316.62 62.2102 316.898 62.9602C317.177 63.7102 317.606 64.3153 318.185 64.7756C318.765 65.2358 319.504 65.4659 320.401 65.4659ZM329.403 67V53.9091H331.347V55.8864H331.483C331.722 55.2386 332.153 54.7131 332.778 54.3097C333.403 53.9062 334.108 53.7045 334.892 53.7045C335.04 53.7045 335.224 53.7074 335.446 53.7131C335.668 53.7187 335.835 53.7273 335.949 53.7386V55.7841C335.881 55.767 335.724 55.7415 335.48 55.7074C335.241 55.6676 334.989 55.6477 334.722 55.6477C334.085 55.6477 333.517 55.7812 333.017 56.0483C332.523 56.3097 332.131 56.6733 331.841 57.1392C331.557 57.5994 331.415 58.125 331.415 58.7159V67H329.403ZM343.219 72.1818C342.247 72.1818 341.412 72.0568 340.713 71.8068C340.014 71.5625 339.432 71.2386 338.966 70.8352C338.506 70.4375 338.139 70.0114 337.866 69.5568L339.469 68.4318C339.651 68.6705 339.881 68.9432 340.159 69.25C340.438 69.5625 340.818 69.8324 341.301 70.0597C341.79 70.2926 342.429 70.4091 343.219 70.4091C344.276 70.4091 345.148 70.1534 345.835 69.642C346.523 69.1307 346.866 68.3295 346.866 67.2386V64.5795H346.696C346.548 64.8182 346.338 65.1136 346.065 65.4659C345.798 65.8125 345.412 66.1222 344.906 66.3949C344.406 66.6619 343.73 66.7955 342.878 66.7955C341.821 66.7955 340.872 66.5455 340.031 66.0455C339.196 65.5455 338.534 64.8182 338.045 63.8636C337.563 62.9091 337.321 61.75 337.321 60.3864C337.321 59.0455 337.557 57.8778 338.028 56.8835C338.5 55.8835 339.156 55.1108 339.997 54.5653C340.838 54.0142 341.81 53.7386 342.912 53.7386C343.764 53.7386 344.44 53.8807 344.94 54.1648C345.446 54.4432 345.832 54.7614 346.099 55.1193C346.372 55.4716 346.582 55.7614 346.73 55.9886H346.935V53.9091H348.878V67.375C348.878 68.5 348.622 69.4148 348.111 70.1193C347.605 70.8295 346.923 71.3494 346.065 71.679C345.213 72.0142 344.264 72.1818 343.219 72.1818ZM343.151 64.9886C343.957 64.9886 344.639 64.804 345.196 64.4347C345.753 64.0653 346.176 63.5341 346.466 62.8409C346.756 62.1477 346.901 61.3182 346.901 60.3523C346.901 59.4091 346.759 58.5767 346.474 57.8551C346.19 57.1335 345.77 56.5682 345.213 56.1591C344.656 55.75 343.969 55.5455 343.151 55.5455C342.298 55.5455 341.588 55.7614 341.02 56.1932C340.457 56.625 340.034 57.2045 339.75 57.9318C339.472 58.6591 339.332 59.4659 339.332 60.3523C339.332 61.2614 339.474 62.0653 339.759 62.7642C340.048 63.4574 340.474 64.0028 341.037 64.4006C341.605 64.7926 342.31 64.9886 343.151 64.9886ZM356.412 67.3068C355.582 67.3068 354.83 67.1506 354.153 66.8381C353.477 66.5199 352.94 66.0625 352.543 65.4659C352.145 64.8636 351.946 64.1364 351.946 63.2841C351.946 62.5341 352.094 61.9261 352.389 61.4602C352.685 60.9886 353.08 60.6193 353.574 60.3523C354.068 60.0852 354.614 59.8864 355.21 59.7557C355.813 59.6193 356.418 59.5114 357.026 59.4318C357.821 59.3295 358.466 59.2528 358.96 59.2017C359.46 59.1449 359.824 59.0511 360.051 58.9205C360.284 58.7898 360.401 58.5625 360.401 58.2386V58.1705C360.401 57.3295 360.17 56.6761 359.71 56.2102C359.256 55.7443 358.565 55.5114 357.639 55.5114C356.679 55.5114 355.926 55.7216 355.381 56.142C354.835 56.5625 354.452 57.0114 354.23 57.4886L352.321 56.8068C352.662 56.0114 353.116 55.392 353.685 54.9489C354.259 54.5 354.884 54.1875 355.56 54.0114C356.241 53.8295 356.912 53.7386 357.571 53.7386C357.991 53.7386 358.474 53.7898 359.02 53.892C359.571 53.9886 360.102 54.1903 360.614 54.4972C361.131 54.804 361.56 55.267 361.901 55.8864C362.241 56.5057 362.412 57.3352 362.412 58.375V67H360.401V65.2273H360.298C360.162 65.5114 359.935 65.8153 359.616 66.1392C359.298 66.4631 358.875 66.7386 358.347 66.9659C357.818 67.1932 357.173 67.3068 356.412 67.3068ZM356.719 65.5C357.514 65.5 358.185 65.3438 358.73 65.0312C359.281 64.7188 359.696 64.3153 359.974 63.821C360.259 63.3267 360.401 62.8068 360.401 62.2614V60.4205C360.315 60.5227 360.128 60.6165 359.838 60.7017C359.554 60.7812 359.224 60.8523 358.849 60.9148C358.48 60.9716 358.119 61.0227 357.767 61.0682C357.42 61.108 357.139 61.142 356.923 61.1705C356.401 61.2386 355.912 61.3494 355.457 61.5028C355.009 61.6506 354.645 61.875 354.366 62.1761C354.094 62.4716 353.957 62.875 353.957 63.3864C353.957 64.0852 354.216 64.6136 354.733 64.9716C355.256 65.3239 355.918 65.5 356.719 65.5ZM368.094 59.125V67H366.083V53.9091H368.026V55.9545H368.197C368.504 55.2898 368.969 54.7557 369.594 54.3523C370.219 53.9432 371.026 53.7386 372.015 53.7386C372.901 53.7386 373.677 53.9205 374.342 54.2841C375.006 54.642 375.523 55.1875 375.893 55.9205C376.262 56.6477 376.447 57.5682 376.447 58.6818V67H374.435V58.8182C374.435 57.7898 374.168 56.9886 373.634 56.4148C373.1 55.8352 372.367 55.5455 371.435 55.5455C370.793 55.5455 370.219 55.6847 369.714 55.9631C369.214 56.2415 368.819 56.6477 368.529 57.1818C368.239 57.7159 368.094 58.3636 368.094 59.125ZM380.122 67V53.9091H382.134V67H380.122ZM381.145 51.7273C380.753 51.7273 380.415 51.5938 380.131 51.3267C379.852 51.0597 379.713 50.7386 379.713 50.3636C379.713 49.9886 379.852 49.6676 380.131 49.4006C380.415 49.1335 380.753 49 381.145 49C381.537 49 381.872 49.1335 382.151 49.4006C382.435 49.6676 382.577 49.9886 382.577 50.3636C382.577 50.7386 382.435 51.0597 382.151 51.3267C381.872 51.5938 381.537 51.7273 381.145 51.7273ZM385.442 67V65.4659L392.874 55.9205V55.7841H385.681V53.9091H395.465V55.5114L388.238 64.9886V65.125H395.704V67H385.442ZM402.654 67.3068C401.825 67.3068 401.072 67.1506 400.396 66.8381C399.719 66.5199 399.183 66.0625 398.785 65.4659C398.387 64.8636 398.188 64.1364 398.188 63.2841C398.188 62.5341 398.336 61.9261 398.631 61.4602C398.927 60.9886 399.322 60.6193 399.816 60.3523C400.31 60.0852 400.856 59.8864 401.452 59.7557C402.055 59.6193 402.66 59.5114 403.268 59.4318C404.063 59.3295 404.708 59.2528 405.202 59.2017C405.702 59.1449 406.066 59.0511 406.293 58.9205C406.526 58.7898 406.643 58.5625 406.643 58.2386V58.1705C406.643 57.3295 406.413 56.6761 405.952 56.2102C405.498 55.7443 404.808 55.5114 403.881 55.5114C402.921 55.5114 402.168 55.7216 401.623 56.142C401.077 56.5625 400.694 57.0114 400.472 57.4886L398.563 56.8068C398.904 56.0114 399.359 55.392 399.927 54.9489C400.501 54.5 401.126 54.1875 401.802 54.0114C402.484 53.8295 403.154 53.7386 403.813 53.7386C404.234 53.7386 404.717 53.7898 405.262 53.892C405.813 53.9886 406.344 54.1903 406.856 54.4972C407.373 54.804 407.802 55.267 408.143 55.8864C408.484 56.5057 408.654 57.3352 408.654 58.375V67H406.643V65.2273H406.54C406.404 65.5114 406.177 65.8153 405.859 66.1392C405.54 66.4631 405.117 66.7386 404.589 66.9659C404.06 67.1932 403.415 67.3068 402.654 67.3068ZM402.961 65.5C403.756 65.5 404.427 65.3438 404.972 65.0312C405.523 64.7188 405.938 64.3153 406.217 63.821C406.501 63.3267 406.643 62.8068 406.643 62.2614V60.4205C406.558 60.5227 406.37 60.6165 406.08 60.7017C405.796 60.7812 405.467 60.8523 405.092 60.9148C404.722 60.9716 404.362 61.0227 404.009 61.0682C403.663 61.108 403.381 61.142 403.165 61.1705C402.643 61.2386 402.154 61.3494 401.7 61.5028C401.251 61.6506 400.887 61.875 400.609 62.1761C400.336 62.4716 400.2 62.875 400.2 63.3864C400.2 64.0852 400.458 64.6136 400.975 64.9716C401.498 65.3239 402.16 65.5 402.961 65.5ZM418.018 53.9091V55.6136H411.234V53.9091H418.018ZM413.212 50.7727H415.223V63.25C415.223 63.8182 415.305 64.2443 415.47 64.5284C415.641 64.8068 415.857 64.9943 416.118 65.0909C416.385 65.1818 416.666 65.2273 416.962 65.2273C417.183 65.2273 417.365 65.2159 417.507 65.1932C417.649 65.1648 417.763 65.142 417.848 65.125L418.257 66.9318C418.121 66.983 417.93 67.0341 417.686 67.0852C417.442 67.142 417.132 67.1705 416.757 67.1705C416.189 67.1705 415.632 67.0483 415.087 66.804C414.547 66.5597 414.098 66.1875 413.74 65.6875C413.388 65.1875 413.212 64.5568 413.212 63.7955V50.7727ZM421.044 67V53.9091H423.055V67H421.044ZM422.067 51.7273C421.675 51.7273 421.337 51.5938 421.053 51.3267C420.774 51.0597 420.635 50.7386 420.635 50.3636C420.635 49.9886 420.774 49.6676 421.053 49.4006C421.337 49.1335 421.675 49 422.067 49C422.459 49 422.794 49.1335 423.072 49.4006C423.357 49.6676 423.499 49.9886 423.499 50.3636C423.499 50.7386 423.357 51.0597 423.072 51.3267C422.794 51.5938 422.459 51.7273 422.067 51.7273ZM432.058 67.2727C430.876 67.2727 429.839 66.9915 428.947 66.429C428.06 65.8665 427.367 65.0795 426.867 64.0682C426.373 63.0568 426.126 61.875 426.126 60.5227C426.126 59.1591 426.373 57.9687 426.867 56.9517C427.367 55.9347 428.06 55.1449 428.947 54.5824C429.839 54.0199 430.876 53.7386 432.058 53.7386C433.239 53.7386 434.273 54.0199 435.16 54.5824C436.052 55.1449 436.745 55.9347 437.239 56.9517C437.739 57.9687 437.989 59.1591 437.989 60.5227C437.989 61.875 437.739 63.0568 437.239 64.0682C436.745 65.0795 436.052 65.8665 435.16 66.429C434.273 66.9915 433.239 67.2727 432.058 67.2727ZM432.058 65.4659C432.955 65.4659 433.694 65.2358 434.273 64.7756C434.853 64.3153 435.282 63.7102 435.56 62.9602C435.839 62.2102 435.978 61.3977 435.978 60.5227C435.978 59.6477 435.839 58.8324 435.56 58.0767C435.282 57.321 434.853 56.7102 434.273 56.2443C433.694 55.7784 432.955 55.5455 432.058 55.5455C431.16 55.5455 430.421 55.7784 429.842 56.2443C429.262 56.7102 428.833 57.321 428.555 58.0767C428.276 58.8324 428.137 59.6477 428.137 60.5227C428.137 61.3977 428.276 62.2102 428.555 62.9602C428.833 63.7102 429.262 64.3153 429.842 64.7756C430.421 65.2358 431.16 65.4659 432.058 65.4659ZM443.071 59.125V67H441.06V53.9091H443.003V55.9545H443.173C443.48 55.2898 443.946 54.7557 444.571 54.3523C445.196 53.9432 446.003 53.7386 446.991 53.7386C447.878 53.7386 448.653 53.9205 449.318 54.2841C449.983 54.642 450.5 55.1875 450.869 55.9205C451.239 56.6477 451.423 57.5682 451.423 58.6818V67H449.412V58.8182C449.412 57.7898 449.145 56.9886 448.611 56.4148C448.077 55.8352 447.344 55.5455 446.412 55.5455C445.77 55.5455 445.196 55.6847 444.69 55.9631C444.19 56.2415 443.795 56.6477 443.506 57.1818C443.216 57.7159 443.071 58.3636 443.071 59.125ZM464.371 56.8409L462.565 57.3523C462.451 57.0511 462.283 56.7585 462.062 56.4744C461.846 56.1847 461.55 55.946 461.175 55.7585C460.8 55.571 460.32 55.4773 459.735 55.4773C458.934 55.4773 458.266 55.6619 457.732 56.0312C457.204 56.3949 456.94 56.858 456.94 57.4205C456.94 57.9205 457.121 58.3153 457.485 58.6051C457.849 58.8949 458.417 59.1364 459.19 59.3295L461.133 59.8068C462.303 60.0909 463.175 60.5256 463.749 61.1108C464.323 61.6903 464.61 62.4375 464.61 63.3523C464.61 64.1023 464.394 64.7727 463.962 65.3636C463.536 65.9545 462.94 66.4205 462.173 66.7614C461.406 67.1023 460.513 67.2727 459.496 67.2727C458.161 67.2727 457.056 66.983 456.181 66.4034C455.306 65.8239 454.752 64.9773 454.519 63.8636L456.428 63.3864C456.61 64.0909 456.954 64.6193 457.46 64.9716C457.971 65.3239 458.638 65.5 459.462 65.5C460.4 65.5 461.144 65.3011 461.695 64.9034C462.252 64.5 462.531 64.017 462.531 63.4545C462.531 63 462.371 62.6193 462.053 62.3125C461.735 62 461.246 61.767 460.587 61.6136L458.406 61.1023C457.207 60.8182 456.326 60.3778 455.763 59.7812C455.207 59.179 454.928 58.4261 454.928 57.5227C454.928 56.7841 455.136 56.1307 455.55 55.5625C455.971 54.9943 456.542 54.5483 457.263 54.2244C457.991 53.9006 458.815 53.7386 459.735 53.7386C461.031 53.7386 462.048 54.0227 462.786 54.5909C463.531 55.1591 464.059 55.9091 464.371 56.8409ZM478.24 67.3068C477.411 67.3068 476.658 67.1506 475.982 66.8381C475.305 66.5199 474.768 66.0625 474.371 65.4659C473.973 64.8636 473.774 64.1364 473.774 63.2841C473.774 62.5341 473.922 61.9261 474.217 61.4602C474.513 60.9886 474.908 60.6193 475.402 60.3523C475.896 60.0852 476.442 59.8864 477.038 59.7557C477.641 59.6193 478.246 59.5114 478.854 59.4318C479.649 59.3295 480.294 59.2528 480.788 59.2017C481.288 59.1449 481.652 59.0511 481.879 58.9205C482.112 58.7898 482.229 58.5625 482.229 58.2386V58.1705C482.229 57.3295 481.999 56.6761 481.538 56.2102C481.084 55.7443 480.393 55.5114 479.467 55.5114C478.507 55.5114 477.754 55.7216 477.209 56.142C476.663 56.5625 476.28 57.0114 476.058 57.4886L474.149 56.8068C474.49 56.0114 474.945 55.392 475.513 54.9489C476.087 54.5 476.712 54.1875 477.388 54.0114C478.07 53.8295 478.74 53.7386 479.399 53.7386C479.82 53.7386 480.303 53.7898 480.848 53.892C481.399 53.9886 481.93 54.1903 482.442 54.4972C482.959 54.804 483.388 55.267 483.729 55.8864C484.07 56.5057 484.24 57.3352 484.24 58.375V67H482.229V65.2273H482.126C481.99 65.5114 481.763 65.8153 481.445 66.1392C481.126 66.4631 480.703 66.7386 480.175 66.9659C479.646 67.1932 479.001 67.3068 478.24 67.3068ZM478.547 65.5C479.342 65.5 480.013 65.3438 480.558 65.0312C481.109 64.7188 481.524 64.3153 481.803 63.821C482.087 63.3267 482.229 62.8068 482.229 62.2614V60.4205C482.143 60.5227 481.956 60.6165 481.666 60.7017C481.382 60.7812 481.053 60.8523 480.678 60.9148C480.308 60.9716 479.947 61.0227 479.595 61.0682C479.249 61.108 478.967 61.142 478.751 61.1705C478.229 61.2386 477.74 61.3494 477.286 61.5028C476.837 61.6506 476.473 61.875 476.195 62.1761C475.922 62.4716 475.786 62.875 475.786 63.3864C475.786 64.0852 476.044 64.6136 476.561 64.9716C477.084 65.3239 477.746 65.5 478.547 65.5ZM493.604 53.9091V55.6136H486.82V53.9091H493.604ZM488.798 50.7727H490.809V63.25C490.809 63.8182 490.891 64.2443 491.056 64.5284C491.227 64.8068 491.442 64.9943 491.704 65.0909C491.971 65.1818 492.252 65.2273 492.548 65.2273C492.769 65.2273 492.951 65.2159 493.093 65.1932C493.235 65.1648 493.349 65.142 493.434 65.125L493.843 66.9318C493.707 66.983 493.516 67.0341 493.272 67.0852C493.028 67.142 492.718 67.1705 492.343 67.1705C491.775 67.1705 491.218 67.0483 490.673 66.804C490.133 66.5597 489.684 66.1875 489.326 65.6875C488.974 65.1875 488.798 64.5568 488.798 63.7955V50.7727ZM509.073 53.9091V55.6136H502.289V53.9091H509.073ZM504.266 50.7727H506.278V63.25C506.278 63.8182 506.36 64.2443 506.525 64.5284C506.695 64.8068 506.911 64.9943 507.173 65.0909C507.44 65.1818 507.721 65.2273 508.016 65.2273C508.238 65.2273 508.42 65.2159 508.562 65.1932C508.704 65.1648 508.817 65.142 508.903 65.125L509.312 66.9318C509.175 66.983 508.985 67.0341 508.741 67.0852C508.496 67.142 508.187 67.1705 507.812 67.1705C507.244 67.1705 506.687 67.0483 506.141 66.804C505.602 66.5597 505.153 66.1875 504.795 65.6875C504.442 65.1875 504.266 64.5568 504.266 63.7955V50.7727ZM514.391 59.125V67H512.38V49.5455H514.391V55.9545H514.562C514.869 55.2784 515.329 54.7415 515.942 54.3438C516.562 53.9403 517.386 53.7386 518.414 53.7386C519.306 53.7386 520.087 53.9176 520.758 54.2756C521.428 54.6278 521.948 55.1705 522.317 55.9034C522.692 56.6307 522.88 57.5568 522.88 58.6818V67H520.869V58.8182C520.869 57.7784 520.599 56.9744 520.059 56.4062C519.525 55.8324 518.783 55.5455 517.835 55.5455C517.175 55.5455 516.585 55.6847 516.062 55.9631C515.545 56.2415 515.136 56.6477 514.835 57.1818C514.539 57.7159 514.391 58.3636 514.391 59.125ZM532.048 67.2727C530.787 67.2727 529.699 66.9943 528.784 66.4375C527.875 65.875 527.173 65.0909 526.679 64.0852C526.19 63.0739 525.946 61.8977 525.946 60.5568C525.946 59.2159 526.19 58.0341 526.679 57.0114C527.173 55.983 527.861 55.1818 528.741 54.608C529.628 54.0284 530.662 53.7386 531.844 53.7386C532.526 53.7386 533.199 53.8523 533.864 54.0795C534.528 54.3068 535.134 54.6761 535.679 55.1875C536.224 55.6932 536.659 56.3636 536.983 57.1989C537.307 58.0341 537.469 59.0625 537.469 60.2841V61.1364H527.378V59.3977H535.423C535.423 58.6591 535.276 58 534.98 57.4205C534.69 56.8409 534.276 56.3835 533.736 56.0483C533.202 55.7131 532.571 55.5455 531.844 55.5455C531.043 55.5455 530.349 55.7443 529.764 56.142C529.185 56.5341 528.739 57.0455 528.426 57.6761C528.114 58.3068 527.957 58.983 527.957 59.7045V60.8636C527.957 61.8523 528.128 62.6903 528.469 63.3778C528.815 64.0597 529.295 64.5795 529.909 64.9375C530.523 65.2898 531.236 65.4659 532.048 65.4659C532.577 65.4659 533.054 65.392 533.48 65.2443C533.912 65.0909 534.284 64.8636 534.597 64.5625C534.909 64.2557 535.151 63.875 535.321 63.4205L537.264 63.9659C537.06 64.625 536.716 65.2045 536.233 65.7045C535.75 66.1989 535.153 66.5852 534.443 66.8636C533.733 67.1364 532.935 67.2727 532.048 67.2727ZM10.8409 111V97.9091H12.8523V111H10.8409ZM11.8636 95.7273C11.4716 95.7273 11.1335 95.5938 10.8494 95.3267C10.571 95.0597 10.4318 94.7386 10.4318 94.3636C10.4318 93.9886 10.571 93.6676 10.8494 93.4006C11.1335 93.1335 11.4716 93 11.8636 93C12.2557 93 12.5909 93.1335 12.8693 93.4006C13.1534 93.6676 13.2955 93.9886 13.2955 94.3636C13.2955 94.7386 13.1534 95.0597 12.8693 95.3267C12.5909 95.5938 12.2557 95.7273 11.8636 95.7273ZM18.5476 103.125V111H16.5362V97.9091H18.4794V99.9545H18.6499C18.9567 99.2898 19.4226 98.7557 20.0476 98.3523C20.6726 97.9432 21.4794 97.7386 22.468 97.7386C23.3544 97.7386 24.13 97.9205 24.7947 98.2841C25.4595 98.642 25.9766 99.1875 26.3459 99.9205C26.7152 100.648 26.8999 101.568 26.8999 102.682V111H24.8885V102.818C24.8885 101.79 24.6214 100.989 24.0874 100.415C23.5533 99.8352 22.8203 99.5455 21.8885 99.5455C21.2464 99.5455 20.6726 99.6847 20.1669 99.9631C19.6669 100.241 19.272 100.648 18.9822 101.182C18.6925 101.716 18.5476 102.364 18.5476 103.125ZM36.2685 97.9091V99.6136H29.4844V97.9091H36.2685ZM31.4616 94.7727H33.473V107.25C33.473 107.818 33.5554 108.244 33.7202 108.528C33.8906 108.807 34.1065 108.994 34.3679 109.091C34.6349 109.182 34.9162 109.227 35.2116 109.227C35.4332 109.227 35.6151 109.216 35.7571 109.193C35.8991 109.165 36.0128 109.142 36.098 109.125L36.5071 110.932C36.3707 110.983 36.1804 111.034 35.9361 111.085C35.6918 111.142 35.3821 111.17 35.0071 111.17C34.4389 111.17 33.8821 111.048 33.3366 110.804C32.7969 110.56 32.348 110.188 31.9901 109.688C31.6378 109.188 31.4616 108.557 31.4616 107.795V94.7727ZM44.642 111.273C43.3807 111.273 42.2926 110.994 41.3778 110.438C40.4688 109.875 39.767 109.091 39.2727 108.085C38.7841 107.074 38.5398 105.898 38.5398 104.557C38.5398 103.216 38.7841 102.034 39.2727 101.011C39.767 99.983 40.4545 99.1818 41.3352 98.608C42.2216 98.0284 43.2557 97.7386 44.4375 97.7386C45.1193 97.7386 45.7926 97.8523 46.4574 98.0795C47.1222 98.3068 47.7273 98.6761 48.2727 99.1875C48.8182 99.6932 49.2528 100.364 49.5767 101.199C49.9006 102.034 50.0625 103.062 50.0625 104.284V105.136H39.9716V103.398H48.017C48.017 102.659 47.8693 102 47.5739 101.42C47.2841 100.841 46.8693 100.384 46.3295 100.048C45.7955 99.7131 45.1648 99.5455 44.4375 99.5455C43.6364 99.5455 42.9432 99.7443 42.358 100.142C41.7784 100.534 41.3324 101.045 41.0199 101.676C40.7074 102.307 40.5511 102.983 40.5511 103.705V104.864C40.5511 105.852 40.7216 106.69 41.0625 107.378C41.4091 108.06 41.8892 108.58 42.5028 108.938C43.1165 109.29 43.8295 109.466 44.642 109.466C45.1705 109.466 45.6477 109.392 46.0739 109.244C46.5057 109.091 46.8778 108.864 47.1903 108.562C47.5028 108.256 47.7443 107.875 47.9148 107.42L49.858 107.966C49.6534 108.625 49.3097 109.205 48.8267 109.705C48.3438 110.199 47.7472 110.585 47.0369 110.864C46.3267 111.136 45.5284 111.273 44.642 111.273ZM53.1222 111V97.9091H55.0653V99.8864H55.2017C55.4403 99.2386 55.8722 98.7131 56.4972 98.3097C57.1222 97.9062 57.8267 97.7045 58.6108 97.7045C58.7585 97.7045 58.9432 97.7074 59.1648 97.7131C59.3864 97.7187 59.554 97.7273 59.6676 97.7386V99.7841C59.5994 99.767 59.4432 99.7415 59.1989 99.7074C58.9602 99.6676 58.7074 99.6477 58.4403 99.6477C57.804 99.6477 57.2358 99.7812 56.7358 100.048C56.2415 100.31 55.8494 100.673 55.5597 101.139C55.2756 101.599 55.1335 102.125 55.1335 102.716V111H53.1222ZM71.3246 100.841L69.5178 101.352C69.4041 101.051 69.2365 100.759 69.0149 100.474C68.799 100.185 68.5036 99.946 68.1286 99.7585C67.7536 99.571 67.2734 99.4773 66.6882 99.4773C65.8871 99.4773 65.2195 99.6619 64.6854 100.031C64.157 100.395 63.8928 100.858 63.8928 101.42C63.8928 101.92 64.0746 102.315 64.4382 102.605C64.8018 102.895 65.37 103.136 66.1428 103.33L68.0859 103.807C69.2564 104.091 70.1286 104.526 70.7024 105.111C71.2763 105.69 71.5632 106.437 71.5632 107.352C71.5632 108.102 71.3473 108.773 70.9155 109.364C70.4893 109.955 69.8928 110.42 69.1257 110.761C68.3587 111.102 67.4666 111.273 66.4496 111.273C65.1143 111.273 64.0092 110.983 63.1342 110.403C62.2592 109.824 61.7053 108.977 61.4723 107.864L63.3814 107.386C63.5632 108.091 63.907 108.619 64.4126 108.972C64.924 109.324 65.5916 109.5 66.4155 109.5C67.353 109.5 68.0973 109.301 68.6484 108.903C69.2053 108.5 69.4837 108.017 69.4837 107.455C69.4837 107 69.3246 106.619 69.0064 106.312C68.6882 106 68.1996 105.767 67.5405 105.614L65.3587 105.102C64.1598 104.818 63.2791 104.378 62.7166 103.781C62.1598 103.179 61.8814 102.426 61.8814 101.523C61.8814 100.784 62.0888 100.131 62.5036 99.5625C62.924 98.9943 63.495 98.5483 64.2166 98.2244C64.9439 97.9006 65.7678 97.7386 66.6882 97.7386C67.9837 97.7386 69.0007 98.0227 69.7393 98.5909C70.4837 99.1591 71.0121 99.9091 71.3246 100.841ZM80.0795 111.273C78.8182 111.273 77.7301 110.994 76.8153 110.438C75.9062 109.875 75.2045 109.091 74.7102 108.085C74.2216 107.074 73.9773 105.898 73.9773 104.557C73.9773 103.216 74.2216 102.034 74.7102 101.011C75.2045 99.983 75.892 99.1818 76.7727 98.608C77.6591 98.0284 78.6932 97.7386 79.875 97.7386C80.5568 97.7386 81.2301 97.8523 81.8949 98.0795C82.5597 98.3068 83.1648 98.6761 83.7102 99.1875C84.2557 99.6932 84.6903 100.364 85.0142 101.199C85.3381 102.034 85.5 103.062 85.5 104.284V105.136H75.4091V103.398H83.4545C83.4545 102.659 83.3068 102 83.0114 101.42C82.7216 100.841 82.3068 100.384 81.767 100.048C81.233 99.7131 80.6023 99.5455 79.875 99.5455C79.0739 99.5455 78.3807 99.7443 77.7955 100.142C77.2159 100.534 76.7699 101.045 76.4574 101.676C76.1449 102.307 75.9886 102.983 75.9886 103.705V104.864C75.9886 105.852 76.1591 106.69 76.5 107.378C76.8466 108.06 77.3267 108.58 77.9403 108.938C78.554 109.29 79.267 109.466 80.0795 109.466C80.608 109.466 81.0852 109.392 81.5114 109.244C81.9432 109.091 82.3153 108.864 82.6278 108.562C82.9403 108.256 83.1818 107.875 83.3523 107.42L85.2955 107.966C85.0909 108.625 84.7472 109.205 84.2642 109.705C83.7813 110.199 83.1847 110.585 82.4744 110.864C81.7642 111.136 80.9659 111.273 80.0795 111.273ZM93.8778 111.273C92.6506 111.273 91.5938 110.983 90.7074 110.403C89.821 109.824 89.1392 109.026 88.6619 108.009C88.1847 106.991 87.946 105.83 87.946 104.523C87.946 103.193 88.1903 102.02 88.679 101.003C89.1733 99.9801 89.8608 99.1818 90.7415 98.608C91.6278 98.0284 92.6619 97.7386 93.8438 97.7386C94.7642 97.7386 95.5938 97.9091 96.3324 98.25C97.071 98.5909 97.6761 99.0682 98.1477 99.6818C98.6193 100.295 98.9119 101.011 99.0256 101.83H97.0142C96.8608 101.233 96.5199 100.705 95.9915 100.244C95.4688 99.7784 94.7642 99.5455 93.8778 99.5455C93.0938 99.5455 92.4063 99.75 91.8153 100.159C91.2301 100.562 90.7727 101.134 90.4432 101.872C90.1193 102.605 89.9574 103.466 89.9574 104.455C89.9574 105.466 90.1165 106.347 90.4347 107.097C90.7585 107.847 91.2131 108.429 91.7983 108.844C92.3892 109.259 93.0824 109.466 93.8778 109.466C94.4006 109.466 94.875 109.375 95.3011 109.193C95.7273 109.011 96.0881 108.75 96.3835 108.409C96.679 108.068 96.8892 107.659 97.0142 107.182H99.0256C98.9119 107.955 98.6307 108.651 98.1818 109.27C97.7386 109.884 97.1506 110.372 96.4176 110.736C95.6903 111.094 94.8438 111.273 93.8778 111.273ZM107.659 97.9091V99.6136H100.875V97.9091H107.659ZM102.852 94.7727H104.864V107.25C104.864 107.818 104.946 108.244 105.111 108.528C105.281 108.807 105.497 108.994 105.759 109.091C106.026 109.182 106.307 109.227 106.602 109.227C106.824 109.227 107.006 109.216 107.148 109.193C107.29 109.165 107.403 109.142 107.489 109.125L107.898 110.932C107.761 110.983 107.571 111.034 107.327 111.085C107.082 111.142 106.773 111.17 106.398 111.17C105.83 111.17 105.273 111.048 104.727 110.804C104.188 110.56 103.739 110.188 103.381 109.688C103.028 109.188 102.852 108.557 102.852 107.795V94.7727ZM110.685 111V97.9091H112.696V111H110.685ZM111.707 95.7273C111.315 95.7273 110.977 95.5938 110.693 95.3267C110.415 95.0597 110.276 94.7386 110.276 94.3636C110.276 93.9886 110.415 93.6676 110.693 93.4006C110.977 93.1335 111.315 93 111.707 93C112.099 93 112.435 93.1335 112.713 93.4006C112.997 93.6676 113.139 93.9886 113.139 94.3636C113.139 94.7386 112.997 95.0597 112.713 95.3267C112.435 95.5938 112.099 95.7273 111.707 95.7273ZM121.698 111.273C120.516 111.273 119.479 110.991 118.587 110.429C117.701 109.866 117.008 109.08 116.508 108.068C116.013 107.057 115.766 105.875 115.766 104.523C115.766 103.159 116.013 101.969 116.508 100.952C117.008 99.9347 117.701 99.1449 118.587 98.5824C119.479 98.0199 120.516 97.7386 121.698 97.7386C122.88 97.7386 123.914 98.0199 124.8 98.5824C125.692 99.1449 126.386 99.9347 126.88 100.952C127.38 101.969 127.63 103.159 127.63 104.523C127.63 105.875 127.38 107.057 126.88 108.068C126.386 109.08 125.692 109.866 124.8 110.429C123.914 110.991 122.88 111.273 121.698 111.273ZM121.698 109.466C122.596 109.466 123.335 109.236 123.914 108.776C124.494 108.315 124.923 107.71 125.201 106.96C125.479 106.21 125.619 105.398 125.619 104.523C125.619 103.648 125.479 102.832 125.201 102.077C124.923 101.321 124.494 100.71 123.914 100.244C123.335 99.7784 122.596 99.5455 121.698 99.5455C120.8 99.5455 120.062 99.7784 119.482 100.244C118.903 100.71 118.474 101.321 118.195 102.077C117.917 102.832 117.778 103.648 117.778 104.523C117.778 105.398 117.917 106.21 118.195 106.96C118.474 107.71 118.903 108.315 119.482 108.776C120.062 109.236 120.8 109.466 121.698 109.466ZM132.712 103.125V111H130.7V97.9091H132.643V99.9545H132.814C133.121 99.2898 133.587 98.7557 134.212 98.3523C134.837 97.9432 135.643 97.7386 136.632 97.7386C137.518 97.7386 138.294 97.9205 138.959 98.2841C139.624 98.642 140.141 99.1875 140.51 99.9205C140.879 100.648 141.064 101.568 141.064 102.682V111H139.053V102.818C139.053 101.79 138.786 100.989 138.251 100.415C137.717 99.8352 136.984 99.5455 136.053 99.5455C135.411 99.5455 134.837 99.6847 134.331 99.9631C133.831 100.241 133.436 100.648 133.146 101.182C132.857 101.716 132.712 102.364 132.712 103.125ZM156.808 111.273C155.626 111.273 154.589 110.991 153.697 110.429C152.81 109.866 152.117 109.08 151.617 108.068C151.123 107.057 150.876 105.875 150.876 104.523C150.876 103.159 151.123 101.969 151.617 100.952C152.117 99.9347 152.81 99.1449 153.697 98.5824C154.589 98.0199 155.626 97.7386 156.808 97.7386C157.989 97.7386 159.023 98.0199 159.91 98.5824C160.802 99.1449 161.495 99.9347 161.989 100.952C162.489 101.969 162.739 103.159 162.739 104.523C162.739 105.875 162.489 107.057 161.989 108.068C161.495 109.08 160.802 109.866 159.91 110.429C159.023 110.991 157.989 111.273 156.808 111.273ZM156.808 109.466C157.705 109.466 158.444 109.236 159.023 108.776C159.603 108.315 160.032 107.71 160.31 106.96C160.589 106.21 160.728 105.398 160.728 104.523C160.728 103.648 160.589 102.832 160.31 102.077C160.032 101.321 159.603 100.71 159.023 100.244C158.444 99.7784 157.705 99.5455 156.808 99.5455C155.91 99.5455 155.171 99.7784 154.592 100.244C154.012 100.71 153.583 101.321 153.305 102.077C153.026 102.832 152.887 103.648 152.887 104.523C152.887 105.398 153.026 106.21 153.305 106.96C153.583 107.71 154.012 108.315 154.592 108.776C155.171 109.236 155.91 109.466 156.808 109.466ZM171.639 97.9091V99.6136H164.582V97.9091H171.639ZM166.696 111V96.1023C166.696 95.3523 166.872 94.7273 167.224 94.2273C167.577 93.7273 168.034 93.3523 168.597 93.1023C169.159 92.8523 169.753 92.7273 170.378 92.7273C170.872 92.7273 171.276 92.767 171.588 92.8466C171.901 92.9261 172.134 93 172.287 93.0682L171.707 94.8068C171.605 94.7727 171.463 94.7301 171.281 94.679C171.105 94.6278 170.872 94.6023 170.582 94.6023C169.918 94.6023 169.438 94.7699 169.142 95.1051C168.852 95.4403 168.707 95.9318 168.707 96.5795V111H166.696ZM187.038 97.9091V99.6136H179.981V97.9091H187.038ZM182.094 111V96.1023C182.094 95.3523 182.271 94.7273 182.623 94.2273C182.975 93.7273 183.433 93.3523 183.995 93.1023C184.558 92.8523 185.151 92.7273 185.776 92.7273C186.271 92.7273 186.674 92.767 186.987 92.8466C187.299 92.9261 187.532 93 187.685 93.0682L187.106 94.8068C187.004 94.7727 186.862 94.7301 186.68 94.679C186.504 94.6278 186.271 94.6023 185.981 94.6023C185.316 94.6023 184.836 94.7699 184.54 95.1051C184.251 95.4403 184.106 95.9318 184.106 96.5795V111H182.094ZM189.857 111V97.9091H191.868V111H189.857ZM190.879 95.7273C190.487 95.7273 190.149 95.5938 189.865 95.3267C189.587 95.0597 189.447 94.7386 189.447 94.3636C189.447 93.9886 189.587 93.6676 189.865 93.4006C190.149 93.1335 190.487 93 190.879 93C191.271 93 191.607 93.1335 191.885 93.4006C192.169 93.6676 192.311 93.9886 192.311 94.3636C192.311 94.7386 192.169 95.0597 191.885 95.3267C191.607 95.5938 191.271 95.7273 190.879 95.7273ZM199.404 111.307C198.575 111.307 197.822 111.151 197.146 110.838C196.469 110.52 195.933 110.062 195.535 109.466C195.137 108.864 194.938 108.136 194.938 107.284C194.938 106.534 195.086 105.926 195.381 105.46C195.677 104.989 196.072 104.619 196.566 104.352C197.06 104.085 197.606 103.886 198.202 103.756C198.805 103.619 199.41 103.511 200.018 103.432C200.813 103.33 201.458 103.253 201.952 103.202C202.452 103.145 202.816 103.051 203.043 102.92C203.276 102.79 203.393 102.562 203.393 102.239V102.17C203.393 101.33 203.163 100.676 202.702 100.21C202.248 99.7443 201.558 99.5114 200.631 99.5114C199.671 99.5114 198.918 99.7216 198.373 100.142C197.827 100.562 197.444 101.011 197.222 101.489L195.313 100.807C195.654 100.011 196.109 99.392 196.677 98.9489C197.251 98.5 197.876 98.1875 198.552 98.0114C199.234 97.8295 199.904 97.7386 200.563 97.7386C200.984 97.7386 201.467 97.7898 202.012 97.892C202.563 97.9886 203.094 98.1903 203.606 98.4972C204.123 98.804 204.552 99.267 204.893 99.8864C205.234 100.506 205.404 101.335 205.404 102.375V111H203.393V109.227H203.29C203.154 109.511 202.927 109.815 202.609 110.139C202.29 110.463 201.867 110.739 201.339 110.966C200.81 111.193 200.165 111.307 199.404 111.307ZM199.711 109.5C200.506 109.5 201.177 109.344 201.722 109.031C202.273 108.719 202.688 108.315 202.967 107.821C203.251 107.327 203.393 106.807 203.393 106.261V104.42C203.308 104.523 203.12 104.616 202.83 104.702C202.546 104.781 202.217 104.852 201.842 104.915C201.472 104.972 201.112 105.023 200.759 105.068C200.413 105.108 200.131 105.142 199.915 105.17C199.393 105.239 198.904 105.349 198.45 105.503C198.001 105.651 197.637 105.875 197.359 106.176C197.086 106.472 196.95 106.875 196.95 107.386C196.95 108.085 197.208 108.614 197.725 108.972C198.248 109.324 198.91 109.5 199.711 109.5ZM214.768 97.9091V99.6136H207.984V97.9091H214.768ZM209.962 94.7727H211.973V107.25C211.973 107.818 212.055 108.244 212.22 108.528C212.391 108.807 212.607 108.994 212.868 109.091C213.135 109.182 213.416 109.227 213.712 109.227C213.933 109.227 214.115 109.216 214.257 109.193C214.399 109.165 214.513 109.142 214.598 109.125L215.007 110.932C214.871 110.983 214.68 111.034 214.436 111.085C214.192 111.142 213.882 111.17 213.507 111.17C212.939 111.17 212.382 111.048 211.837 110.804C211.297 110.56 210.848 110.188 210.49 109.688C210.138 109.188 209.962 108.557 209.962 107.795V94.7727ZM228.396 111.307C227.567 111.307 226.814 111.151 226.138 110.838C225.462 110.52 224.925 110.062 224.527 109.466C224.129 108.864 223.93 108.136 223.93 107.284C223.93 106.534 224.078 105.926 224.374 105.46C224.669 104.989 225.064 104.619 225.558 104.352C226.053 104.085 226.598 103.886 227.195 103.756C227.797 103.619 228.402 103.511 229.01 103.432C229.805 103.33 230.45 103.253 230.945 103.202C231.445 103.145 231.808 103.051 232.036 102.92C232.268 102.79 232.385 102.562 232.385 102.239V102.17C232.385 101.33 232.155 100.676 231.695 100.21C231.24 99.7443 230.55 99.5114 229.624 99.5114C228.663 99.5114 227.911 99.7216 227.365 100.142C226.82 100.562 226.436 101.011 226.214 101.489L224.305 100.807C224.646 100.011 225.101 99.392 225.669 98.9489C226.243 98.5 226.868 98.1875 227.544 98.0114C228.226 97.8295 228.896 97.7386 229.555 97.7386C229.976 97.7386 230.459 97.7898 231.004 97.892C231.555 97.9886 232.087 98.1903 232.598 98.4972C233.115 98.804 233.544 99.267 233.885 99.8864C234.226 100.506 234.396 101.335 234.396 102.375V111H232.385V109.227H232.283C232.146 109.511 231.919 109.815 231.601 110.139C231.283 110.463 230.859 110.739 230.331 110.966C229.803 111.193 229.158 111.307 228.396 111.307ZM228.703 109.5C229.499 109.5 230.169 109.344 230.714 109.031C231.266 108.719 231.68 108.315 231.959 107.821C232.243 107.327 232.385 106.807 232.385 106.261V104.42C232.3 104.523 232.112 104.616 231.822 104.702C231.538 104.781 231.209 104.852 230.834 104.915C230.464 104.972 230.104 105.023 229.751 105.068C229.405 105.108 229.124 105.142 228.908 105.17C228.385 105.239 227.896 105.349 227.442 105.503C226.993 105.651 226.629 105.875 226.351 106.176C226.078 106.472 225.942 106.875 225.942 107.386C225.942 108.085 226.2 108.614 226.717 108.972C227.24 109.324 227.902 109.5 228.703 109.5ZM240.079 103.125V111H238.067V97.9091H240.011V99.9545H240.181C240.488 99.2898 240.954 98.7557 241.579 98.3523C242.204 97.9432 243.011 97.7386 243.999 97.7386C244.886 97.7386 245.661 97.9205 246.326 98.2841C246.991 98.642 247.508 99.1875 247.877 99.9205C248.246 100.648 248.431 101.568 248.431 102.682V111H246.42V102.818C246.42 101.79 246.153 100.989 245.619 100.415C245.085 99.8352 244.352 99.5455 243.42 99.5455C242.778 99.5455 242.204 99.6847 241.698 99.9631C241.198 100.241 240.803 100.648 240.513 101.182C240.224 101.716 240.079 102.364 240.079 103.125ZM257.05 111.273C255.959 111.273 254.996 110.997 254.161 110.446C253.325 109.889 252.672 109.105 252.2 108.094C251.729 107.077 251.493 105.875 251.493 104.489C251.493 103.114 251.729 101.92 252.2 100.909C252.672 99.8977 253.328 99.1165 254.169 98.5653C255.01 98.0142 255.982 97.7386 257.084 97.7386C257.936 97.7386 258.609 97.8807 259.104 98.1648C259.604 98.4432 259.984 98.7614 260.246 99.1193C260.513 99.4716 260.72 99.7614 260.868 99.9886H261.038V93.5455H263.05V111H261.107V108.989H260.868C260.72 109.227 260.51 109.528 260.237 109.892C259.964 110.25 259.575 110.571 259.07 110.855C258.564 111.134 257.891 111.273 257.05 111.273ZM257.322 109.466C258.129 109.466 258.811 109.256 259.368 108.835C259.925 108.409 260.348 107.821 260.638 107.071C260.928 106.315 261.072 105.443 261.072 104.455C261.072 103.477 260.93 102.622 260.646 101.889C260.362 101.151 259.942 100.577 259.385 100.168C258.828 99.7528 258.141 99.5455 257.322 99.5455C256.47 99.5455 255.76 99.7642 255.192 100.202C254.629 100.634 254.206 101.222 253.922 101.966C253.643 102.705 253.504 103.534 253.504 104.455C253.504 105.386 253.646 106.233 253.93 106.994C254.22 107.75 254.646 108.352 255.209 108.801C255.777 109.244 256.482 109.466 257.322 109.466ZM279.081 111.273C277.854 111.273 276.797 110.983 275.911 110.403C275.024 109.824 274.342 109.026 273.865 108.009C273.388 106.991 273.149 105.83 273.149 104.523C273.149 103.193 273.393 102.02 273.882 101.003C274.376 99.9801 275.064 99.1818 275.945 98.608C276.831 98.0284 277.865 97.7386 279.047 97.7386C279.967 97.7386 280.797 97.9091 281.536 98.25C282.274 98.5909 282.879 99.0682 283.351 99.6818C283.822 100.295 284.115 101.011 284.229 101.83H282.217C282.064 101.233 281.723 100.705 281.195 100.244C280.672 99.7784 279.967 99.5455 279.081 99.5455C278.297 99.5455 277.609 99.75 277.018 100.159C276.433 100.562 275.976 101.134 275.646 101.872C275.322 102.605 275.161 103.466 275.161 104.455C275.161 105.466 275.32 106.347 275.638 107.097C275.962 107.847 276.416 108.429 277.001 108.844C277.592 109.259 278.286 109.466 279.081 109.466C279.604 109.466 280.078 109.375 280.504 109.193C280.93 109.011 281.291 108.75 281.587 108.409C281.882 108.068 282.092 107.659 282.217 107.182H284.229C284.115 107.955 283.834 108.651 283.385 109.27C282.942 109.884 282.354 110.372 281.621 110.736C280.893 111.094 280.047 111.273 279.081 111.273ZM287.169 111V97.9091H289.112V99.8864H289.249C289.487 99.2386 289.919 98.7131 290.544 98.3097C291.169 97.9062 291.874 97.7045 292.658 97.7045C292.805 97.7045 292.99 97.7074 293.212 97.7131C293.433 97.7187 293.601 97.7273 293.714 97.7386V99.7841C293.646 99.767 293.49 99.7415 293.246 99.7074C293.007 99.6676 292.754 99.6477 292.487 99.6477C291.851 99.6477 291.283 99.7812 290.783 100.048C290.288 100.31 289.896 100.673 289.607 101.139C289.322 101.599 289.18 102.125 289.18 102.716V111H287.169ZM297.793 115.909C297.452 115.909 297.148 115.881 296.881 115.824C296.614 115.773 296.429 115.722 296.327 115.67L296.838 113.898C297.327 114.023 297.759 114.068 298.134 114.034C298.509 114 298.841 113.832 299.131 113.531C299.426 113.236 299.696 112.756 299.94 112.091L300.315 111.068L295.474 97.9091H297.656L301.27 108.341H301.406L305.02 97.9091H307.202L301.645 112.909C301.395 113.585 301.085 114.145 300.716 114.588C300.347 115.037 299.918 115.369 299.429 115.585C298.946 115.801 298.401 115.909 297.793 115.909ZM309.857 115.909V97.9091H311.8V99.9886H312.038C312.186 99.7614 312.391 99.4716 312.652 99.1193C312.919 98.7614 313.3 98.4432 313.794 98.1648C314.294 97.8807 314.97 97.7386 315.822 97.7386C316.925 97.7386 317.896 98.0142 318.737 98.5653C319.578 99.1165 320.234 99.8977 320.706 100.909C321.178 101.92 321.413 103.114 321.413 104.489C321.413 105.875 321.178 107.077 320.706 108.094C320.234 109.105 319.581 109.889 318.746 110.446C317.911 110.997 316.947 111.273 315.857 111.273C315.016 111.273 314.342 111.134 313.837 110.855C313.331 110.571 312.942 110.25 312.669 109.892C312.396 109.528 312.186 109.227 312.038 108.989H311.868V115.909H309.857ZM311.834 104.455C311.834 105.443 311.979 106.315 312.268 107.071C312.558 107.821 312.982 108.409 313.538 108.835C314.095 109.256 314.777 109.466 315.584 109.466C316.425 109.466 317.126 109.244 317.689 108.801C318.257 108.352 318.683 107.75 318.967 106.994C319.257 106.233 319.402 105.386 319.402 104.455C319.402 103.534 319.26 102.705 318.976 101.966C318.697 101.222 318.274 100.634 317.706 100.202C317.143 99.7642 316.436 99.5455 315.584 99.5455C314.766 99.5455 314.078 99.7528 313.521 100.168C312.964 100.577 312.544 101.151 312.26 101.889C311.976 102.622 311.834 103.477 311.834 104.455ZM330.175 97.9091V99.6136H323.391V97.9091H330.175ZM325.368 94.7727H327.379V107.25C327.379 107.818 327.462 108.244 327.626 108.528C327.797 108.807 328.013 108.994 328.274 109.091C328.541 109.182 328.822 109.227 329.118 109.227C329.339 109.227 329.521 109.216 329.663 109.193C329.805 109.165 329.919 109.142 330.004 109.125L330.413 110.932C330.277 110.983 330.087 111.034 329.842 111.085C329.598 111.142 329.288 111.17 328.913 111.17C328.345 111.17 327.788 111.048 327.243 110.804C326.703 110.56 326.254 110.188 325.896 109.688C325.544 109.188 325.368 108.557 325.368 107.795V94.7727ZM338.378 111.273C337.196 111.273 336.159 110.991 335.267 110.429C334.381 109.866 333.688 109.08 333.188 108.068C332.693 107.057 332.446 105.875 332.446 104.523C332.446 103.159 332.693 101.969 333.188 100.952C333.688 99.9347 334.381 99.1449 335.267 98.5824C336.159 98.0199 337.196 97.7386 338.378 97.7386C339.56 97.7386 340.594 98.0199 341.48 98.5824C342.372 99.1449 343.065 99.9347 343.56 100.952C344.06 101.969 344.31 103.159 344.31 104.523C344.31 105.875 344.06 107.057 343.56 108.068C343.065 109.08 342.372 109.866 341.48 110.429C340.594 110.991 339.56 111.273 338.378 111.273ZM338.378 109.466C339.276 109.466 340.014 109.236 340.594 108.776C341.173 108.315 341.602 107.71 341.881 106.96C342.159 106.21 342.298 105.398 342.298 104.523C342.298 103.648 342.159 102.832 341.881 102.077C341.602 101.321 341.173 100.71 340.594 100.244C340.014 99.7784 339.276 99.5455 338.378 99.5455C337.48 99.5455 336.741 99.7784 336.162 100.244C335.582 100.71 335.153 101.321 334.875 102.077C334.597 102.832 334.457 103.648 334.457 104.523C334.457 105.398 334.597 106.21 334.875 106.96C335.153 107.71 335.582 108.315 336.162 108.776C336.741 109.236 337.48 109.466 338.378 109.466ZM348.846 111.136C348.425 111.136 348.065 110.986 347.763 110.685C347.462 110.384 347.312 110.023 347.312 109.602C347.312 109.182 347.462 108.821 347.763 108.52C348.065 108.219 348.425 108.068 348.846 108.068C349.266 108.068 349.627 108.219 349.928 108.52C350.229 108.821 350.38 109.182 350.38 109.602C350.38 109.881 350.309 110.136 350.167 110.369C350.031 110.602 349.846 110.79 349.613 110.932C349.386 111.068 349.13 111.136 348.846 111.136Z" fill="black"/>
<rect y="15" width="690" height="77" fill="black" fill-opacity="0.9"/>
<rect x="72" y="74" width="385" height="68" fill="black" fill-opacity="0.96"/>
</svg>
