<svg width="357" height="248" viewBox="0 0 357 248" fill="none" xmlns="http://www.w3.org/2000/svg">
<path d="M5.84931 23L1.07658 5.54545H3.22431L6.87203 19.7614H7.04249L10.7584 5.54545H13.1448L16.8607 19.7614H17.0311L20.6789 5.54545H22.8266L18.0539 23H15.872L12.0198 9.09091H11.8834L8.03113 23H5.84931ZM29.4573 23.2727C28.1959 23.2727 27.1078 22.9943 26.1931 22.4375C25.284 21.875 24.5823 21.0909 24.0879 20.0852C23.5993 19.0739 23.355 17.8977 23.355 16.5568C23.355 15.2159 23.5993 14.0341 24.0879 13.0114C24.5823 11.983 25.2698 11.1818 26.1504 10.608C27.0368 10.0284 28.0709 9.73864 29.2527 9.73864C29.9345 9.73864 30.6078 9.85227 31.2726 10.0795C31.9374 10.3068 32.5425 10.6761 33.0879 11.1875C33.6334 11.6932 34.0681 12.3636 34.3919 13.1989C34.7158 14.0341 34.8777 15.0625 34.8777 16.2841V17.1364H24.7868V15.3977H32.8323C32.8323 14.6591 32.6845 14 32.3891 13.4205C32.0993 12.8409 31.6845 12.3835 31.1448 12.0483C30.6107 11.7131 29.98 11.5455 29.2527 11.5455C28.4516 11.5455 27.7584 11.7443 27.1732 12.142C26.5936 12.5341 26.1476 13.0455 25.8351 13.6761C25.5226 14.3068 25.3664 14.983 25.3664 15.7045V16.8636C25.3664 17.8523 25.5368 18.6903 25.8777 19.3778C26.2243 20.0597 26.7044 20.5795 27.3181 20.9375C27.9317 21.2898 28.6448 21.4659 29.4573 21.4659C29.9857 21.4659 30.4629 21.392 30.8891 21.2443C31.3209 21.0909 31.6931 20.8636 32.0056 20.5625C32.3181 20.2557 32.5595 19.875 32.73 19.4205L34.6732 19.9659C34.4686 20.625 34.1249 21.2045 33.6419 21.7045C33.159 22.1989 32.5624 22.5852 31.8521 22.8636C31.1419 23.1364 30.3436 23.2727 29.4573 23.2727ZM39.7101 5.54545V7.07954C39.7101 7.54545 39.6249 8.04261 39.4544 8.57102C39.2896 9.09375 39.0453 9.60227 38.7215 10.0966C38.4033 10.5852 38.0169 11.0114 37.5624 11.375L36.4715 10.4886C36.8294 9.97727 37.1391 9.44602 37.4004 8.89489C37.6675 8.33807 37.801 7.74432 37.801 7.11364V5.54545H39.7101ZM41.8514 23V9.90909H43.7946V11.8864H43.931C44.1696 11.2386 44.6014 10.7131 45.2264 10.3097C45.8514 9.90625 46.556 9.70454 47.3401 9.70454C47.4878 9.70454 47.6725 9.70739 47.8941 9.71307C48.1156 9.71875 48.2833 9.72727 48.3969 9.73864V11.7841C48.3287 11.767 48.1725 11.7415 47.9281 11.7074C47.6895 11.6676 47.4367 11.6477 47.1696 11.6477C46.5333 11.6477 45.9651 11.7812 45.4651 12.0483C44.9708 12.3097 44.5787 12.6733 44.2889 13.1392C44.0048 13.5994 43.8628 14.125 43.8628 14.7159V23H41.8514ZM55.8713 23.2727C54.61 23.2727 53.5219 22.9943 52.6071 22.4375C51.698 21.875 50.9963 21.0909 50.502 20.0852C50.0134 19.0739 49.7691 17.8977 49.7691 16.5568C49.7691 15.2159 50.0134 14.0341 50.502 13.0114C50.9963 11.983 51.6838 11.1818 52.5645 10.608C53.4509 10.0284 54.485 9.73864 55.6668 9.73864C56.3486 9.73864 57.0219 9.85227 57.6867 10.0795C58.3514 10.3068 58.9566 10.6761 59.502 11.1875C60.0475 11.6932 60.4821 12.3636 60.806 13.1989C61.1298 14.0341 61.2918 15.0625 61.2918 16.2841V17.1364H51.2009V15.3977H59.2463C59.2463 14.6591 59.0986 14 58.8031 13.4205C58.5134 12.8409 58.0986 12.3835 57.5588 12.0483C57.0247 11.7131 56.3941 11.5455 55.6668 11.5455C54.8656 11.5455 54.1725 11.7443 53.5872 12.142C53.0077 12.5341 52.5617 13.0455 52.2492 13.6761C51.9367 14.3068 51.7804 14.983 51.7804 15.7045V16.8636C51.7804 17.8523 51.9509 18.6903 52.2918 19.3778C52.6384 20.0597 53.1185 20.5795 53.7321 20.9375C54.3458 21.2898 55.0588 21.4659 55.8713 21.4659C56.3997 21.4659 56.877 21.392 57.3031 21.2443C57.735 21.0909 58.1071 20.8636 58.4196 20.5625C58.7321 20.2557 58.9736 19.875 59.1441 19.4205L61.0872 19.9659C60.8827 20.625 60.5389 21.2045 60.056 21.7045C59.573 22.1989 58.9764 22.5852 58.2662 22.8636C57.556 23.1364 56.7577 23.2727 55.8713 23.2727ZM71.3742 23V5.54545H73.3855V11.9886H73.556C73.7037 11.7614 73.9083 11.4716 74.1696 11.1193C74.4367 10.7614 74.8173 10.4432 75.3117 10.1648C75.8117 9.88068 76.4878 9.73864 77.3401 9.73864C78.4423 9.73864 79.4139 10.0142 80.2548 10.5653C81.0958 11.1165 81.752 11.8977 82.2236 12.9091C82.6952 13.9205 82.931 15.1136 82.931 16.4886C82.931 17.875 82.6952 19.0767 82.2236 20.0938C81.752 21.1051 81.0986 21.8892 80.2634 22.446C79.4281 22.9972 78.4651 23.2727 77.3742 23.2727C76.5333 23.2727 75.86 23.1335 75.3543 22.8551C74.8486 22.571 74.4594 22.25 74.1867 21.892C73.9139 21.5284 73.7037 21.2273 73.556 20.9886H73.3173V23H71.3742ZM73.3514 16.4545C73.3514 17.4432 73.4963 18.3153 73.7861 19.071C74.0759 19.821 74.4992 20.4091 75.056 20.8352C75.6128 21.2557 76.2946 21.4659 77.1014 21.4659C77.9423 21.4659 78.6441 21.2443 79.2066 20.8011C79.7747 20.3523 80.2009 19.75 80.485 18.9943C80.7747 18.233 80.9196 17.3864 80.9196 16.4545C80.9196 15.5341 80.7776 14.7045 80.4935 13.9659C80.2151 13.2216 79.7918 12.6335 79.2236 12.2017C78.6611 11.7642 77.9537 11.5455 77.1014 11.5455C76.2833 11.5455 75.5958 11.7528 75.0389 12.1676C74.4821 12.5767 74.0617 13.1506 73.7776 13.8892C73.4935 14.6222 73.3514 15.4773 73.3514 16.4545ZM94.2577 17.6477V9.90909H96.2691V23H94.2577V20.7841H94.1213C93.8145 21.4489 93.3372 22.0142 92.6895 22.4801C92.0418 22.9403 91.2236 23.1705 90.235 23.1705C89.4168 23.1705 88.6895 22.9915 88.0531 22.6335C87.4168 22.2699 86.9168 21.7244 86.5531 20.9972C86.1895 20.2642 86.0077 19.3409 86.0077 18.2273V9.90909H88.0191V18.0909C88.0191 19.0455 88.2861 19.8068 88.8202 20.375C89.36 20.9432 90.0475 21.2273 90.8827 21.2273C91.3827 21.2273 91.8912 21.0994 92.4083 20.8438C92.931 20.5881 93.3685 20.196 93.7208 19.6676C94.0787 19.1392 94.2577 18.4659 94.2577 17.6477ZM99.953 23V9.90909H101.964V23H99.953ZM100.976 7.72727C100.584 7.72727 100.246 7.59375 99.9615 7.3267C99.6831 7.05966 99.5439 6.73864 99.5439 6.36364C99.5439 5.98864 99.6831 5.66761 99.9615 5.40057C100.246 5.13352 100.584 5 100.976 5C101.368 5 101.703 5.13352 101.981 5.40057C102.266 5.66761 102.408 5.98864 102.408 6.36364C102.408 6.73864 102.266 7.05966 101.981 7.3267C101.703 7.59375 101.368 7.72727 100.976 7.72727ZM107.66 5.54545V23H105.648V5.54545H107.66ZM116.287 23.2727C115.196 23.2727 114.233 22.9972 113.398 22.446C112.562 21.8892 111.909 21.1051 111.437 20.0938C110.966 19.0767 110.73 17.875 110.73 16.4886C110.73 15.1136 110.966 13.9205 111.437 12.9091C111.909 11.8977 112.565 11.1165 113.406 10.5653C114.247 10.0142 115.219 9.73864 116.321 9.73864C117.173 9.73864 117.846 9.88068 118.341 10.1648C118.841 10.4432 119.221 10.7614 119.483 11.1193C119.75 11.4716 119.957 11.7614 120.105 11.9886H120.275V5.54545H122.287V23H120.344V20.9886H120.105C119.957 21.2273 119.747 21.5284 119.474 21.892C119.202 22.25 118.812 22.571 118.307 22.8551C117.801 23.1335 117.128 23.2727 116.287 23.2727ZM116.56 21.4659C117.366 21.4659 118.048 21.2557 118.605 20.8352C119.162 20.4091 119.585 19.821 119.875 19.071C120.165 18.3153 120.31 17.4432 120.31 16.4545C120.31 15.4773 120.167 14.6222 119.883 13.8892C119.599 13.1506 119.179 12.5767 118.622 12.1676C118.065 11.7528 117.378 11.5455 116.56 11.5455C115.707 11.5455 114.997 11.7642 114.429 12.2017C113.866 12.6335 113.443 13.2216 113.159 13.9659C112.881 14.7045 112.741 15.5341 112.741 16.4545C112.741 17.3864 112.883 18.233 113.167 18.9943C113.457 19.75 113.883 20.3523 114.446 20.8011C115.014 21.2443 115.719 21.4659 116.56 21.4659ZM126.25 23V9.90909H128.261V23H126.25ZM127.273 7.72727C126.881 7.72727 126.542 7.59375 126.258 7.3267C125.98 7.05966 125.841 6.73864 125.841 6.36364C125.841 5.98864 125.98 5.66761 126.258 5.40057C126.542 5.13352 126.881 5 127.273 5C127.665 5 128 5.13352 128.278 5.40057C128.562 5.66761 128.704 5.98864 128.704 6.36364C128.704 6.73864 128.562 7.05966 128.278 7.3267C128 7.59375 127.665 7.72727 127.273 7.72727ZM133.957 15.125V23H131.945V9.90909H133.888V11.9545H134.059C134.366 11.2898 134.832 10.7557 135.457 10.3523C136.082 9.94318 136.888 9.73864 137.877 9.73864C138.763 9.73864 139.539 9.92045 140.204 10.2841C140.868 10.642 141.386 11.1875 141.755 11.9205C142.124 12.6477 142.309 13.5682 142.309 14.6818V23H140.297V14.8182C140.297 13.7898 140.03 12.9886 139.496 12.4148C138.962 11.8352 138.229 11.5455 137.297 11.5455C136.655 11.5455 136.082 11.6847 135.576 11.9631C135.076 12.2415 134.681 12.6477 134.391 13.1818C134.101 13.7159 133.957 14.3636 133.957 15.125ZM151.268 28.1818C150.297 28.1818 149.462 28.0568 148.763 27.8068C148.064 27.5625 147.481 27.2386 147.016 26.8352C146.555 26.4375 146.189 26.0114 145.916 25.5568L147.518 24.4318C147.7 24.6705 147.93 24.9432 148.209 25.25C148.487 25.5625 148.868 25.8324 149.351 26.0597C149.839 26.2926 150.479 26.4091 151.268 26.4091C152.325 26.4091 153.197 26.1534 153.885 25.642C154.572 25.1307 154.916 24.3295 154.916 23.2386V20.5795H154.746C154.598 20.8182 154.388 21.1136 154.115 21.4659C153.848 21.8125 153.462 22.1222 152.956 22.3949C152.456 22.6619 151.78 22.7955 150.927 22.7955C149.871 22.7955 148.922 22.5455 148.081 22.0455C147.246 21.5455 146.584 20.8182 146.095 19.8636C145.612 18.9091 145.371 17.75 145.371 16.3864C145.371 15.0455 145.606 13.8778 146.078 12.8835C146.55 11.8835 147.206 11.1108 148.047 10.5653C148.888 10.0142 149.859 9.73864 150.962 9.73864C151.814 9.73864 152.49 9.88068 152.99 10.1648C153.496 10.4432 153.882 10.7614 154.149 11.1193C154.422 11.4716 154.632 11.7614 154.78 11.9886H154.984V9.90909H156.927V23.375C156.927 24.5 156.672 25.4148 156.16 26.1193C155.655 26.8295 154.973 27.3494 154.115 27.679C153.263 28.0142 152.314 28.1818 151.268 28.1818ZM151.2 20.9886C152.007 20.9886 152.689 20.804 153.246 20.4347C153.802 20.0653 154.226 19.5341 154.516 18.8409C154.805 18.1477 154.95 17.3182 154.95 16.3523C154.95 15.4091 154.808 14.5767 154.524 13.8551C154.24 13.1335 153.819 12.5682 153.263 12.1591C152.706 11.75 152.018 11.5455 151.2 11.5455C150.348 11.5455 149.638 11.7614 149.069 12.1932C148.507 12.625 148.084 13.2045 147.8 13.9318C147.521 14.6591 147.382 15.4659 147.382 16.3523C147.382 17.2614 147.524 18.0653 147.808 18.7642C148.098 19.4574 148.524 20.0028 149.087 20.4006C149.655 20.7926 150.359 20.9886 151.2 20.9886ZM167.359 27.9091V9.90909H169.302V11.9886H169.541C169.689 11.7614 169.893 11.4716 170.155 11.1193C170.422 10.7614 170.802 10.4432 171.297 10.1648C171.797 9.88068 172.473 9.73864 173.325 9.73864C174.427 9.73864 175.399 10.0142 176.24 10.5653C177.081 11.1165 177.737 11.8977 178.209 12.9091C178.68 13.9205 178.916 15.1136 178.916 16.4886C178.916 17.875 178.68 19.0767 178.209 20.0938C177.737 21.1051 177.084 21.8892 176.248 22.446C175.413 22.9972 174.45 23.2727 173.359 23.2727C172.518 23.2727 171.845 23.1335 171.339 22.8551C170.834 22.571 170.444 22.25 170.172 21.892C169.899 21.5284 169.689 21.2273 169.541 20.9886H169.371V27.9091H167.359ZM169.337 16.4545C169.337 17.4432 169.481 18.3153 169.771 19.071C170.061 19.821 170.484 20.4091 171.041 20.8352C171.598 21.2557 172.28 21.4659 173.087 21.4659C173.927 21.4659 174.629 21.2443 175.192 20.8011C175.76 20.3523 176.186 19.75 176.47 18.9943C176.76 18.233 176.905 17.3864 176.905 16.4545C176.905 15.5341 176.763 14.7045 176.479 13.9659C176.2 13.2216 175.777 12.6335 175.209 12.2017C174.646 11.7642 173.939 11.5455 173.087 11.5455C172.268 11.5455 171.581 11.7528 171.024 12.1676C170.467 12.5767 170.047 13.1506 169.763 13.8892C169.479 14.6222 169.337 15.4773 169.337 16.4545ZM181.984 23V9.90909H183.927V11.8864H184.064C184.302 11.2386 184.734 10.7131 185.359 10.3097C185.984 9.90625 186.689 9.70454 187.473 9.70454C187.621 9.70454 187.805 9.70739 188.027 9.71307C188.248 9.71875 188.416 9.72727 188.53 9.73864V11.7841C188.462 11.767 188.305 11.7415 188.061 11.7074C187.822 11.6676 187.569 11.6477 187.302 11.6477C186.666 11.6477 186.098 11.7812 185.598 12.0483C185.104 12.3097 184.712 12.6733 184.422 13.1392C184.138 13.5994 183.996 14.125 183.996 14.7159V23H181.984ZM195.834 23.2727C194.652 23.2727 193.615 22.9915 192.723 22.429C191.837 21.8665 191.143 21.0795 190.643 20.0682C190.149 19.0568 189.902 17.875 189.902 16.5227C189.902 15.1591 190.149 13.9687 190.643 12.9517C191.143 11.9347 191.837 11.1449 192.723 10.5824C193.615 10.0199 194.652 9.73864 195.834 9.73864C197.016 9.73864 198.05 10.0199 198.936 10.5824C199.828 11.1449 200.521 11.9347 201.016 12.9517C201.516 13.9687 201.766 15.1591 201.766 16.5227C201.766 17.875 201.516 19.0568 201.016 20.0682C200.521 21.0795 199.828 21.8665 198.936 22.429C198.05 22.9915 197.016 23.2727 195.834 23.2727ZM195.834 21.4659C196.731 21.4659 197.47 21.2358 198.05 20.7756C198.629 20.3153 199.058 19.7102 199.337 18.9602C199.615 18.2102 199.754 17.3977 199.754 16.5227C199.754 15.6477 199.615 14.8324 199.337 14.0767C199.058 13.321 198.629 12.7102 198.05 12.2443C197.47 11.7784 196.731 11.5455 195.834 11.5455C194.936 11.5455 194.197 11.7784 193.618 12.2443C193.038 12.7102 192.609 13.321 192.331 14.0767C192.052 14.8324 191.913 15.6477 191.913 16.5227C191.913 17.3977 192.052 18.2102 192.331 18.9602C192.609 19.7102 193.038 20.3153 193.618 20.7756C194.197 21.2358 194.936 21.4659 195.834 21.4659ZM210.529 9.90909V11.6136H203.745V9.90909H210.529ZM205.722 6.77273H207.734V19.25C207.734 19.8182 207.816 20.2443 207.981 20.5284C208.151 20.8068 208.367 20.9943 208.628 21.0909C208.895 21.1818 209.177 21.2273 209.472 21.2273C209.694 21.2273 209.876 21.2159 210.018 21.1932C210.16 21.1648 210.273 21.142 210.359 21.125L210.768 22.9318C210.631 22.983 210.441 23.0341 210.197 23.0852C209.952 23.142 209.643 23.1705 209.268 23.1705C208.699 23.1705 208.143 23.0483 207.597 22.804C207.057 22.5597 206.609 22.1875 206.251 21.6875C205.898 21.1875 205.722 20.5568 205.722 19.7955V6.77273ZM218.732 23.2727C217.55 23.2727 216.513 22.9915 215.621 22.429C214.735 21.8665 214.042 21.0795 213.542 20.0682C213.047 19.0568 212.8 17.875 212.8 16.5227C212.8 15.1591 213.047 13.9687 213.542 12.9517C214.042 11.9347 214.735 11.1449 215.621 10.5824C216.513 10.0199 217.55 9.73864 218.732 9.73864C219.914 9.73864 220.948 10.0199 221.834 10.5824C222.726 11.1449 223.42 11.9347 223.914 12.9517C224.414 13.9687 224.664 15.1591 224.664 16.5227C224.664 17.875 224.414 19.0568 223.914 20.0682C223.42 21.0795 222.726 21.8665 221.834 22.429C220.948 22.9915 219.914 23.2727 218.732 23.2727ZM218.732 21.4659C219.63 21.4659 220.368 21.2358 220.948 20.7756C221.528 20.3153 221.957 19.7102 222.235 18.9602C222.513 18.2102 222.653 17.3977 222.653 16.5227C222.653 15.6477 222.513 14.8324 222.235 14.0767C221.957 13.321 221.528 12.7102 220.948 12.2443C220.368 11.7784 219.63 11.5455 218.732 11.5455C217.834 11.5455 217.096 11.7784 216.516 12.2443C215.937 12.7102 215.508 13.321 215.229 14.0767C214.951 14.8324 214.812 15.6477 214.812 16.5227C214.812 17.3977 214.951 18.2102 215.229 18.9602C215.508 19.7102 215.937 20.3153 216.516 20.7756C217.096 21.2358 217.834 21.4659 218.732 21.4659ZM233.052 23.2727C231.825 23.2727 230.768 22.983 229.882 22.4034C228.996 21.8239 228.314 21.0256 227.837 20.0085C227.359 18.9915 227.121 17.8295 227.121 16.5227C227.121 15.1932 227.365 14.0199 227.854 13.0028C228.348 11.9801 229.035 11.1818 229.916 10.608C230.802 10.0284 231.837 9.73864 233.018 9.73864C233.939 9.73864 234.768 9.90909 235.507 10.25C236.246 10.5909 236.851 11.0682 237.322 11.6818C237.794 12.2955 238.087 13.0114 238.2 13.8295H236.189C236.035 13.233 235.694 12.7045 235.166 12.2443C234.643 11.7784 233.939 11.5455 233.052 11.5455C232.268 11.5455 231.581 11.75 230.99 12.1591C230.405 12.5625 229.947 13.1335 229.618 13.8722C229.294 14.6051 229.132 15.4659 229.132 16.4545C229.132 17.4659 229.291 18.3466 229.609 19.0966C229.933 19.8466 230.388 20.429 230.973 20.8438C231.564 21.2585 232.257 21.4659 233.052 21.4659C233.575 21.4659 234.05 21.375 234.476 21.1932C234.902 21.0114 235.263 20.75 235.558 20.4091C235.854 20.0682 236.064 19.6591 236.189 19.1818H238.2C238.087 19.9545 237.805 20.6506 237.356 21.2699C236.913 21.8835 236.325 22.3722 235.592 22.7358C234.865 23.0938 234.018 23.2727 233.052 23.2727ZM246.459 23.2727C245.277 23.2727 244.24 22.9915 243.348 22.429C242.462 21.8665 241.768 21.0795 241.268 20.0682C240.774 19.0568 240.527 17.875 240.527 16.5227C240.527 15.1591 240.774 13.9687 241.268 12.9517C241.768 11.9347 242.462 11.1449 243.348 10.5824C244.24 10.0199 245.277 9.73864 246.459 9.73864C247.641 9.73864 248.675 10.0199 249.561 10.5824C250.453 11.1449 251.146 11.9347 251.641 12.9517C252.141 13.9687 252.391 15.1591 252.391 16.5227C252.391 17.875 252.141 19.0568 251.641 20.0682C251.146 21.0795 250.453 21.8665 249.561 22.429C248.675 22.9915 247.641 23.2727 246.459 23.2727ZM246.459 21.4659C247.356 21.4659 248.095 21.2358 248.675 20.7756C249.254 20.3153 249.683 19.7102 249.962 18.9602C250.24 18.2102 250.379 17.3977 250.379 16.5227C250.379 15.6477 250.24 14.8324 249.962 14.0767C249.683 13.321 249.254 12.7102 248.675 12.2443C248.095 11.7784 247.356 11.5455 246.459 11.5455C245.561 11.5455 244.822 11.7784 244.243 12.2443C243.663 12.7102 243.234 13.321 242.956 14.0767C242.677 14.8324 242.538 15.6477 242.538 16.5227C242.538 17.3977 242.677 18.2102 242.956 18.9602C243.234 19.7102 243.663 20.3153 244.243 20.7756C244.822 21.2358 245.561 21.4659 246.459 21.4659ZM257.472 5.54545V23H255.461V5.54545H257.472ZM270.429 12.8409L268.622 13.3523C268.508 13.0511 268.341 12.7585 268.119 12.4744C267.903 12.1847 267.608 11.946 267.233 11.7585C266.858 11.571 266.378 11.4773 265.792 11.4773C264.991 11.4773 264.324 11.6619 263.79 12.0312C263.261 12.3949 262.997 12.858 262.997 13.4205C262.997 13.9205 263.179 14.3153 263.542 14.6051C263.906 14.8949 264.474 15.1364 265.247 15.3295L267.19 15.8068C268.361 16.0909 269.233 16.5256 269.807 17.1108C270.381 17.6903 270.667 18.4375 270.667 19.3523C270.667 20.1023 270.452 20.7727 270.02 21.3636C269.594 21.9545 268.997 22.4205 268.23 22.7614C267.463 23.1023 266.571 23.2727 265.554 23.2727C264.219 23.2727 263.114 22.983 262.239 22.4034C261.364 21.8239 260.81 20.9773 260.577 19.8636L262.486 19.3864C262.667 20.0909 263.011 20.6193 263.517 20.9716C264.028 21.3239 264.696 21.5 265.52 21.5C266.457 21.5 267.202 21.3011 267.753 20.9034C268.31 20.5 268.588 20.017 268.588 19.4545C268.588 19 268.429 18.6193 268.111 18.3125C267.792 18 267.304 17.767 266.645 17.6136L264.463 17.1023C263.264 16.8182 262.383 16.3778 261.821 15.7812C261.264 15.179 260.986 14.4261 260.986 13.5227C260.986 12.7841 261.193 12.1307 261.608 11.5625C262.028 10.9943 262.599 10.5483 263.321 10.2244C264.048 9.90057 264.872 9.73864 265.792 9.73864C267.088 9.73864 268.105 10.0227 268.844 10.5909C269.588 11.1591 270.116 11.9091 270.429 12.8409ZM284.297 23.3068C283.468 23.3068 282.715 23.1506 282.039 22.8381C281.363 22.5199 280.826 22.0625 280.428 21.4659C280.03 20.8636 279.832 20.1364 279.832 19.2841C279.832 18.5341 279.979 17.9261 280.275 17.4602C280.57 16.9886 280.965 16.6193 281.459 16.3523C281.954 16.0852 282.499 15.8864 283.096 15.7557C283.698 15.6193 284.303 15.5114 284.911 15.4318C285.707 15.3295 286.351 15.2528 286.846 15.2017C287.346 15.1449 287.709 15.0511 287.937 14.9205C288.17 14.7898 288.286 14.5625 288.286 14.2386V14.1705C288.286 13.3295 288.056 12.6761 287.596 12.2102C287.141 11.7443 286.451 11.5114 285.525 11.5114C284.565 11.5114 283.812 11.7216 283.266 12.142C282.721 12.5625 282.337 13.0114 282.116 13.4886L280.207 12.8068C280.547 12.0114 281.002 11.392 281.57 10.9489C282.144 10.5 282.769 10.1875 283.445 10.0114C284.127 9.82955 284.797 9.73864 285.457 9.73864C285.877 9.73864 286.36 9.78977 286.905 9.89204C287.457 9.98864 287.988 10.1903 288.499 10.4972C289.016 10.804 289.445 11.267 289.786 11.8864C290.127 12.5057 290.297 13.3352 290.297 14.375V23H288.286V21.2273H288.184C288.047 21.5114 287.82 21.8153 287.502 22.1392C287.184 22.4631 286.761 22.7386 286.232 22.9659C285.704 23.1932 285.059 23.3068 284.297 23.3068ZM284.604 21.5C285.4 21.5 286.07 21.3438 286.616 21.0312C287.167 20.7188 287.582 20.3153 287.86 19.821C288.144 19.3267 288.286 18.8068 288.286 18.2614V16.4205C288.201 16.5227 288.013 16.6165 287.724 16.7017C287.44 16.7812 287.11 16.8523 286.735 16.9148C286.366 16.9716 286.005 17.0227 285.653 17.0682C285.306 17.108 285.025 17.142 284.809 17.1705C284.286 17.2386 283.797 17.3494 283.343 17.5028C282.894 17.6506 282.53 17.875 282.252 18.1761C281.979 18.4716 281.843 18.875 281.843 19.3864C281.843 20.0852 282.101 20.6136 282.618 20.9716C283.141 21.3239 283.803 21.5 284.604 21.5ZM295.98 15.125V23H293.969V9.90909H295.912V11.9545H296.082C296.389 11.2898 296.855 10.7557 297.48 10.3523C298.105 9.94318 298.912 9.73864 299.9 9.73864C300.787 9.73864 301.562 9.92045 302.227 10.2841C302.892 10.642 303.409 11.1875 303.778 11.9205C304.148 12.6477 304.332 13.5682 304.332 14.6818V23H302.321V14.8182C302.321 13.7898 302.054 12.9886 301.52 12.4148C300.986 11.8352 300.253 11.5455 299.321 11.5455C298.679 11.5455 298.105 11.6847 297.599 11.9631C297.099 12.2415 296.704 12.6477 296.415 13.1818C296.125 13.7159 295.98 14.3636 295.98 15.125ZM312.951 23.2727C311.86 23.2727 310.897 22.9972 310.062 22.446C309.226 21.8892 308.573 21.1051 308.101 20.0938C307.63 19.0767 307.394 17.875 307.394 16.4886C307.394 15.1136 307.63 13.9205 308.101 12.9091C308.573 11.8977 309.229 11.1165 310.07 10.5653C310.911 10.0142 311.883 9.73864 312.985 9.73864C313.837 9.73864 314.511 9.88068 315.005 10.1648C315.505 10.4432 315.886 10.7614 316.147 11.1193C316.414 11.4716 316.621 11.7614 316.769 11.9886H316.94V5.54545H318.951V23H317.008V20.9886H316.769C316.621 21.2273 316.411 21.5284 316.138 21.892C315.866 22.25 315.476 22.571 314.971 22.8551C314.465 23.1335 313.792 23.2727 312.951 23.2727ZM313.224 21.4659C314.03 21.4659 314.712 21.2557 315.269 20.8352C315.826 20.4091 316.249 19.821 316.539 19.071C316.829 18.3153 316.974 17.4432 316.974 16.4545C316.974 15.4773 316.832 14.6222 316.547 13.8892C316.263 13.1506 315.843 12.5767 315.286 12.1676C314.729 11.7528 314.042 11.5455 313.224 11.5455C312.371 11.5455 311.661 11.7642 311.093 12.2017C310.53 12.6335 310.107 13.2216 309.823 13.9659C309.545 14.7045 309.405 15.5341 309.405 16.4545C309.405 17.3864 309.547 18.233 309.832 18.9943C310.121 19.75 310.547 20.3523 311.11 20.8011C311.678 21.2443 312.383 21.4659 313.224 21.4659ZM2.40613 67V53.9091H4.41749V67H2.40613ZM3.42885 51.7273C3.03681 51.7273 2.69874 51.5938 2.41465 51.3267C2.13624 51.0597 1.99703 50.7386 1.99703 50.3636C1.99703 49.9886 2.13624 49.6676 2.41465 49.4006C2.69874 49.1335 3.03681 49 3.42885 49C3.8209 49 4.15613 49.1335 4.43453 49.4006C4.71863 49.6676 4.86067 49.9886 4.86067 50.3636C4.86067 50.7386 4.71863 51.0597 4.43453 51.3267C4.15613 51.5938 3.8209 51.7273 3.42885 51.7273ZM10.1128 59.125V67H8.10144V53.9091H10.0446V55.9545H10.2151C10.5219 55.2898 10.9878 54.7557 11.6128 54.3523C12.2378 53.9432 13.0446 53.7386 14.0333 53.7386C14.9196 53.7386 15.6952 53.9205 16.36 54.2841C17.0247 54.642 17.5418 55.1875 17.9111 55.9205C18.2804 56.6477 18.4651 57.5682 18.4651 58.6818V67H16.4537V58.8182C16.4537 57.7898 16.1867 56.9886 15.6526 56.4148C15.1185 55.8352 14.3855 55.5455 13.4537 55.5455C12.8117 55.5455 12.2378 55.6847 11.7321 55.9631C11.2321 56.2415 10.8372 56.6477 10.5475 57.1818C10.2577 57.7159 10.1128 58.3636 10.1128 59.125ZM27.97 53.9091V55.6136H20.9132V53.9091H27.97ZM23.0269 67V52.1023C23.0269 51.3523 23.203 50.7273 23.5553 50.2273C23.9075 49.7273 24.3649 49.3523 24.9274 49.1023C25.4899 48.8523 26.0837 48.7273 26.7087 48.7273C27.203 48.7273 27.6064 48.767 27.9189 48.8466C28.2314 48.9261 28.4644 49 28.6178 49.0682L28.0382 50.8068C27.936 50.7727 27.7939 50.7301 27.6121 50.679C27.436 50.6278 27.203 50.6023 26.9132 50.6023C26.2485 50.6023 25.7683 50.7699 25.4729 51.1051C25.1831 51.4403 25.0382 51.9318 25.0382 52.5795V67H23.0269ZM30.7889 67V53.9091H32.7321V55.8864H32.8685C33.1071 55.2386 33.5389 54.7131 34.1639 54.3097C34.7889 53.9062 35.4935 53.7045 36.2776 53.7045C36.4253 53.7045 36.61 53.7074 36.8316 53.7131C37.0531 53.7187 37.2208 53.7273 37.3344 53.7386V55.7841C37.2662 55.767 37.11 55.7415 36.8656 55.7074C36.627 55.6676 36.3742 55.6477 36.1071 55.6477C35.4708 55.6477 34.9026 55.7812 34.4026 56.0483C33.9083 56.3097 33.5162 56.6733 33.2264 57.1392C32.9423 57.5994 32.8003 58.125 32.8003 58.7159V67H30.7889ZM43.5709 67.3068C42.7414 67.3068 41.9885 67.1506 41.3124 66.8381C40.6362 66.5199 40.0993 66.0625 39.7016 65.4659C39.3039 64.8636 39.105 64.1364 39.105 63.2841C39.105 62.5341 39.2527 61.9261 39.5482 61.4602C39.8436 60.9886 40.2385 60.6193 40.7328 60.3523C41.2271 60.0852 41.7726 59.8864 42.3692 59.7557C42.9715 59.6193 43.5766 59.5114 44.1845 59.4318C44.98 59.3295 45.6249 59.2528 46.1192 59.2017C46.6192 59.1449 46.9828 59.0511 47.2101 58.9205C47.4431 58.7898 47.5595 58.5625 47.5595 58.2386V58.1705C47.5595 57.3295 47.3294 56.6761 46.8692 56.2102C46.4146 55.7443 45.7243 55.5114 44.7982 55.5114C43.8379 55.5114 43.0851 55.7216 42.5396 56.142C41.9942 56.5625 41.6107 57.0114 41.3891 57.4886L39.48 56.8068C39.8209 56.0114 40.2754 55.392 40.8436 54.9489C41.4175 54.5 42.0425 54.1875 42.7186 54.0114C43.4004 53.8295 44.0709 53.7386 44.73 53.7386C45.1504 53.7386 45.6334 53.7898 46.1789 53.892C46.73 53.9886 47.2612 54.1903 47.7726 54.4972C48.2896 54.804 48.7186 55.267 49.0595 55.8864C49.4004 56.5057 49.5709 57.3352 49.5709 58.375V67H47.5595V65.2273H47.4573C47.3209 65.5114 47.0936 65.8153 46.7754 66.1392C46.4573 66.4631 46.034 66.7386 45.5056 66.9659C44.9771 67.1932 44.3323 67.3068 43.5709 67.3068ZM43.8777 65.5C44.6732 65.5 45.3436 65.3438 45.8891 65.0312C46.4402 64.7188 46.855 64.3153 47.1334 63.821C47.4175 63.3267 47.5595 62.8068 47.5595 62.2614V60.4205C47.4743 60.5227 47.2868 60.6165 46.997 60.7017C46.7129 60.7812 46.3834 60.8523 46.0084 60.9148C45.6391 60.9716 45.2783 61.0227 44.926 61.0682C44.5794 61.108 44.2982 61.142 44.0823 61.1705C43.5595 61.2386 43.0709 61.3494 42.6164 61.5028C42.1675 61.6506 41.8039 61.875 41.5254 62.1761C41.2527 62.4716 41.1164 62.875 41.1164 63.3864C41.1164 64.0852 41.3749 64.6136 41.8919 64.9716C42.4146 65.3239 43.0766 65.5 43.8777 65.5ZM62.5148 56.8409L60.708 57.3523C60.5943 57.0511 60.4267 56.7585 60.2051 56.4744C59.9892 56.1847 59.6938 55.946 59.3188 55.7585C58.9438 55.571 58.4637 55.4773 57.8784 55.4773C57.0773 55.4773 56.4097 55.6619 55.8756 56.0312C55.3472 56.3949 55.083 56.858 55.083 57.4205C55.083 57.9205 55.2648 58.3153 55.6284 58.6051C55.9921 58.8949 56.5602 59.1364 57.333 59.3295L59.2762 59.8068C60.4466 60.0909 61.3188 60.5256 61.8926 61.1108C62.4665 61.6903 62.7534 62.4375 62.7534 63.3523C62.7534 64.1023 62.5375 64.7727 62.1057 65.3636C61.6796 65.9545 61.083 66.4205 60.3159 66.7614C59.5489 67.1023 58.6568 67.2727 57.6398 67.2727C56.3046 67.2727 55.1994 66.983 54.3244 66.4034C53.4494 65.8239 52.8955 64.9773 52.6625 63.8636L54.5716 63.3864C54.7534 64.0909 55.0972 64.6193 55.6029 64.9716C56.1142 65.3239 56.7818 65.5 57.6057 65.5C58.5432 65.5 59.2875 65.3011 59.8387 64.9034C60.3955 64.5 60.6739 64.017 60.6739 63.4545C60.6739 63 60.5148 62.6193 60.1966 62.3125C59.8784 62 59.3898 61.767 58.7307 61.6136L56.5489 61.1023C55.35 60.8182 54.4693 60.3778 53.9068 59.7812C53.35 59.179 53.0716 58.4261 53.0716 57.5227C53.0716 56.7841 53.279 56.1307 53.6938 55.5625C54.1142 54.9943 54.6852 54.5483 55.4068 54.2244C56.1341 53.9006 56.958 53.7386 57.8784 53.7386C59.1739 53.7386 60.1909 54.0227 60.9296 54.5909C61.6739 55.1591 62.2023 55.9091 62.5148 56.8409ZM65.7811 67V53.9091H67.7243V55.8864H67.8607C68.0993 55.2386 68.5311 54.7131 69.1561 54.3097C69.7811 53.9062 70.4857 53.7045 71.2698 53.7045C71.4175 53.7045 71.6021 53.7074 71.8237 53.7131C72.0453 53.7187 72.2129 53.7273 72.3266 53.7386V55.7841C72.2584 55.767 72.1021 55.7415 71.8578 55.7074C71.6192 55.6676 71.3664 55.6477 71.0993 55.6477C70.4629 55.6477 69.8948 55.7812 69.3948 56.0483C68.9004 56.3097 68.5084 56.6733 68.2186 57.1392C67.9345 57.5994 67.7925 58.125 67.7925 58.7159V67H65.7811ZM81.2243 53.9091V55.6136H74.4402V53.9091H81.2243ZM76.4175 50.7727H78.4289V63.25C78.4289 63.8182 78.5112 64.2443 78.676 64.5284C78.8465 64.8068 79.0624 64.9943 79.3237 65.0909C79.5908 65.1818 79.872 65.2273 80.1675 65.2273C80.3891 65.2273 80.5709 65.2159 80.7129 65.1932C80.855 65.1648 80.9686 65.142 81.0539 65.125L81.4629 66.9318C81.3266 66.983 81.1362 67.0341 80.8919 67.0852C80.6476 67.142 80.3379 67.1705 79.9629 67.1705C79.3948 67.1705 78.8379 67.0483 78.2925 66.804C77.7527 66.5597 77.3039 66.1875 76.9459 65.6875C76.5936 65.1875 76.4175 64.5568 76.4175 63.7955V50.7727ZM92.4999 61.6477V53.9091H94.5112V67H92.4999V64.7841H92.3635C92.0567 65.4489 91.5794 66.0142 90.9317 66.4801C90.284 66.9403 89.4658 67.1705 88.4771 67.1705C87.659 67.1705 86.9317 66.9915 86.2953 66.6335C85.659 66.2699 85.159 65.7244 84.7953 64.9972C84.4317 64.2642 84.2499 63.3409 84.2499 62.2273V53.9091H86.2612V62.0909C86.2612 63.0455 86.5283 63.8068 87.0624 64.375C87.6021 64.9432 88.2896 65.2273 89.1249 65.2273C89.6249 65.2273 90.1334 65.0994 90.6504 64.8438C91.1732 64.5881 91.6107 64.196 91.9629 63.6676C92.3209 63.1392 92.4999 62.4659 92.4999 61.6477ZM103.513 67.2727C102.286 67.2727 101.229 66.983 100.343 66.4034C99.4566 65.8239 98.7747 65.0256 98.2975 64.0085C97.8202 62.9915 97.5816 61.8295 97.5816 60.5227C97.5816 59.1932 97.8259 58.0199 98.3145 57.0028C98.8088 55.9801 99.4963 55.1818 100.377 54.608C101.263 54.0284 102.297 53.7386 103.479 53.7386C104.4 53.7386 105.229 53.9091 105.968 54.25C106.707 54.5909 107.312 55.0682 107.783 55.6818C108.255 56.2955 108.547 57.0114 108.661 57.8295H106.65C106.496 57.233 106.155 56.7045 105.627 56.2443C105.104 55.7784 104.4 55.5455 103.513 55.5455C102.729 55.5455 102.042 55.75 101.451 56.1591C100.866 56.5625 100.408 57.1335 100.079 57.8722C99.7548 58.6051 99.5929 59.4659 99.5929 60.4545C99.5929 61.4659 99.752 62.3466 100.07 63.0966C100.394 63.8466 100.849 64.429 101.434 64.8438C102.025 65.2585 102.718 65.4659 103.513 65.4659C104.036 65.4659 104.511 65.375 104.937 65.1932C105.363 65.0114 105.724 64.75 106.019 64.4091C106.315 64.0682 106.525 63.6591 106.65 63.1818H108.661C108.547 63.9545 108.266 64.6506 107.817 65.2699C107.374 65.8835 106.786 66.3722 106.053 66.7358C105.326 67.0938 104.479 67.2727 103.513 67.2727ZM117.295 53.9091V55.6136H110.511V53.9091H117.295ZM112.488 50.7727H114.499V63.25C114.499 63.8182 114.582 64.2443 114.746 64.5284C114.917 64.8068 115.133 64.9943 115.394 65.0909C115.661 65.1818 115.942 65.2273 116.238 65.2273C116.459 65.2273 116.641 65.2159 116.783 65.1932C116.925 65.1648 117.039 65.142 117.124 65.125L117.533 66.9318C117.397 66.983 117.207 67.0341 116.962 67.0852C116.718 67.142 116.408 67.1705 116.033 67.1705C115.465 67.1705 114.908 67.0483 114.363 66.804C113.823 66.5597 113.374 66.1875 113.016 65.6875C112.664 65.1875 112.488 64.5568 112.488 63.7955V50.7727ZM128.57 61.6477V53.9091H130.582V67H128.57V64.7841H128.434C128.127 65.4489 127.65 66.0142 127.002 66.4801C126.354 66.9403 125.536 67.1705 124.547 67.1705C123.729 67.1705 123.002 66.9915 122.366 66.6335C121.729 66.2699 121.229 65.7244 120.866 64.9972C120.502 64.2642 120.32 63.3409 120.32 62.2273V53.9091H122.332V62.0909C122.332 63.0455 122.599 63.8068 123.133 64.375C123.672 64.9432 124.36 65.2273 125.195 65.2273C125.695 65.2273 126.204 65.0994 126.721 64.8438C127.243 64.5881 127.681 64.196 128.033 63.6676C128.391 63.1392 128.57 62.4659 128.57 61.6477ZM134.266 67V53.9091H136.209V55.8864H136.345C136.584 55.2386 137.016 54.7131 137.641 54.3097C138.266 53.9062 138.97 53.7045 139.754 53.7045C139.902 53.7045 140.087 53.7074 140.308 53.7131C140.53 53.7187 140.697 53.7273 140.811 53.7386V55.7841C140.743 55.767 140.587 55.7415 140.342 55.7074C140.104 55.6676 139.851 55.6477 139.584 55.6477C138.947 55.6477 138.379 55.7812 137.879 56.0483C137.385 56.3097 136.993 56.6733 136.703 57.1392C136.419 57.5994 136.277 58.125 136.277 58.7159V67H134.266ZM148.285 67.2727C147.024 67.2727 145.936 66.9943 145.021 66.4375C144.112 65.875 143.41 65.0909 142.916 64.0852C142.427 63.0739 142.183 61.8977 142.183 60.5568C142.183 59.2159 142.427 58.0341 142.916 57.0114C143.41 55.983 144.098 55.1818 144.979 54.608C145.865 54.0284 146.899 53.7386 148.081 53.7386C148.763 53.7386 149.436 53.8523 150.101 54.0795C150.766 54.3068 151.371 54.6761 151.916 55.1875C152.462 55.6932 152.896 56.3636 153.22 57.1989C153.544 58.0341 153.706 59.0625 153.706 60.2841V61.1364H143.615V59.3977H151.66C151.66 58.6591 151.513 58 151.217 57.4205C150.927 56.8409 150.513 56.3835 149.973 56.0483C149.439 55.7131 148.808 55.5455 148.081 55.5455C147.28 55.5455 146.587 55.7443 146.001 56.142C145.422 56.5341 144.976 57.0455 144.663 57.6761C144.351 58.3068 144.194 58.983 144.194 59.7045V60.8636C144.194 61.8523 144.365 62.6903 144.706 63.3778C145.052 64.0597 145.533 64.5795 146.146 64.9375C146.76 65.2898 147.473 65.4659 148.285 65.4659C148.814 65.4659 149.291 65.392 149.717 65.2443C150.149 65.0909 150.521 64.8636 150.834 64.5625C151.146 64.2557 151.388 63.875 151.558 63.4205L153.501 63.9659C153.297 64.625 152.953 65.2045 152.47 65.7045C151.987 66.1989 151.391 66.5852 150.68 66.8636C149.97 67.1364 149.172 67.2727 148.285 67.2727ZM169.345 53.9091V55.6136H162.288V53.9091H169.345ZM164.402 67V52.1023C164.402 51.3523 164.578 50.7273 164.93 50.2273C165.283 49.7273 165.74 49.3523 166.302 49.1023C166.865 48.8523 167.459 48.7273 168.084 48.7273C168.578 48.7273 168.981 48.767 169.294 48.8466C169.606 48.9261 169.839 49 169.993 49.0682L169.413 50.8068C169.311 50.7727 169.169 50.7301 168.987 50.679C168.811 50.6278 168.578 50.6023 168.288 50.6023C167.623 50.6023 167.143 50.7699 166.848 51.1051C166.558 51.4403 166.413 51.9318 166.413 52.5795V67H164.402ZM176.943 67.2727C175.761 67.2727 174.724 66.9915 173.832 66.429C172.946 65.8665 172.253 65.0795 171.753 64.0682C171.258 63.0568 171.011 61.875 171.011 60.5227C171.011 59.1591 171.258 57.9687 171.753 56.9517C172.253 55.9347 172.946 55.1449 173.832 54.5824C174.724 54.0199 175.761 53.7386 176.943 53.7386C178.125 53.7386 179.159 54.0199 180.045 54.5824C180.937 55.1449 181.631 55.9347 182.125 56.9517C182.625 57.9687 182.875 59.1591 182.875 60.5227C182.875 61.875 182.625 63.0568 182.125 64.0682C181.631 65.0795 180.937 65.8665 180.045 66.429C179.159 66.9915 178.125 67.2727 176.943 67.2727ZM176.943 65.4659C177.841 65.4659 178.579 65.2358 179.159 64.7756C179.739 64.3153 180.167 63.7102 180.446 62.9602C180.724 62.2102 180.864 61.3977 180.864 60.5227C180.864 59.6477 180.724 58.8324 180.446 58.0767C180.167 57.321 179.739 56.7102 179.159 56.2443C178.579 55.7784 177.841 55.5455 176.943 55.5455C176.045 55.5455 175.307 55.7784 174.727 56.2443C174.148 56.7102 173.719 57.321 173.44 58.0767C173.162 58.8324 173.023 59.6477 173.023 60.5227C173.023 61.3977 173.162 62.2102 173.44 62.9602C173.719 63.7102 174.148 64.3153 174.727 64.7756C175.307 65.2358 176.045 65.4659 176.943 65.4659ZM185.945 67V53.9091H187.888V55.8864H188.025C188.263 55.2386 188.695 54.7131 189.32 54.3097C189.945 53.9062 190.65 53.7045 191.434 53.7045C191.582 53.7045 191.766 53.7074 191.988 53.7131C192.209 53.7187 192.377 53.7273 192.491 53.7386V55.7841C192.422 55.767 192.266 55.7415 192.022 55.7074C191.783 55.6676 191.53 55.6477 191.263 55.6477C190.627 55.6477 190.059 55.7812 189.559 56.0483C189.065 56.3097 188.672 56.6733 188.383 57.1392C188.099 57.5994 187.957 58.125 187.957 58.7159V67H185.945ZM207.318 53.9091V55.6136H200.534V53.9091H207.318ZM202.511 50.7727H204.523V63.25C204.523 63.8182 204.605 64.2443 204.77 64.5284C204.94 64.8068 205.156 64.9943 205.417 65.0909C205.685 65.1818 205.966 65.2273 206.261 65.2273C206.483 65.2273 206.665 65.2159 206.807 65.1932C206.949 65.1648 207.062 65.142 207.148 65.125L207.557 66.9318C207.42 66.983 207.23 67.0341 206.986 67.0852C206.741 67.142 206.432 67.1705 206.057 67.1705C205.489 67.1705 204.932 67.0483 204.386 66.804C203.846 66.5597 203.398 66.1875 203.04 65.6875C202.687 65.1875 202.511 64.5568 202.511 63.7955V50.7727ZM212.636 59.125V67H210.625V49.5455H212.636V55.9545H212.807C213.114 55.2784 213.574 54.7415 214.187 54.3438C214.807 53.9403 215.631 53.7386 216.659 53.7386C217.551 53.7386 218.332 53.9176 219.003 54.2756C219.673 54.6278 220.193 55.1705 220.562 55.9034C220.937 56.6307 221.125 57.5568 221.125 58.6818V67H219.114V58.8182C219.114 57.7784 218.844 56.9744 218.304 56.4062C217.77 55.8324 217.028 55.5455 216.079 55.5455C215.42 55.5455 214.829 55.6847 214.307 55.9631C213.79 56.2415 213.381 56.6477 213.079 57.1818C212.784 57.7159 212.636 58.3636 212.636 59.125ZM230.293 67.2727C229.032 67.2727 227.944 66.9943 227.029 66.4375C226.12 65.875 225.418 65.0909 224.924 64.0852C224.435 63.0739 224.191 61.8977 224.191 60.5568C224.191 59.2159 224.435 58.0341 224.924 57.0114C225.418 55.983 226.106 55.1818 226.986 54.608C227.873 54.0284 228.907 53.7386 230.089 53.7386C230.77 53.7386 231.444 53.8523 232.109 54.0795C232.773 54.3068 233.378 54.6761 233.924 55.1875C234.469 55.6932 234.904 56.3636 235.228 57.1989C235.552 58.0341 235.714 59.0625 235.714 60.2841V61.1364H225.623V59.3977H233.668C233.668 58.6591 233.52 58 233.225 57.4205C232.935 56.8409 232.52 56.3835 231.981 56.0483C231.447 55.7131 230.816 55.5455 230.089 55.5455C229.288 55.5455 228.594 55.7443 228.009 56.142C227.43 56.5341 226.984 57.0455 226.671 57.6761C226.359 58.3068 226.202 58.983 226.202 59.7045V60.8636C226.202 61.8523 226.373 62.6903 226.714 63.3778C227.06 64.0597 227.54 64.5795 228.154 64.9375C228.768 65.2898 229.481 65.4659 230.293 65.4659C230.822 65.4659 231.299 65.392 231.725 65.2443C232.157 65.0909 232.529 64.8636 232.841 64.5625C233.154 64.2557 233.395 63.875 233.566 63.4205L235.509 63.9659C235.305 64.625 234.961 65.2045 234.478 65.7045C233.995 66.1989 233.398 66.5852 232.688 66.8636C231.978 67.1364 231.18 67.2727 230.293 67.2727ZM8.23567 97.9091V99.6136H1.17885V97.9091H8.23567ZM3.29249 111V96.1023C3.29249 95.3523 3.46863 94.7273 3.8209 94.2273C4.17317 93.7273 4.63056 93.3523 5.19306 93.1023C5.75556 92.8523 6.34931 92.7273 6.97431 92.7273C7.46863 92.7273 7.87203 92.767 8.18453 92.8466C8.49703 92.9261 8.72999 93 8.8834 93.0682L8.30385 94.8068C8.20158 94.7727 8.05953 94.7301 7.87772 94.679C7.70158 94.6278 7.46863 94.6023 7.17885 94.6023C6.51408 94.6023 6.03397 94.7699 5.73851 95.1051C5.44874 95.4403 5.30385 95.9318 5.30385 96.5795V111H3.29249ZM19.3046 105.648V97.9091H21.3159V111H19.3046V108.784H19.1682C18.8614 109.449 18.3841 110.014 17.7364 110.48C17.0887 110.94 16.2705 111.17 15.2818 111.17C14.4637 111.17 13.7364 110.991 13.1 110.634C12.4637 110.27 11.9637 109.724 11.6 108.997C11.2364 108.264 11.0546 107.341 11.0546 106.227V97.9091H13.0659V106.091C13.0659 107.045 13.333 107.807 13.8671 108.375C14.4068 108.943 15.0943 109.227 15.9296 109.227C16.4296 109.227 16.9381 109.099 17.4551 108.844C17.9779 108.588 18.4154 108.196 18.7676 107.668C19.1256 107.139 19.3046 106.466 19.3046 105.648ZM30.6931 97.9091V99.6136H23.909V97.9091H30.6931ZM25.8862 94.7727H27.8976V107.25C27.8976 107.818 27.98 108.244 28.1448 108.528C28.3152 108.807 28.5311 108.994 28.7925 109.091C29.0595 109.182 29.3408 109.227 29.6362 109.227C29.8578 109.227 30.0396 109.216 30.1817 109.193C30.3237 109.165 30.4374 109.142 30.5226 109.125L30.9317 110.932C30.7953 110.983 30.605 111.034 30.3607 111.085C30.1164 111.142 29.8067 111.17 29.4317 111.17C28.8635 111.17 28.3067 111.048 27.7612 110.804C27.2215 110.56 26.7726 110.188 26.4146 109.688C26.0624 109.188 25.8862 108.557 25.8862 107.795V94.7727ZM41.9686 105.648V97.9091H43.98V111H41.9686V108.784H41.8323C41.5254 109.449 41.0482 110.014 40.4004 110.48C39.7527 110.94 38.9345 111.17 37.9459 111.17C37.1277 111.17 36.4004 110.991 35.7641 110.634C35.1277 110.27 34.6277 109.724 34.2641 108.997C33.9004 108.264 33.7186 107.341 33.7186 106.227V97.9091H35.73V106.091C35.73 107.045 35.997 107.807 36.5311 108.375C37.0709 108.943 37.7584 109.227 38.5936 109.227C39.0936 109.227 39.6021 109.099 40.1192 108.844C40.6419 108.588 41.0794 108.196 41.4317 107.668C41.7896 107.139 41.9686 106.466 41.9686 105.648ZM47.6639 111V97.9091H49.6071V99.8864H49.7435C49.9821 99.2386 50.4139 98.7131 51.0389 98.3097C51.6639 97.9062 52.3685 97.7045 53.1526 97.7045C53.3003 97.7045 53.485 97.7074 53.7066 97.7131C53.9281 97.7187 54.0958 97.7273 54.2094 97.7386V99.7841C54.1412 99.767 53.985 99.7415 53.7406 99.7074C53.502 99.6676 53.2492 99.6477 52.9821 99.6477C52.3458 99.6477 51.7776 99.7812 51.2776 100.048C50.7833 100.31 50.3912 100.673 50.1014 101.139C49.8173 101.599 49.6753 102.125 49.6753 102.716V111H47.6639ZM61.6838 111.273C60.4225 111.273 59.3344 110.994 58.4196 110.438C57.5105 109.875 56.8088 109.091 56.3145 108.085C55.8259 107.074 55.5816 105.898 55.5816 104.557C55.5816 103.216 55.8259 102.034 56.3145 101.011C56.8088 99.983 57.4963 99.1818 58.377 98.608C59.2634 98.0284 60.2975 97.7386 61.4793 97.7386C62.1611 97.7386 62.8344 97.8523 63.4992 98.0795C64.1639 98.3068 64.7691 98.6761 65.3145 99.1875C65.86 99.6932 66.2946 100.364 66.6185 101.199C66.9423 102.034 67.1043 103.062 67.1043 104.284V105.136H57.0134V103.398H65.0588C65.0588 102.659 64.9111 102 64.6156 101.42C64.3259 100.841 63.9111 100.384 63.3713 100.048C62.8372 99.7131 62.2066 99.5455 61.4793 99.5455C60.6781 99.5455 59.985 99.7443 59.3997 100.142C58.8202 100.534 58.3742 101.045 58.0617 101.676C57.7492 102.307 57.5929 102.983 57.5929 103.705V104.864C57.5929 105.852 57.7634 106.69 58.1043 107.378C58.4509 108.06 58.931 108.58 59.5446 108.938C60.1583 109.29 60.8713 109.466 61.6838 109.466C62.2122 109.466 62.6895 109.392 63.1156 109.244C63.5475 109.091 63.9196 108.864 64.2321 108.562C64.5446 108.256 64.7861 107.875 64.9566 107.42L66.8997 107.966C66.6952 108.625 66.3514 109.205 65.8685 109.705C65.3855 110.199 64.7889 110.585 64.0787 110.864C63.3685 111.136 62.5702 111.273 61.6838 111.273ZM82.2321 111.273C81.0503 111.273 80.0134 110.991 79.1213 110.429C78.235 109.866 77.5418 109.08 77.0418 108.068C76.5475 107.057 76.3003 105.875 76.3003 104.523C76.3003 103.159 76.5475 101.969 77.0418 100.952C77.5418 99.9347 78.235 99.1449 79.1213 98.5824C80.0134 98.0199 81.0503 97.7386 82.2321 97.7386C83.4139 97.7386 84.448 98.0199 85.3344 98.5824C86.2264 99.1449 86.9196 99.9347 87.4139 100.952C87.9139 101.969 88.1639 103.159 88.1639 104.523C88.1639 105.875 87.9139 107.057 87.4139 108.068C86.9196 109.08 86.2264 109.866 85.3344 110.429C84.448 110.991 83.4139 111.273 82.2321 111.273ZM82.2321 109.466C83.1298 109.466 83.8685 109.236 84.448 108.776C85.0276 108.315 85.4566 107.71 85.735 106.96C86.0134 106.21 86.1526 105.398 86.1526 104.523C86.1526 103.648 86.0134 102.832 85.735 102.077C85.4566 101.321 85.0276 100.71 84.448 100.244C83.8685 99.7784 83.1298 99.5455 82.2321 99.5455C81.3344 99.5455 80.5958 99.7784 80.0162 100.244C79.4367 100.71 79.0077 101.321 78.7293 102.077C78.4509 102.832 78.3117 103.648 78.3117 104.523C78.3117 105.398 78.4509 106.21 78.7293 106.96C79.0077 107.71 79.4367 108.315 80.0162 108.776C80.5958 109.236 81.3344 109.466 82.2321 109.466ZM97.0638 97.9091V99.6136H90.007V97.9091H97.0638ZM92.1206 111V96.1023C92.1206 95.3523 92.2968 94.7273 92.649 94.2273C93.0013 93.7273 93.4587 93.3523 94.0212 93.1023C94.5837 92.8523 95.1774 92.7273 95.8024 92.7273C96.2968 92.7273 96.7002 92.767 97.0127 92.8466C97.3252 92.9261 97.5581 93 97.7115 93.0682L97.132 94.8068C97.0297 94.7727 96.8877 94.7301 96.7058 94.679C96.5297 94.6278 96.2968 94.6023 96.007 94.6023C95.3422 94.6023 94.8621 94.7699 94.5666 95.1051C94.2769 95.4403 94.132 95.9318 94.132 96.5795V111H92.1206ZM111.951 111.273C110.724 111.273 109.667 110.983 108.78 110.403C107.894 109.824 107.212 109.026 106.735 108.009C106.258 106.991 106.019 105.83 106.019 104.523C106.019 103.193 106.263 102.02 106.752 101.003C107.246 99.9801 107.934 99.1818 108.815 98.608C109.701 98.0284 110.735 97.7386 111.917 97.7386C112.837 97.7386 113.667 97.9091 114.405 98.25C115.144 98.5909 115.749 99.0682 116.221 99.6818C116.692 100.295 116.985 101.011 117.099 101.83H115.087C114.934 101.233 114.593 100.705 114.065 100.244C113.542 99.7784 112.837 99.5455 111.951 99.5455C111.167 99.5455 110.479 99.75 109.888 100.159C109.303 100.562 108.846 101.134 108.516 101.872C108.192 102.605 108.03 103.466 108.03 104.455C108.03 105.466 108.19 106.347 108.508 107.097C108.832 107.847 109.286 108.429 109.871 108.844C110.462 109.259 111.155 109.466 111.951 109.466C112.474 109.466 112.948 109.375 113.374 109.193C113.8 109.011 114.161 108.75 114.457 108.409C114.752 108.068 114.962 107.659 115.087 107.182H117.099C116.985 107.955 116.704 108.651 116.255 109.27C115.812 109.884 115.224 110.372 114.491 110.736C113.763 111.094 112.917 111.273 111.951 111.273ZM125.357 111.273C124.175 111.273 123.138 110.991 122.246 110.429C121.36 109.866 120.667 109.08 120.167 108.068C119.672 107.057 119.425 105.875 119.425 104.523C119.425 103.159 119.672 101.969 120.167 100.952C120.667 99.9347 121.36 99.1449 122.246 98.5824C123.138 98.0199 124.175 97.7386 125.357 97.7386C126.539 97.7386 127.573 98.0199 128.459 98.5824C129.351 99.1449 130.045 99.9347 130.539 100.952C131.039 101.969 131.289 103.159 131.289 104.523C131.289 105.875 131.039 107.057 130.539 108.068C130.045 109.08 129.351 109.866 128.459 110.429C127.573 110.991 126.539 111.273 125.357 111.273ZM125.357 109.466C126.255 109.466 126.993 109.236 127.573 108.776C128.153 108.315 128.582 107.71 128.86 106.96C129.138 106.21 129.278 105.398 129.278 104.523C129.278 103.648 129.138 102.832 128.86 102.077C128.582 101.321 128.153 100.71 127.573 100.244C126.993 99.7784 126.255 99.5455 125.357 99.5455C124.459 99.5455 123.721 99.7784 123.141 100.244C122.562 100.71 122.133 101.321 121.854 102.077C121.576 102.832 121.437 103.648 121.437 104.523C121.437 105.398 121.576 106.21 121.854 106.96C122.133 107.71 122.562 108.315 123.141 108.776C123.721 109.236 124.459 109.466 125.357 109.466ZM134.359 111V97.9091H136.302V99.9545H136.473C136.746 99.2557 137.186 98.7131 137.794 98.3267C138.402 97.9347 139.132 97.7386 139.984 97.7386C140.848 97.7386 141.567 97.9347 142.141 98.3267C142.72 98.7131 143.172 99.2557 143.496 99.9545H143.632C143.967 99.2784 144.47 98.7415 145.141 98.3438C145.811 97.9403 146.615 97.7386 147.552 97.7386C148.723 97.7386 149.68 98.1051 150.425 98.8381C151.169 99.5653 151.541 100.699 151.541 102.239V111H149.53V102.239C149.53 101.273 149.266 100.582 148.737 100.168C148.209 99.7528 147.587 99.5455 146.871 99.5455C145.95 99.5455 145.237 99.8239 144.731 100.381C144.226 100.932 143.973 101.631 143.973 102.477V111H141.927V102.034C141.927 101.29 141.686 100.69 141.203 100.236C140.72 99.7756 140.098 99.5455 139.337 99.5455C138.814 99.5455 138.325 99.6847 137.871 99.9631C137.422 100.241 137.058 100.628 136.78 101.122C136.507 101.611 136.371 102.176 136.371 102.818V111H134.359ZM155.219 111V97.9091H157.162V99.9545H157.332C157.605 99.2557 158.045 98.7131 158.653 98.3267C159.261 97.9347 159.991 97.7386 160.844 97.7386C161.707 97.7386 162.426 97.9347 163 98.3267C163.579 98.7131 164.031 99.2557 164.355 99.9545H164.491C164.827 99.2784 165.329 98.7415 166 98.3438C166.67 97.9403 167.474 97.7386 168.412 97.7386C169.582 97.7386 170.54 98.1051 171.284 98.8381C172.028 99.5653 172.4 100.699 172.4 102.239V111H170.389V102.239C170.389 101.273 170.125 100.582 169.596 100.168C169.068 99.7528 168.446 99.5455 167.73 99.5455C166.81 99.5455 166.096 99.8239 165.591 100.381C165.085 100.932 164.832 101.631 164.832 102.477V111H162.787V102.034C162.787 101.29 162.545 100.69 162.062 100.236C161.579 99.7756 160.957 99.5455 160.196 99.5455C159.673 99.5455 159.185 99.6847 158.73 99.9631C158.281 100.241 157.917 100.628 157.639 101.122C157.366 101.611 157.23 102.176 157.23 102.818V111H155.219ZM184.328 105.648V97.9091H186.339V111H184.328V108.784H184.192C183.885 109.449 183.408 110.014 182.76 110.48C182.112 110.94 181.294 111.17 180.305 111.17C179.487 111.17 178.76 110.991 178.123 110.634C177.487 110.27 176.987 109.724 176.623 108.997C176.26 108.264 176.078 107.341 176.078 106.227V97.9091H178.089V106.091C178.089 107.045 178.356 107.807 178.891 108.375C179.43 108.943 180.118 109.227 180.953 109.227C181.453 109.227 181.962 109.099 182.479 108.844C183.001 108.588 183.439 108.196 183.791 107.668C184.149 107.139 184.328 106.466 184.328 105.648ZM192.035 103.125V111H190.023V97.9091H191.966V99.9545H192.137C192.444 99.2898 192.91 98.7557 193.535 98.3523C194.16 97.9432 194.966 97.7386 195.955 97.7386C196.841 97.7386 197.617 97.9205 198.282 98.2841C198.947 98.642 199.464 99.1875 199.833 99.9205C200.202 100.648 200.387 101.568 200.387 102.682V111H198.376V102.818C198.376 101.79 198.109 100.989 197.574 100.415C197.04 99.8352 196.307 99.5455 195.376 99.5455C194.734 99.5455 194.16 99.6847 193.654 99.9631C193.154 100.241 192.759 100.648 192.469 101.182C192.18 101.716 192.035 102.364 192.035 103.125ZM204.062 111V97.9091H206.074V111H204.062ZM205.085 95.7273C204.693 95.7273 204.355 95.5938 204.071 95.3267C203.792 95.0597 203.653 94.7386 203.653 94.3636C203.653 93.9886 203.792 93.6676 204.071 93.4006C204.355 93.1335 204.693 93 205.085 93C205.477 93 205.812 93.1335 206.091 93.4006C206.375 93.6676 206.517 93.9886 206.517 94.3636C206.517 94.7386 206.375 95.0597 206.091 95.3267C205.812 95.5938 205.477 95.7273 205.085 95.7273ZM215.451 97.9091V99.6136H208.667V97.9091H215.451ZM210.644 94.7727H212.655V107.25C212.655 107.818 212.738 108.244 212.903 108.528C213.073 108.807 213.289 108.994 213.55 109.091C213.817 109.182 214.099 109.227 214.394 109.227C214.616 109.227 214.797 109.216 214.94 109.193C215.082 109.165 215.195 109.142 215.28 109.125L215.69 110.932C215.553 110.983 215.363 111.034 215.118 111.085C214.874 111.142 214.565 111.17 214.19 111.17C213.621 111.17 213.065 111.048 212.519 110.804C211.979 110.56 211.53 110.188 211.172 109.688C210.82 109.188 210.644 108.557 210.644 107.795V94.7727ZM218.476 111V97.9091H220.488V111H218.476ZM219.499 95.7273C219.107 95.7273 218.769 95.5938 218.485 95.3267C218.207 95.0597 218.067 94.7386 218.067 94.3636C218.067 93.9886 218.207 93.6676 218.485 93.4006C218.769 93.1335 219.107 93 219.499 93C219.891 93 220.226 93.1335 220.505 93.4006C220.789 93.6676 220.931 93.9886 220.931 94.3636C220.931 94.7386 220.789 95.0597 220.505 95.3267C220.226 95.5938 219.891 95.7273 219.499 95.7273ZM229.66 111.273C228.399 111.273 227.311 110.994 226.396 110.438C225.487 109.875 224.785 109.091 224.291 108.085C223.802 107.074 223.558 105.898 223.558 104.557C223.558 103.216 223.802 102.034 224.291 101.011C224.785 99.983 225.473 99.1818 226.354 98.608C227.24 98.0284 228.274 97.7386 229.456 97.7386C230.138 97.7386 230.811 97.8523 231.476 98.0795C232.141 98.3068 232.746 98.6761 233.291 99.1875C233.837 99.6932 234.271 100.364 234.595 101.199C234.919 102.034 235.081 103.062 235.081 104.284V105.136H224.99V103.398H233.035C233.035 102.659 232.888 102 232.592 101.42C232.302 100.841 231.888 100.384 231.348 100.048C230.814 99.7131 230.183 99.5455 229.456 99.5455C228.655 99.5455 227.962 99.7443 227.376 100.142C226.797 100.534 226.351 101.045 226.038 101.676C225.726 102.307 225.569 102.983 225.569 103.705V104.864C225.569 105.852 225.74 106.69 226.081 107.378C226.427 108.06 226.908 108.58 227.521 108.938C228.135 109.29 228.848 109.466 229.66 109.466C230.189 109.466 230.666 109.392 231.092 109.244C231.524 109.091 231.896 108.864 232.209 108.562C232.521 108.256 232.763 107.875 232.933 107.42L234.876 107.966C234.672 108.625 234.328 109.205 233.845 109.705C233.362 110.199 232.766 110.585 232.055 110.864C231.345 111.136 230.547 111.273 229.66 111.273ZM247.413 100.841L245.606 101.352C245.493 101.051 245.325 100.759 245.104 100.474C244.888 100.185 244.592 99.946 244.217 99.7585C243.842 99.571 243.362 99.4773 242.777 99.4773C241.976 99.4773 241.308 99.6619 240.774 100.031C240.246 100.395 239.981 100.858 239.981 101.42C239.981 101.92 240.163 102.315 240.527 102.605C240.891 102.895 241.459 103.136 242.231 103.33L244.175 103.807C245.345 104.091 246.217 104.526 246.791 105.111C247.365 105.69 247.652 106.437 247.652 107.352C247.652 108.102 247.436 108.773 247.004 109.364C246.578 109.955 245.981 110.42 245.214 110.761C244.447 111.102 243.555 111.273 242.538 111.273C241.203 111.273 240.098 110.983 239.223 110.403C238.348 109.824 237.794 108.977 237.561 107.864L239.47 107.386C239.652 108.091 239.996 108.619 240.501 108.972C241.013 109.324 241.68 109.5 242.504 109.5C243.442 109.5 244.186 109.301 244.737 108.903C245.294 108.5 245.572 108.017 245.572 107.455C245.572 107 245.413 106.619 245.095 106.312C244.777 106 244.288 105.767 243.629 105.614L241.447 105.102C240.248 104.818 239.368 104.378 238.805 103.781C238.248 103.179 237.97 102.426 237.97 101.523C237.97 100.784 238.177 100.131 238.592 99.5625C239.013 98.9943 239.584 98.5483 240.305 98.2244C241.033 97.9006 241.856 97.7386 242.777 97.7386C244.072 97.7386 245.089 98.0227 245.828 98.5909C246.572 99.1591 247.101 99.9091 247.413 100.841ZM252.145 111.136C251.725 111.136 251.364 110.986 251.063 110.685C250.762 110.384 250.611 110.023 250.611 109.602C250.611 109.182 250.762 108.821 251.063 108.52C251.364 108.219 251.725 108.068 252.145 108.068C252.566 108.068 252.927 108.219 253.228 108.52C253.529 108.821 253.68 109.182 253.68 109.602C253.68 109.881 253.609 110.136 253.466 110.369C253.33 110.602 253.145 110.79 252.913 110.932C252.685 111.068 252.43 111.136 252.145 111.136ZM270.993 93.5455H273.107V106.023C273.107 107.136 272.903 108.082 272.493 108.861C272.084 109.639 271.508 110.23 270.763 110.634C270.019 111.037 269.141 111.239 268.13 111.239C267.175 111.239 266.326 111.065 265.582 110.719C264.837 110.366 264.252 109.866 263.826 109.219C263.4 108.571 263.187 107.801 263.187 106.909H265.266C265.266 107.403 265.388 107.835 265.633 108.205C265.883 108.568 266.224 108.852 266.655 109.057C267.087 109.261 267.579 109.364 268.13 109.364C268.738 109.364 269.255 109.236 269.681 108.98C270.107 108.724 270.431 108.349 270.653 107.855C270.88 107.355 270.993 106.744 270.993 106.023V93.5455ZM282.388 111.273C281.207 111.273 280.17 110.991 279.278 110.429C278.391 109.866 277.698 109.08 277.198 108.068C276.704 107.057 276.457 105.875 276.457 104.523C276.457 103.159 276.704 101.969 277.198 100.952C277.698 99.9347 278.391 99.1449 279.278 98.5824C280.17 98.0199 281.207 97.7386 282.388 97.7386C283.57 97.7386 284.604 98.0199 285.491 98.5824C286.383 99.1449 287.076 99.9347 287.57 100.952C288.07 101.969 288.32 103.159 288.32 104.523C288.32 105.875 288.07 107.057 287.57 108.068C287.076 109.08 286.383 109.866 285.491 110.429C284.604 110.991 283.57 111.273 282.388 111.273ZM282.388 109.466C283.286 109.466 284.025 109.236 284.604 108.776C285.184 108.315 285.613 107.71 285.891 106.96C286.17 106.21 286.309 105.398 286.309 104.523C286.309 103.648 286.17 102.832 285.891 102.077C285.613 101.321 285.184 100.71 284.604 100.244C284.025 99.7784 283.286 99.5455 282.388 99.5455C281.491 99.5455 280.752 99.7784 280.172 100.244C279.593 100.71 279.164 101.321 278.886 102.077C278.607 102.832 278.468 103.648 278.468 104.523C278.468 105.398 278.607 106.21 278.886 106.96C279.164 107.71 279.593 108.315 280.172 108.776C280.752 109.236 281.491 109.466 282.388 109.466ZM291.391 111V97.9091H293.402V111H291.391ZM292.413 95.7273C292.021 95.7273 291.683 95.5938 291.399 95.3267C291.121 95.0597 290.981 94.7386 290.981 94.3636C290.981 93.9886 291.121 93.6676 291.399 93.4006C291.683 93.1335 292.021 93 292.413 93C292.805 93 293.141 93.1335 293.419 93.4006C293.703 93.6676 293.845 93.9886 293.845 94.3636C293.845 94.7386 293.703 95.0597 293.419 95.3267C293.141 95.5938 292.805 95.7273 292.413 95.7273ZM299.097 103.125V111H297.086V97.9091H299.029V99.9545H299.199C299.506 99.2898 299.972 98.7557 300.597 98.3523C301.222 97.9432 302.029 97.7386 303.018 97.7386C303.904 97.7386 304.68 97.9205 305.344 98.2841C306.009 98.642 306.526 99.1875 306.895 99.9205C307.265 100.648 307.449 101.568 307.449 102.682V111H305.438V102.818C305.438 101.79 305.171 100.989 304.637 100.415C304.103 99.8352 303.37 99.5455 302.438 99.5455C301.796 99.5455 301.222 99.6847 300.716 99.9631C300.216 100.241 299.822 100.648 299.532 101.182C299.242 101.716 299.097 102.364 299.097 103.125ZM7.72431 155.273C6.54249 155.273 5.50556 154.991 4.61351 154.429C3.72715 153.866 3.03397 153.08 2.53397 152.068C2.03965 151.057 1.79249 149.875 1.79249 148.523C1.79249 147.159 2.03965 145.969 2.53397 144.952C3.03397 143.935 3.72715 143.145 4.61351 142.582C5.50556 142.02 6.54249 141.739 7.72431 141.739C8.90613 141.739 9.94022 142.02 10.8266 142.582C11.7186 143.145 12.4118 143.935 12.9061 144.952C13.4061 145.969 13.6561 147.159 13.6561 148.523C13.6561 149.875 13.4061 151.057 12.9061 152.068C12.4118 153.08 11.7186 153.866 10.8266 154.429C9.94022 154.991 8.90613 155.273 7.72431 155.273ZM7.72431 153.466C8.62203 153.466 9.36067 153.236 9.94022 152.776C10.5198 152.315 10.9487 151.71 11.2271 150.96C11.5056 150.21 11.6448 149.398 11.6448 148.523C11.6448 147.648 11.5056 146.832 11.2271 146.077C10.9487 145.321 10.5198 144.71 9.94022 144.244C9.36067 143.778 8.62203 143.545 7.72431 143.545C6.82658 143.545 6.08794 143.778 5.5084 144.244C4.92885 144.71 4.49988 145.321 4.22147 146.077C3.94306 146.832 3.80385 147.648 3.80385 148.523C3.80385 149.398 3.94306 150.21 4.22147 150.96C4.49988 151.71 4.92885 152.315 5.5084 152.776C6.08794 153.236 6.82658 153.466 7.72431 153.466ZM24.9764 149.648V141.909H26.9878V155H24.9764V152.784H24.8401C24.5333 153.449 24.056 154.014 23.4083 154.48C22.7605 154.94 21.9423 155.17 20.9537 155.17C20.1355 155.17 19.4083 154.991 18.7719 154.634C18.1355 154.27 17.6355 153.724 17.2719 152.997C16.9083 152.264 16.7264 151.341 16.7264 150.227V141.909H18.7378V150.091C18.7378 151.045 19.0048 151.807 19.5389 152.375C20.0787 152.943 20.7662 153.227 21.6014 153.227C22.1014 153.227 22.61 153.099 23.127 152.844C23.6497 152.588 24.0872 152.196 24.4395 151.668C24.7975 151.139 24.9764 150.466 24.9764 149.648ZM30.6718 155V141.909H32.6149V143.886H32.7513C32.9899 143.239 33.4218 142.713 34.0468 142.31C34.6718 141.906 35.3763 141.705 36.1604 141.705C36.3081 141.705 36.4928 141.707 36.7144 141.713C36.936 141.719 37.1036 141.727 37.2172 141.739V143.784C37.149 143.767 36.9928 143.741 36.7485 143.707C36.5098 143.668 36.257 143.648 35.9899 143.648C35.3536 143.648 34.7854 143.781 34.2854 144.048C33.7911 144.31 33.399 144.673 33.1093 145.139C32.8252 145.599 32.6831 146.125 32.6831 146.716V155H30.6718ZM52.0446 141.909V143.614H45.2605V141.909H52.0446ZM47.2378 138.773H49.2492V151.25C49.2492 151.818 49.3316 152.244 49.4963 152.528C49.6668 152.807 49.8827 152.994 50.1441 153.091C50.4111 153.182 50.6923 153.227 50.9878 153.227C51.2094 153.227 51.3912 153.216 51.5333 153.193C51.6753 153.165 51.7889 153.142 51.8742 153.125L52.2833 154.932C52.1469 154.983 51.9566 155.034 51.7122 155.085C51.4679 155.142 51.1583 155.17 50.7833 155.17C50.2151 155.17 49.6583 155.048 49.1128 154.804C48.573 154.56 48.1242 154.188 47.7662 153.688C47.4139 153.188 47.2378 152.557 47.2378 151.795V138.773ZM60.4182 155.273C59.1568 155.273 58.0688 154.994 57.154 154.438C56.2449 153.875 55.5432 153.091 55.0489 152.085C54.5602 151.074 54.3159 149.898 54.3159 148.557C54.3159 147.216 54.5602 146.034 55.0489 145.011C55.5432 143.983 56.2307 143.182 57.1114 142.608C57.9977 142.028 59.0318 141.739 60.2137 141.739C60.8955 141.739 61.5688 141.852 62.2335 142.08C62.8983 142.307 63.5034 142.676 64.0489 143.188C64.5943 143.693 65.029 144.364 65.3529 145.199C65.6767 146.034 65.8387 147.062 65.8387 148.284V149.136H55.7477V147.398H63.7932C63.7932 146.659 63.6455 146 63.35 145.42C63.0602 144.841 62.6455 144.384 62.1057 144.048C61.5716 143.713 60.9409 143.545 60.2137 143.545C59.4125 143.545 58.7193 143.744 58.1341 144.142C57.5546 144.534 57.1085 145.045 56.796 145.676C56.4835 146.307 56.3273 146.983 56.3273 147.705V148.864C56.3273 149.852 56.4977 150.69 56.8387 151.378C57.1852 152.06 57.6654 152.58 58.279 152.938C58.8926 153.29 59.6057 153.466 60.4182 153.466C60.9466 153.466 61.4239 153.392 61.85 153.244C62.2818 153.091 62.654 152.864 62.9665 152.562C63.279 152.256 63.5205 151.875 63.6909 151.42L65.6341 151.966C65.4296 152.625 65.0858 153.205 64.6029 153.705C64.1199 154.199 63.5233 154.585 62.8131 154.864C62.1029 155.136 61.3046 155.273 60.4182 155.273ZM72.7506 155.307C71.921 155.307 71.1682 155.151 70.4921 154.838C69.8159 154.52 69.279 154.062 68.8813 153.466C68.4835 152.864 68.2847 152.136 68.2847 151.284C68.2847 150.534 68.4324 149.926 68.7279 149.46C69.0233 148.989 69.4182 148.619 69.9125 148.352C70.4068 148.085 70.9523 147.886 71.5489 147.756C72.1512 147.619 72.7563 147.511 73.3642 147.432C74.1597 147.33 74.8046 147.253 75.2989 147.202C75.7989 147.145 76.1625 147.051 76.3898 146.92C76.6227 146.79 76.7392 146.562 76.7392 146.239V146.17C76.7392 145.33 76.5091 144.676 76.0489 144.21C75.5943 143.744 74.904 143.511 73.9779 143.511C73.0176 143.511 72.2648 143.722 71.7193 144.142C71.1739 144.562 70.7904 145.011 70.5688 145.489L68.6597 144.807C69.0006 144.011 69.4551 143.392 70.0233 142.949C70.5972 142.5 71.2222 142.187 71.8983 142.011C72.5801 141.83 73.2506 141.739 73.9097 141.739C74.3301 141.739 74.8131 141.79 75.3585 141.892C75.9097 141.989 76.4409 142.19 76.9523 142.497C77.4693 142.804 77.8983 143.267 78.2392 143.886C78.5801 144.506 78.7506 145.335 78.7506 146.375V155H76.7392V153.227H76.6369C76.5006 153.511 76.2733 153.815 75.9551 154.139C75.6369 154.463 75.2137 154.739 74.6852 154.966C74.1568 155.193 73.5119 155.307 72.7506 155.307ZM73.0574 153.5C73.8529 153.5 74.5233 153.344 75.0688 153.031C75.6199 152.719 76.0347 152.315 76.3131 151.821C76.5972 151.327 76.7392 150.807 76.7392 150.261V148.42C76.654 148.523 76.4665 148.616 76.1767 148.702C75.8926 148.781 75.5631 148.852 75.1881 148.915C74.8188 148.972 74.458 149.023 74.1057 149.068C73.7591 149.108 73.4779 149.142 73.2619 149.17C72.7392 149.239 72.2506 149.349 71.796 149.503C71.3472 149.651 70.9835 149.875 70.7051 150.176C70.4324 150.472 70.296 150.875 70.296 151.386C70.296 152.085 70.5546 152.614 71.0716 152.972C71.5943 153.324 72.2563 153.5 73.0574 153.5ZM82.4218 155V141.909H84.3649V143.955H84.5354C84.8081 143.256 85.2485 142.713 85.8564 142.327C86.4644 141.935 87.1945 141.739 88.0468 141.739C88.9104 141.739 89.6291 141.935 90.203 142.327C90.7825 142.713 91.2343 143.256 91.5581 143.955H91.6945C92.0297 143.278 92.5325 142.741 93.203 142.344C93.8735 141.94 94.6774 141.739 95.6149 141.739C96.7854 141.739 97.7428 142.105 98.4871 142.838C99.2314 143.565 99.6036 144.699 99.6036 146.239V155H97.5922V146.239C97.5922 145.273 97.328 144.582 96.7996 144.168C96.2712 143.753 95.649 143.545 94.9331 143.545C94.0127 143.545 93.2996 143.824 92.7939 144.381C92.2882 144.932 92.0354 145.631 92.0354 146.477V155H89.9899V146.034C89.9899 145.29 89.7485 144.69 89.2655 144.236C88.7825 143.776 88.1604 143.545 87.399 143.545C86.8763 143.545 86.3877 143.685 85.9331 143.963C85.4843 144.241 85.1206 144.628 84.8422 145.122C84.5695 145.611 84.4331 146.176 84.4331 146.818V155H82.4218ZM115.724 141.909V143.614H108.94V141.909H115.724ZM110.917 138.773H112.929V151.25C112.929 151.818 113.011 152.244 113.176 152.528C113.346 152.807 113.562 152.994 113.824 153.091C114.091 153.182 114.372 153.227 114.667 153.227C114.889 153.227 115.071 153.216 115.213 153.193C115.355 153.165 115.469 153.142 115.554 153.125L115.963 154.932C115.827 154.983 115.636 155.034 115.392 155.085C115.148 155.142 114.838 155.17 114.463 155.17C113.895 155.17 113.338 155.048 112.792 154.804C112.253 154.56 111.804 154.188 111.446 153.688C111.094 153.188 110.917 152.557 110.917 151.795V138.773ZM123.927 155.273C122.746 155.273 121.709 154.991 120.817 154.429C119.93 153.866 119.237 153.08 118.737 152.068C118.243 151.057 117.996 149.875 117.996 148.523C117.996 147.159 118.243 145.969 118.737 144.952C119.237 143.935 119.93 143.145 120.817 142.582C121.709 142.02 122.746 141.739 123.927 141.739C125.109 141.739 126.143 142.02 127.03 142.582C127.922 143.145 128.615 143.935 129.109 144.952C129.609 145.969 129.859 147.159 129.859 148.523C129.859 149.875 129.609 151.057 129.109 152.068C128.615 153.08 127.922 153.866 127.03 154.429C126.143 154.991 125.109 155.273 123.927 155.273ZM123.927 153.466C124.825 153.466 125.564 153.236 126.143 152.776C126.723 152.315 127.152 151.71 127.43 150.96C127.709 150.21 127.848 149.398 127.848 148.523C127.848 147.648 127.709 146.832 127.43 146.077C127.152 145.321 126.723 144.71 126.143 144.244C125.564 143.778 124.825 143.545 123.927 143.545C123.03 143.545 122.291 143.778 121.712 144.244C121.132 144.71 120.703 145.321 120.425 146.077C120.146 146.832 120.007 147.648 120.007 148.523C120.007 149.398 120.146 150.21 120.425 150.96C120.703 151.71 121.132 152.315 121.712 152.776C122.291 153.236 123.03 153.466 123.927 153.466ZM142.645 155L138.657 141.909H140.77L143.6 151.932H143.736L146.532 141.909H148.68L151.441 151.898H151.577L154.407 141.909H156.52L152.532 155H150.555L147.691 144.943H147.486L144.623 155H142.645ZM164.052 155.273C162.871 155.273 161.834 154.991 160.942 154.429C160.055 153.866 159.362 153.08 158.862 152.068C158.368 151.057 158.121 149.875 158.121 148.523C158.121 147.159 158.368 145.969 158.862 144.952C159.362 143.935 160.055 143.145 160.942 142.582C161.834 142.02 162.871 141.739 164.052 141.739C165.234 141.739 166.268 142.02 167.155 142.582C168.047 143.145 168.74 143.935 169.234 144.952C169.734 145.969 169.984 147.159 169.984 148.523C169.984 149.875 169.734 151.057 169.234 152.068C168.74 153.08 168.047 153.866 167.155 154.429C166.268 154.991 165.234 155.273 164.052 155.273ZM164.052 153.466C164.95 153.466 165.689 153.236 166.268 152.776C166.848 152.315 167.277 151.71 167.555 150.96C167.834 150.21 167.973 149.398 167.973 148.523C167.973 147.648 167.834 146.832 167.555 146.077C167.277 145.321 166.848 144.71 166.268 144.244C165.689 143.778 164.95 143.545 164.052 143.545C163.155 143.545 162.416 143.778 161.837 144.244C161.257 144.71 160.828 145.321 160.55 146.077C160.271 146.832 160.132 147.648 160.132 148.523C160.132 149.398 160.271 150.21 160.55 150.96C160.828 151.71 161.257 152.315 161.837 152.776C162.416 153.236 163.155 153.466 164.052 153.466ZM173.055 155V141.909H174.998V143.886H175.134C175.373 143.239 175.805 142.713 176.43 142.31C177.055 141.906 177.759 141.705 178.543 141.705C178.691 141.705 178.876 141.707 179.097 141.713C179.319 141.719 179.486 141.727 179.6 141.739V143.784C179.532 143.767 179.376 143.741 179.131 143.707C178.893 143.668 178.64 143.648 178.373 143.648C177.736 143.648 177.168 143.781 176.668 144.048C176.174 144.31 175.782 144.673 175.492 145.139C175.208 145.599 175.066 146.125 175.066 146.716V155H173.055ZM183.859 150.227L183.825 147.739H184.234L189.962 141.909H192.45L186.348 148.08H186.177L183.859 150.227ZM181.984 155V137.545H183.996V155H181.984ZM190.302 155L185.189 148.523L186.621 147.125L192.859 155H190.302ZM205.641 155.307C204.812 155.307 204.059 155.151 203.383 154.838C202.707 154.52 202.17 154.062 201.772 153.466C201.374 152.864 201.175 152.136 201.175 151.284C201.175 150.534 201.323 149.926 201.618 149.46C201.914 148.989 202.309 148.619 202.803 148.352C203.297 148.085 203.843 147.886 204.44 147.756C205.042 147.619 205.647 147.511 206.255 147.432C207.05 147.33 207.695 147.253 208.19 147.202C208.69 147.145 209.053 147.051 209.28 146.92C209.513 146.79 209.63 146.562 209.63 146.239V146.17C209.63 145.33 209.4 144.676 208.94 144.21C208.485 143.744 207.795 143.511 206.868 143.511C205.908 143.511 205.155 143.722 204.61 144.142C204.065 144.562 203.681 145.011 203.459 145.489L201.55 144.807C201.891 144.011 202.346 143.392 202.914 142.949C203.488 142.5 204.113 142.187 204.789 142.011C205.471 141.83 206.141 141.739 206.8 141.739C207.221 141.739 207.704 141.79 208.249 141.892C208.8 141.989 209.332 142.19 209.843 142.497C210.36 142.804 210.789 143.267 211.13 143.886C211.471 144.506 211.641 145.335 211.641 146.375V155H209.63V153.227H209.528C209.391 153.511 209.164 153.815 208.846 154.139C208.528 154.463 208.104 154.739 207.576 154.966C207.047 155.193 206.403 155.307 205.641 155.307ZM205.948 153.5C206.743 153.5 207.414 153.344 207.959 153.031C208.511 152.719 208.925 152.315 209.204 151.821C209.488 151.327 209.63 150.807 209.63 150.261V148.42C209.545 148.523 209.357 148.616 209.067 148.702C208.783 148.781 208.454 148.852 208.079 148.915C207.709 148.972 207.349 149.023 206.996 149.068C206.65 149.108 206.368 149.142 206.153 149.17C205.63 149.239 205.141 149.349 204.687 149.503C204.238 149.651 203.874 149.875 203.596 150.176C203.323 150.472 203.187 150.875 203.187 151.386C203.187 152.085 203.445 152.614 203.962 152.972C204.485 153.324 205.147 153.5 205.948 153.5ZM221.006 141.909V143.614H214.221V141.909H221.006ZM216.199 138.773H218.21V151.25C218.21 151.818 218.292 152.244 218.457 152.528C218.628 152.807 218.844 152.994 219.105 153.091C219.372 153.182 219.653 153.227 219.949 153.227C220.17 153.227 220.352 153.216 220.494 153.193C220.636 153.165 220.75 153.142 220.835 153.125L221.244 154.932C221.108 154.983 220.917 155.034 220.673 155.085C220.429 155.142 220.119 155.17 219.744 155.17C219.176 155.17 218.619 155.048 218.074 154.804C217.534 154.56 217.085 154.188 216.727 153.688C216.375 153.188 216.199 152.557 216.199 151.795V138.773ZM236.474 141.909V143.614H229.69V141.909H236.474ZM231.667 138.773H233.679V151.25C233.679 151.818 233.761 152.244 233.926 152.528C234.096 152.807 234.312 152.994 234.574 153.091C234.841 153.182 235.122 153.227 235.417 153.227C235.639 153.227 235.821 153.216 235.963 153.193C236.105 153.165 236.219 153.142 236.304 153.125L236.713 154.932C236.577 154.983 236.386 155.034 236.142 155.085C235.898 155.142 235.588 155.17 235.213 155.17C234.645 155.17 234.088 155.048 233.542 154.804C233.003 154.56 232.554 154.188 232.196 153.688C231.844 153.188 231.667 152.557 231.667 151.795V138.773ZM241.792 147.125V155H239.781V137.545H241.792V143.955H241.963C242.27 143.278 242.73 142.741 243.344 142.344C243.963 141.94 244.787 141.739 245.815 141.739C246.707 141.739 247.489 141.918 248.159 142.276C248.829 142.628 249.349 143.17 249.719 143.903C250.094 144.631 250.281 145.557 250.281 146.682V155H248.27V146.818C248.27 145.778 248 144.974 247.46 144.406C246.926 143.832 246.185 143.545 245.236 143.545C244.577 143.545 243.986 143.685 243.463 143.963C242.946 144.241 242.537 144.648 242.236 145.182C241.94 145.716 241.792 146.364 241.792 147.125ZM259.449 155.273C258.188 155.273 257.1 154.994 256.185 154.438C255.276 153.875 254.574 153.091 254.08 152.085C253.591 151.074 253.347 149.898 253.347 148.557C253.347 147.216 253.591 146.034 254.08 145.011C254.574 143.983 255.262 143.182 256.143 142.608C257.029 142.028 258.063 141.739 259.245 141.739C259.927 141.739 260.6 141.852 261.265 142.08C261.93 142.307 262.535 142.676 263.08 143.188C263.626 143.693 264.06 144.364 264.384 145.199C264.708 146.034 264.87 147.062 264.87 148.284V149.136H254.779V147.398H262.824C262.824 146.659 262.677 146 262.381 145.42C262.091 144.841 261.677 144.384 261.137 144.048C260.603 143.713 259.972 143.545 259.245 143.545C258.444 143.545 257.751 143.744 257.165 144.142C256.586 144.534 256.14 145.045 255.827 145.676C255.515 146.307 255.359 146.983 255.359 147.705V148.864C255.359 149.852 255.529 150.69 255.87 151.378C256.216 152.06 256.697 152.58 257.31 152.938C257.924 153.29 258.637 153.466 259.449 153.466C259.978 153.466 260.455 153.392 260.881 153.244C261.313 153.091 261.685 152.864 261.998 152.562C262.31 152.256 262.552 151.875 262.722 151.42L264.665 151.966C264.461 152.625 264.117 153.205 263.634 153.705C263.151 154.199 262.555 154.585 261.844 154.864C261.134 155.136 260.336 155.273 259.449 155.273ZM2.40613 199V185.909H4.41749V199H2.40613ZM3.42885 183.727C3.03681 183.727 2.69874 183.594 2.41465 183.327C2.13624 183.06 1.99703 182.739 1.99703 182.364C1.99703 181.989 2.13624 181.668 2.41465 181.401C2.69874 181.134 3.03681 181 3.42885 181C3.8209 181 4.15613 181.134 4.43453 181.401C4.71863 181.668 4.86067 181.989 4.86067 182.364C4.86067 182.739 4.71863 183.06 4.43453 183.327C4.15613 183.594 3.8209 183.727 3.42885 183.727ZM10.1128 191.125V199H8.10144V185.909H10.0446V187.955H10.2151C10.5219 187.29 10.9878 186.756 11.6128 186.352C12.2378 185.943 13.0446 185.739 14.0333 185.739C14.9196 185.739 15.6952 185.92 16.36 186.284C17.0247 186.642 17.5418 187.188 17.9111 187.92C18.2804 188.648 18.4651 189.568 18.4651 190.682V199H16.4537V190.818C16.4537 189.79 16.1867 188.989 15.6526 188.415C15.1185 187.835 14.3855 187.545 13.4537 187.545C12.8117 187.545 12.2378 187.685 11.7321 187.963C11.2321 188.241 10.8372 188.648 10.5475 189.182C10.2577 189.716 10.1128 190.364 10.1128 191.125ZM27.8337 185.909V187.614H21.0496V185.909H27.8337ZM23.0269 182.773H25.0382V195.25C25.0382 195.818 25.1206 196.244 25.2854 196.528C25.4558 196.807 25.6718 196.994 25.9331 197.091C26.2002 197.182 26.4814 197.227 26.7769 197.227C26.9985 197.227 27.1803 197.216 27.3223 197.193C27.4644 197.165 27.578 197.142 27.6632 197.125L28.0723 198.932C27.936 198.983 27.7456 199.034 27.5013 199.085C27.257 199.142 26.9473 199.17 26.5723 199.17C26.0041 199.17 25.4473 199.048 24.9019 198.804C24.3621 198.56 23.9132 198.188 23.5553 197.688C23.203 197.188 23.0269 196.557 23.0269 195.795V182.773ZM36.2073 199.273C34.9459 199.273 33.8578 198.994 32.9431 198.438C32.034 197.875 31.3323 197.091 30.8379 196.085C30.3493 195.074 30.105 193.898 30.105 192.557C30.105 191.216 30.3493 190.034 30.8379 189.011C31.3323 187.983 32.0198 187.182 32.9004 186.608C33.7868 186.028 34.8209 185.739 36.0027 185.739C36.6845 185.739 37.3578 185.852 38.0226 186.08C38.6874 186.307 39.2925 186.676 39.8379 187.188C40.3834 187.693 40.8181 188.364 41.1419 189.199C41.4658 190.034 41.6277 191.062 41.6277 192.284V193.136H31.5368V191.398H39.5823C39.5823 190.659 39.4345 190 39.1391 189.42C38.8493 188.841 38.4345 188.384 37.8948 188.048C37.3607 187.713 36.73 187.545 36.0027 187.545C35.2016 187.545 34.5084 187.744 33.9232 188.142C33.3436 188.534 32.8976 189.045 32.5851 189.676C32.2726 190.307 32.1164 190.983 32.1164 191.705V192.864C32.1164 193.852 32.2868 194.69 32.6277 195.378C32.9743 196.06 33.4544 196.58 34.0681 196.938C34.6817 197.29 35.3948 197.466 36.2073 197.466C36.7357 197.466 37.2129 197.392 37.6391 197.244C38.0709 197.091 38.4431 196.864 38.7556 196.562C39.0681 196.256 39.3095 195.875 39.48 195.42L41.4232 195.966C41.2186 196.625 40.8749 197.205 40.3919 197.705C39.909 198.199 39.3124 198.585 38.6021 198.864C37.8919 199.136 37.0936 199.273 36.2073 199.273ZM44.6874 199V185.909H46.6306V187.886H46.7669C47.0056 187.239 47.4374 186.713 48.0624 186.31C48.6874 185.906 49.3919 185.705 50.176 185.705C50.3237 185.705 50.5084 185.707 50.73 185.713C50.9516 185.719 51.1192 185.727 51.2328 185.739V187.784C51.1646 187.767 51.0084 187.741 50.7641 187.707C50.5254 187.668 50.2726 187.648 50.0056 187.648C49.3692 187.648 48.801 187.781 48.301 188.048C47.8067 188.31 47.4146 188.673 47.1249 189.139C46.8408 189.599 46.6987 190.125 46.6987 190.716V199H44.6874ZM62.8898 188.841L61.083 189.352C60.9693 189.051 60.8017 188.759 60.5801 188.474C60.3642 188.185 60.0688 187.946 59.6938 187.759C59.3188 187.571 58.8387 187.477 58.2534 187.477C57.4523 187.477 56.7847 187.662 56.2506 188.031C55.7222 188.395 55.458 188.858 55.458 189.42C55.458 189.92 55.6398 190.315 56.0034 190.605C56.3671 190.895 56.9352 191.136 57.708 191.33L59.6512 191.807C60.8216 192.091 61.6938 192.526 62.2676 193.111C62.8415 193.69 63.1284 194.437 63.1284 195.352C63.1284 196.102 62.9125 196.773 62.4807 197.364C62.0546 197.955 61.458 198.42 60.6909 198.761C59.9239 199.102 59.0318 199.273 58.0148 199.273C56.6796 199.273 55.5744 198.983 54.6994 198.403C53.8244 197.824 53.2705 196.977 53.0375 195.864L54.9466 195.386C55.1284 196.091 55.4722 196.619 55.9779 196.972C56.4892 197.324 57.1568 197.5 57.9807 197.5C58.9182 197.5 59.6625 197.301 60.2137 196.903C60.7705 196.5 61.0489 196.017 61.0489 195.455C61.0489 195 60.8898 194.619 60.5716 194.312C60.2534 194 59.7648 193.767 59.1057 193.614L56.9239 193.102C55.725 192.818 54.8443 192.378 54.2818 191.781C53.725 191.179 53.4466 190.426 53.4466 189.523C53.4466 188.784 53.654 188.131 54.0688 187.562C54.4892 186.994 55.0602 186.548 55.7818 186.224C56.5091 185.901 57.333 185.739 58.2534 185.739C59.5489 185.739 60.5659 186.023 61.3046 186.591C62.0489 187.159 62.5773 187.909 62.8898 188.841ZM71.6448 199.273C70.3834 199.273 69.2953 198.994 68.3806 198.438C67.4715 197.875 66.7698 197.091 66.2754 196.085C65.7868 195.074 65.5425 193.898 65.5425 192.557C65.5425 191.216 65.7868 190.034 66.2754 189.011C66.7698 187.983 67.4573 187.182 68.3379 186.608C69.2243 186.028 70.2584 185.739 71.4402 185.739C72.122 185.739 72.7953 185.852 73.4601 186.08C74.1249 186.307 74.73 186.676 75.2754 187.188C75.8209 187.693 76.2556 188.364 76.5794 189.199C76.9033 190.034 77.0652 191.062 77.0652 192.284V193.136H66.9743V191.398H75.0198C75.0198 190.659 74.872 190 74.5766 189.42C74.2868 188.841 73.872 188.384 73.3323 188.048C72.7982 187.713 72.1675 187.545 71.4402 187.545C70.6391 187.545 69.9459 187.744 69.3607 188.142C68.7811 188.534 68.3351 189.045 68.0226 189.676C67.7101 190.307 67.5539 190.983 67.5539 191.705V192.864C67.5539 193.852 67.7243 194.69 68.0652 195.378C68.4118 196.06 68.8919 196.58 69.5056 196.938C70.1192 197.29 70.8323 197.466 71.6448 197.466C72.1732 197.466 72.6504 197.392 73.0766 197.244C73.5084 197.091 73.8806 196.864 74.1931 196.562C74.5056 196.256 74.747 195.875 74.9175 195.42L76.8607 195.966C76.6561 196.625 76.3124 197.205 75.8294 197.705C75.3465 198.199 74.7499 198.585 74.0396 198.864C73.3294 199.136 72.5311 199.273 71.6448 199.273ZM85.4431 199.273C84.2158 199.273 83.159 198.983 82.2726 198.403C81.3862 197.824 80.7044 197.026 80.2271 196.009C79.7499 194.991 79.5112 193.83 79.5112 192.523C79.5112 191.193 79.7556 190.02 80.2442 189.003C80.7385 187.98 81.426 187.182 82.3067 186.608C83.1931 186.028 84.2271 185.739 85.409 185.739C86.3294 185.739 87.159 185.909 87.8976 186.25C88.6362 186.591 89.2414 187.068 89.7129 187.682C90.1845 188.295 90.4771 189.011 90.5908 189.83H88.5794C88.426 189.233 88.0851 188.705 87.5567 188.244C87.034 187.778 86.3294 187.545 85.4431 187.545C84.659 187.545 83.9715 187.75 83.3806 188.159C82.7953 188.562 82.3379 189.134 82.0084 189.872C81.6845 190.605 81.5226 191.466 81.5226 192.455C81.5226 193.466 81.6817 194.347 81.9999 195.097C82.3237 195.847 82.7783 196.429 83.3635 196.844C83.9544 197.259 84.6476 197.466 85.4431 197.466C85.9658 197.466 86.4402 197.375 86.8664 197.193C87.2925 197.011 87.6533 196.75 87.9487 196.409C88.2442 196.068 88.4544 195.659 88.5794 195.182H90.5908C90.4771 195.955 90.1959 196.651 89.747 197.27C89.3039 197.884 88.7158 198.372 87.9828 198.736C87.2556 199.094 86.409 199.273 85.4431 199.273ZM99.2243 185.909V187.614H92.4402V185.909H99.2243ZM94.4175 182.773H96.4289V195.25C96.4289 195.818 96.5112 196.244 96.676 196.528C96.8465 196.807 97.0624 196.994 97.3237 197.091C97.5908 197.182 97.872 197.227 98.1675 197.227C98.3891 197.227 98.5709 197.216 98.7129 197.193C98.855 197.165 98.9686 197.142 99.0539 197.125L99.4629 198.932C99.3266 198.983 99.1362 199.034 98.8919 199.085C98.6476 199.142 98.3379 199.17 97.9629 199.17C97.3948 199.17 96.8379 199.048 96.2925 198.804C95.7527 198.56 95.3039 198.188 94.9459 197.688C94.5936 197.188 94.4175 196.557 94.4175 195.795V182.773ZM102.25 199V185.909H104.261V199H102.25ZM103.273 183.727C102.881 183.727 102.542 183.594 102.258 183.327C101.98 183.06 101.841 182.739 101.841 182.364C101.841 181.989 101.98 181.668 102.258 181.401C102.542 181.134 102.881 181 103.273 181C103.665 181 104 181.134 104.278 181.401C104.562 181.668 104.704 181.989 104.704 182.364C104.704 182.739 104.562 183.06 104.278 183.327C104 183.594 103.665 183.727 103.273 183.727ZM113.263 199.273C112.082 199.273 111.045 198.991 110.153 198.429C109.266 197.866 108.573 197.08 108.073 196.068C107.579 195.057 107.332 193.875 107.332 192.523C107.332 191.159 107.579 189.969 108.073 188.952C108.573 187.935 109.266 187.145 110.153 186.582C111.045 186.02 112.082 185.739 113.263 185.739C114.445 185.739 115.479 186.02 116.366 186.582C117.258 187.145 117.951 187.935 118.445 188.952C118.945 189.969 119.195 191.159 119.195 192.523C119.195 193.875 118.945 195.057 118.445 196.068C117.951 197.08 117.258 197.866 116.366 198.429C115.479 198.991 114.445 199.273 113.263 199.273ZM113.263 197.466C114.161 197.466 114.9 197.236 115.479 196.776C116.059 196.315 116.488 195.71 116.766 194.96C117.045 194.21 117.184 193.398 117.184 192.523C117.184 191.648 117.045 190.832 116.766 190.077C116.488 189.321 116.059 188.71 115.479 188.244C114.9 187.778 114.161 187.545 113.263 187.545C112.366 187.545 111.627 187.778 111.047 188.244C110.468 188.71 110.039 189.321 109.761 190.077C109.482 190.832 109.343 191.648 109.343 192.523C109.343 193.398 109.482 194.21 109.761 194.96C110.039 195.71 110.468 196.315 111.047 196.776C111.627 197.236 112.366 197.466 113.263 197.466ZM124.277 191.125V199H122.266V185.909H124.209V187.955H124.379C124.686 187.29 125.152 186.756 125.777 186.352C126.402 185.943 127.209 185.739 128.197 185.739C129.084 185.739 129.859 185.92 130.524 186.284C131.189 186.642 131.706 187.188 132.075 187.92C132.444 188.648 132.629 189.568 132.629 190.682V199H130.618V190.818C130.618 189.79 130.351 188.989 129.817 188.415C129.283 187.835 128.55 187.545 127.618 187.545C126.976 187.545 126.402 187.685 125.896 187.963C125.396 188.241 125.001 188.648 124.712 189.182C124.422 189.716 124.277 190.364 124.277 191.125ZM148.373 199.273C147.191 199.273 146.154 198.991 145.262 198.429C144.376 197.866 143.682 197.08 143.182 196.068C142.688 195.057 142.441 193.875 142.441 192.523C142.441 191.159 142.688 189.969 143.182 188.952C143.682 187.935 144.376 187.145 145.262 186.582C146.154 186.02 147.191 185.739 148.373 185.739C149.555 185.739 150.589 186.02 151.475 186.582C152.367 187.145 153.06 187.935 153.555 188.952C154.055 189.969 154.305 191.159 154.305 192.523C154.305 193.875 154.055 195.057 153.555 196.068C153.06 197.08 152.367 197.866 151.475 198.429C150.589 198.991 149.555 199.273 148.373 199.273ZM148.373 197.466C149.27 197.466 150.009 197.236 150.589 196.776C151.168 196.315 151.597 195.71 151.876 194.96C152.154 194.21 152.293 193.398 152.293 192.523C152.293 191.648 152.154 190.832 151.876 190.077C151.597 189.321 151.168 188.71 150.589 188.244C150.009 187.778 149.27 187.545 148.373 187.545C147.475 187.545 146.736 187.778 146.157 188.244C145.577 188.71 145.148 189.321 144.87 190.077C144.591 190.832 144.452 191.648 144.452 192.523C144.452 193.398 144.591 194.21 144.87 194.96C145.148 195.71 145.577 196.315 146.157 196.776C146.736 197.236 147.475 197.466 148.373 197.466ZM163.204 185.909V187.614H156.148V185.909H163.204ZM158.261 199V184.102C158.261 183.352 158.437 182.727 158.79 182.227C159.142 181.727 159.599 181.352 160.162 181.102C160.724 180.852 161.318 180.727 161.943 180.727C162.437 180.727 162.841 180.767 163.153 180.847C163.466 180.926 163.699 181 163.852 181.068L163.273 182.807C163.17 182.773 163.028 182.73 162.846 182.679C162.67 182.628 162.437 182.602 162.148 182.602C161.483 182.602 161.003 182.77 160.707 183.105C160.417 183.44 160.273 183.932 160.273 184.58V199H158.261ZM178.603 185.909V187.614H171.546V185.909H178.603ZM173.66 199V184.102C173.66 183.352 173.836 182.727 174.188 182.227C174.54 181.727 174.998 181.352 175.56 181.102C176.123 180.852 176.716 180.727 177.341 180.727C177.836 180.727 178.239 180.767 178.552 180.847C178.864 180.926 179.097 181 179.251 181.068L178.671 182.807C178.569 182.773 178.427 182.73 178.245 182.679C178.069 182.628 177.836 182.602 177.546 182.602C176.881 182.602 176.401 182.77 176.106 183.105C175.816 183.44 175.671 183.932 175.671 184.58V199H173.66ZM181.422 199V185.909H183.433V199H181.422ZM182.444 183.727C182.052 183.727 181.714 183.594 181.43 183.327C181.152 183.06 181.013 182.739 181.013 182.364C181.013 181.989 181.152 181.668 181.43 181.401C181.714 181.134 182.052 181 182.444 181C182.837 181 183.172 181.134 183.45 181.401C183.734 181.668 183.876 181.989 183.876 182.364C183.876 182.739 183.734 183.06 183.45 183.327C183.172 183.594 182.837 183.727 182.444 183.727ZM190.969 199.307C190.14 199.307 189.387 199.151 188.711 198.838C188.035 198.52 187.498 198.062 187.1 197.466C186.702 196.864 186.503 196.136 186.503 195.284C186.503 194.534 186.651 193.926 186.947 193.46C187.242 192.989 187.637 192.619 188.131 192.352C188.626 192.085 189.171 191.886 189.768 191.756C190.37 191.619 190.975 191.511 191.583 191.432C192.378 191.33 193.023 191.253 193.518 191.202C194.018 191.145 194.381 191.051 194.609 190.92C194.841 190.79 194.958 190.562 194.958 190.239V190.17C194.958 189.33 194.728 188.676 194.268 188.21C193.813 187.744 193.123 187.511 192.197 187.511C191.236 187.511 190.484 187.722 189.938 188.142C189.393 188.562 189.009 189.011 188.788 189.489L186.878 188.807C187.219 188.011 187.674 187.392 188.242 186.949C188.816 186.5 189.441 186.187 190.117 186.011C190.799 185.83 191.469 185.739 192.128 185.739C192.549 185.739 193.032 185.79 193.577 185.892C194.128 185.989 194.66 186.19 195.171 186.497C195.688 186.804 196.117 187.267 196.458 187.886C196.799 188.506 196.969 189.335 196.969 190.375V199H194.958V197.227H194.856C194.719 197.511 194.492 197.815 194.174 198.139C193.856 198.463 193.432 198.739 192.904 198.966C192.376 199.193 191.731 199.307 190.969 199.307ZM191.276 197.5C192.072 197.5 192.742 197.344 193.288 197.031C193.839 196.719 194.253 196.315 194.532 195.821C194.816 195.327 194.958 194.807 194.958 194.261V192.42C194.873 192.523 194.685 192.616 194.395 192.702C194.111 192.781 193.782 192.852 193.407 192.915C193.038 192.972 192.677 193.023 192.324 193.068C191.978 193.108 191.697 193.142 191.481 193.17C190.958 193.239 190.469 193.349 190.015 193.503C189.566 193.651 189.202 193.875 188.924 194.176C188.651 194.472 188.515 194.875 188.515 195.386C188.515 196.085 188.773 196.614 189.29 196.972C189.813 197.324 190.475 197.5 191.276 197.5ZM206.334 185.909V187.614H199.55V185.909H206.334ZM201.527 182.773H203.538V195.25C203.538 195.818 203.621 196.244 203.785 196.528C203.956 196.807 204.172 196.994 204.433 197.091C204.7 197.182 204.981 197.227 205.277 197.227C205.498 197.227 205.68 197.216 205.822 197.193C205.964 197.165 206.078 197.142 206.163 197.125L206.572 198.932C206.436 198.983 206.246 199.034 206.001 199.085C205.757 199.142 205.447 199.17 205.072 199.17C204.504 199.17 203.947 199.048 203.402 198.804C202.862 198.56 202.413 198.188 202.055 197.688C201.703 197.188 201.527 196.557 201.527 195.795V182.773ZM219.962 199.307C219.132 199.307 218.379 199.151 217.703 198.838C217.027 198.52 216.49 198.062 216.092 197.466C215.694 196.864 215.496 196.136 215.496 195.284C215.496 194.534 215.643 193.926 215.939 193.46C216.234 192.989 216.629 192.619 217.123 192.352C217.618 192.085 218.163 191.886 218.76 191.756C219.362 191.619 219.967 191.511 220.575 191.432C221.371 191.33 222.016 191.253 222.51 191.202C223.01 191.145 223.373 191.051 223.601 190.92C223.834 190.79 223.95 190.562 223.95 190.239V190.17C223.95 189.33 223.72 188.676 223.26 188.21C222.805 187.744 222.115 187.511 221.189 187.511C220.229 187.511 219.476 187.722 218.93 188.142C218.385 188.562 218.001 189.011 217.78 189.489L215.871 188.807C216.212 188.011 216.666 187.392 217.234 186.949C217.808 186.5 218.433 186.187 219.109 186.011C219.791 185.83 220.462 185.739 221.121 185.739C221.541 185.739 222.024 185.79 222.569 185.892C223.121 185.989 223.652 186.19 224.163 186.497C224.68 186.804 225.109 187.267 225.45 187.886C225.791 188.506 225.962 189.335 225.962 190.375V199H223.95V197.227H223.848C223.712 197.511 223.484 197.815 223.166 198.139C222.848 198.463 222.425 198.739 221.896 198.966C221.368 199.193 220.723 199.307 219.962 199.307ZM220.268 197.5C221.064 197.5 221.734 197.344 222.28 197.031C222.831 196.719 223.246 196.315 223.524 195.821C223.808 195.327 223.95 194.807 223.95 194.261V192.42C223.865 192.523 223.677 192.616 223.388 192.702C223.104 192.781 222.774 192.852 222.399 192.915C222.03 192.972 221.669 193.023 221.317 193.068C220.97 193.108 220.689 193.142 220.473 193.17C219.95 193.239 219.462 193.349 219.007 193.503C218.558 193.651 218.194 193.875 217.916 194.176C217.643 194.472 217.507 194.875 217.507 195.386C217.507 196.085 217.766 196.614 218.283 196.972C218.805 197.324 219.467 197.5 220.268 197.5ZM231.644 191.125V199H229.633V185.909H231.576V187.955H231.746C232.053 187.29 232.519 186.756 233.144 186.352C233.769 185.943 234.576 185.739 235.565 185.739C236.451 185.739 237.226 185.92 237.891 186.284C238.556 186.642 239.073 187.188 239.442 187.92C239.812 188.648 239.996 189.568 239.996 190.682V199H237.985V190.818C237.985 189.79 237.718 188.989 237.184 188.415C236.65 187.835 235.917 187.545 234.985 187.545C234.343 187.545 233.769 187.685 233.263 187.963C232.763 188.241 232.368 188.648 232.079 189.182C231.789 189.716 231.644 190.364 231.644 191.125ZM248.615 199.273C247.524 199.273 246.561 198.997 245.726 198.446C244.891 197.889 244.237 197.105 243.766 196.094C243.294 195.077 243.058 193.875 243.058 192.489C243.058 191.114 243.294 189.92 243.766 188.909C244.237 187.898 244.893 187.116 245.734 186.565C246.575 186.014 247.547 185.739 248.649 185.739C249.501 185.739 250.175 185.881 250.669 186.165C251.169 186.443 251.55 186.761 251.811 187.119C252.078 187.472 252.285 187.761 252.433 187.989H252.604V181.545H254.615V199H252.672V196.989H252.433C252.285 197.227 252.075 197.528 251.802 197.892C251.53 198.25 251.141 198.571 250.635 198.855C250.129 199.134 249.456 199.273 248.615 199.273ZM248.888 197.466C249.694 197.466 250.376 197.256 250.933 196.835C251.49 196.409 251.913 195.821 252.203 195.071C252.493 194.315 252.638 193.443 252.638 192.455C252.638 191.477 252.496 190.622 252.212 189.889C251.927 189.151 251.507 188.577 250.95 188.168C250.393 187.753 249.706 187.545 248.888 187.545C248.035 187.545 247.325 187.764 246.757 188.202C246.194 188.634 245.771 189.222 245.487 189.966C245.209 190.705 245.069 191.534 245.069 192.455C245.069 193.386 245.212 194.233 245.496 194.994C245.785 195.75 246.212 196.352 246.774 196.801C247.342 197.244 248.047 197.466 248.888 197.466ZM7.72431 243.273C6.49703 243.273 5.44022 242.983 4.55385 242.403C3.66749 241.824 2.98567 241.026 2.5084 240.009C2.03113 238.991 1.79249 237.83 1.79249 236.523C1.79249 235.193 2.03681 234.02 2.52544 233.003C3.01976 231.98 3.70726 231.182 4.58794 230.608C5.47431 230.028 6.5084 229.739 7.69022 229.739C8.61067 229.739 9.44022 229.909 10.1789 230.25C10.9175 230.591 11.5226 231.068 11.9942 231.682C12.4658 232.295 12.7584 233.011 12.872 233.83H10.8607C10.7073 233.233 10.3664 232.705 9.83794 232.244C9.31522 231.778 8.61067 231.545 7.72431 231.545C6.94022 231.545 6.25272 231.75 5.66181 232.159C5.07658 232.562 4.61919 233.134 4.28965 233.872C3.96578 234.605 3.80385 235.466 3.80385 236.455C3.80385 237.466 3.96294 238.347 4.28113 239.097C4.60499 239.847 5.05953 240.429 5.64476 240.844C6.23567 241.259 6.92885 241.466 7.72431 241.466C8.24703 241.466 8.72147 241.375 9.1476 241.193C9.57374 241.011 9.93453 240.75 10.23 240.409C10.5254 240.068 10.7357 239.659 10.8607 239.182H12.872C12.7584 239.955 12.4771 240.651 12.0283 241.27C11.5851 241.884 10.997 242.372 10.2641 242.736C9.53681 243.094 8.69022 243.273 7.72431 243.273ZM15.8124 243V229.909H17.7556V231.886H17.8919C18.1306 231.239 18.5624 230.713 19.1874 230.31C19.8124 229.906 20.5169 229.705 21.301 229.705C21.4487 229.705 21.6334 229.707 21.855 229.713C22.0766 229.719 22.2442 229.727 22.3578 229.739V231.784C22.2896 231.767 22.1334 231.741 21.8891 231.707C21.6504 231.668 21.3976 231.648 21.1306 231.648C20.4942 231.648 19.926 231.781 19.426 232.048C18.9317 232.31 18.5396 232.673 18.2499 233.139C17.9658 233.599 17.8237 234.125 17.8237 234.716V243H15.8124ZM26.436 247.909C26.095 247.909 25.7911 247.881 25.524 247.824C25.257 247.773 25.0723 247.722 24.97 247.67L25.4814 245.898C25.97 246.023 26.4019 246.068 26.7769 246.034C27.1519 246 27.4843 245.832 27.774 245.531C28.0695 245.236 28.3394 244.756 28.5837 244.091L28.9587 243.068L24.1178 229.909H26.2996L29.9132 240.341H30.0496L33.6632 229.909H35.845L30.2882 244.909C30.0382 245.585 29.7286 246.145 29.3593 246.588C28.9899 247.037 28.561 247.369 28.0723 247.585C27.5894 247.801 27.0439 247.909 26.436 247.909ZM38.4999 247.909V229.909H40.4431V231.989H40.6817C40.8294 231.761 41.034 231.472 41.2953 231.119C41.5624 230.761 41.9431 230.443 42.4374 230.165C42.9374 229.881 43.6135 229.739 44.4658 229.739C45.5681 229.739 46.5396 230.014 47.3806 230.565C48.2215 231.116 48.8777 231.898 49.3493 232.909C49.8209 233.92 50.0567 235.114 50.0567 236.489C50.0567 237.875 49.8209 239.077 49.3493 240.094C48.8777 241.105 48.2243 241.889 47.3891 242.446C46.5539 242.997 45.5908 243.273 44.4999 243.273C43.659 243.273 42.9857 243.134 42.48 242.855C41.9743 242.571 41.5851 242.25 41.3124 241.892C41.0396 241.528 40.8294 241.227 40.6817 240.989H40.5112V247.909H38.4999ZM40.4771 236.455C40.4771 237.443 40.622 238.315 40.9118 239.071C41.2016 239.821 41.6249 240.409 42.1817 240.835C42.7385 241.256 43.4203 241.466 44.2271 241.466C45.0681 241.466 45.7698 241.244 46.3323 240.801C46.9004 240.352 47.3266 239.75 47.6107 238.994C47.9004 238.233 48.0453 237.386 48.0453 236.455C48.0453 235.534 47.9033 234.705 47.6192 233.966C47.3408 233.222 46.9175 232.634 46.3493 232.202C45.7868 231.764 45.0794 231.545 44.2271 231.545C43.409 231.545 42.7215 231.753 42.1646 232.168C41.6078 232.577 41.1874 233.151 40.9033 233.889C40.6192 234.622 40.4771 235.477 40.4771 236.455ZM58.8181 229.909V231.614H52.034V229.909H58.8181ZM54.0112 226.773H56.0226V239.25C56.0226 239.818 56.105 240.244 56.2698 240.528C56.4402 240.807 56.6561 240.994 56.9175 241.091C57.1845 241.182 57.4658 241.227 57.7612 241.227C57.9828 241.227 58.1646 241.216 58.3067 241.193C58.4487 241.165 58.5624 241.142 58.6476 241.125L59.0567 242.932C58.9203 242.983 58.73 243.034 58.4857 243.085C58.2414 243.142 57.9317 243.17 57.5567 243.17C56.9885 243.17 56.4317 243.048 55.8862 242.804C55.3465 242.56 54.8976 242.188 54.5396 241.688C54.1874 241.188 54.0112 240.557 54.0112 239.795V226.773ZM67.0212 243.273C65.8394 243.273 64.8024 242.991 63.9104 242.429C63.024 241.866 62.3308 241.08 61.8308 240.068C61.3365 239.057 61.0894 237.875 61.0894 236.523C61.0894 235.159 61.3365 233.969 61.8308 232.952C62.3308 231.935 63.024 231.145 63.9104 230.582C64.8024 230.02 65.8394 229.739 67.0212 229.739C68.203 229.739 69.2371 230.02 70.1235 230.582C71.0155 231.145 71.7087 231.935 72.203 232.952C72.703 233.969 72.953 235.159 72.953 236.523C72.953 237.875 72.703 239.057 72.203 240.068C71.7087 241.08 71.0155 241.866 70.1235 242.429C69.2371 242.991 68.203 243.273 67.0212 243.273ZM67.0212 241.466C67.9189 241.466 68.6575 241.236 69.2371 240.776C69.8166 240.315 70.2456 239.71 70.524 238.96C70.8024 238.21 70.9416 237.398 70.9416 236.523C70.9416 235.648 70.8024 234.832 70.524 234.077C70.2456 233.321 69.8166 232.71 69.2371 232.244C68.6575 231.778 67.9189 231.545 67.0212 231.545C66.1235 231.545 65.3848 231.778 64.8053 232.244C64.2257 232.71 63.7968 233.321 63.5183 234.077C63.2399 234.832 63.1007 235.648 63.1007 236.523C63.1007 237.398 63.2399 238.21 63.5183 238.96C63.7968 239.71 64.2257 240.315 64.8053 240.776C65.3848 241.236 66.1235 241.466 67.0212 241.466ZM77.4892 243.136C77.0688 243.136 76.708 242.986 76.4068 242.685C76.1057 242.384 75.9551 242.023 75.9551 241.602C75.9551 241.182 76.1057 240.821 76.4068 240.52C76.708 240.219 77.0688 240.068 77.4892 240.068C77.9097 240.068 78.2705 240.219 78.5716 240.52C78.8727 240.821 79.0233 241.182 79.0233 241.602C79.0233 241.881 78.9523 242.136 78.8102 242.369C78.6739 242.602 78.4892 242.79 78.2563 242.932C78.029 243.068 77.7733 243.136 77.4892 243.136Z" fill="black"/>
<rect x="7" y="14" width="350" height="44" fill="black" fill-opacity="0.94"/>
<rect x="31" y="48" width="240" height="58" fill="black" fill-opacity="0.96"/>
<rect x="9" y="100" width="324" height="55" fill="black" fill-opacity="0.9"/>
<rect x="4" y="177" width="329" height="59" fill="black" fill-opacity="0.95"/>
</svg>
