<svg width="700" height="135" viewBox="0 0 700 135" fill="none" xmlns="http://www.w3.org/2000/svg">
<path d="M38.8352 23.3125H31.3693C31.233 22.3466 30.9545 21.4886 30.5341 20.7386C30.1136 19.9773 29.5739 19.3295 28.9148 18.7955C28.2557 18.2614 27.4943 17.8523 26.6307 17.5682C25.7784 17.2841 24.8523 17.142 23.8523 17.142C22.0455 17.142 20.4716 17.5909 19.1307 18.4886C17.7898 19.375 16.75 20.6705 16.0114 22.375C15.2727 24.0682 14.9034 26.125 14.9034 28.5455C14.9034 31.0341 15.2727 33.125 16.0114 34.8182C16.7614 36.5114 17.8068 37.7898 19.1477 38.6534C20.4886 39.517 22.0398 39.9489 23.8011 39.9489C24.7898 39.9489 25.7045 39.8182 26.5455 39.5568C27.3977 39.2955 28.1534 38.9148 28.8125 38.4148C29.4716 37.9034 30.017 37.2841 30.4489 36.5568C30.892 35.8295 31.1989 35 31.3693 34.0682L38.8352 34.1023C38.642 35.7045 38.1591 37.25 37.3864 38.7386C36.625 40.2159 35.5966 41.5398 34.3011 42.7102C33.017 43.8693 31.483 44.7898 29.6989 45.4716C27.9261 46.142 25.9205 46.4773 23.6818 46.4773C20.5682 46.4773 17.7841 45.7727 15.3295 44.3636C12.8864 42.9545 10.9545 40.9148 9.53409 38.2443C8.125 35.5739 7.42045 32.3409 7.42045 28.5455C7.42045 24.7386 8.13636 21.5 9.56818 18.8295C11 16.1591 12.9432 14.125 15.3977 12.7273C17.8523 11.3182 20.6136 10.6136 23.6818 10.6136C25.7045 10.6136 27.5795 10.8977 29.3068 11.4659C31.0455 12.0341 32.5852 12.8636 33.9261 13.9545C35.267 15.0341 36.358 16.358 37.1989 17.9261C38.0511 19.4943 38.5966 21.2898 38.8352 23.3125ZM55.821 46.5114C53.1733 46.5114 50.8835 45.9489 48.9517 44.8239C47.0313 43.6875 45.5483 42.108 44.5028 40.0852C43.4574 38.0511 42.9347 35.6932 42.9347 33.0114C42.9347 30.3068 43.4574 27.9432 44.5028 25.9205C45.5483 23.8864 47.0313 22.3068 48.9517 21.1818C50.8835 20.0455 53.1733 19.4773 55.821 19.4773C58.4688 19.4773 60.7528 20.0455 62.6733 21.1818C64.6051 22.3068 66.0938 23.8864 67.1392 25.9205C68.1847 27.9432 68.7074 30.3068 68.7074 33.0114C68.7074 35.6932 68.1847 38.0511 67.1392 40.0852C66.0938 42.108 64.6051 43.6875 62.6733 44.8239C60.7528 45.9489 58.4688 46.5114 55.821 46.5114ZM55.8551 40.8864C57.0597 40.8864 58.0653 40.5455 58.8722 39.8636C59.679 39.1705 60.2869 38.2273 60.696 37.0341C61.1165 35.8409 61.3267 34.483 61.3267 32.9602C61.3267 31.4375 61.1165 30.0795 60.696 28.8864C60.2869 27.6932 59.679 26.75 58.8722 26.0568C58.0653 25.3636 57.0597 25.017 55.8551 25.017C54.6392 25.017 53.6165 25.3636 52.7869 26.0568C51.9688 26.75 51.3494 27.6932 50.929 28.8864C50.5199 30.0795 50.3153 31.4375 50.3153 32.9602C50.3153 34.483 50.5199 35.8409 50.929 37.0341C51.3494 38.2273 51.9688 39.1705 52.7869 39.8636C53.6165 40.5455 54.6392 40.8864 55.8551 40.8864ZM80.6903 30.8636V46H73.429V19.8182H80.3494V24.4375H80.6562C81.2358 22.9148 82.2074 21.7102 83.571 20.8239C84.9347 19.9261 86.5881 19.4773 88.5312 19.4773C90.3494 19.4773 91.9347 19.875 93.2869 20.6705C94.6392 21.4659 95.6903 22.6023 96.4403 24.0795C97.1903 25.5455 97.5653 27.2955 97.5653 29.3295V46H90.304V30.625C90.3153 29.0227 89.9063 27.7727 89.0767 26.875C88.2472 25.9659 87.1051 25.5114 85.6506 25.5114C84.6733 25.5114 83.8097 25.7216 83.0597 26.142C82.321 26.5625 81.7415 27.1761 81.321 27.983C80.9119 28.7784 80.7017 29.7386 80.6903 30.8636ZM125.072 27.2841L118.425 27.6932C118.311 27.125 118.067 26.6136 117.692 26.1591C117.317 25.6932 116.822 25.3239 116.209 25.0511C115.607 24.767 114.885 24.625 114.044 24.625C112.919 24.625 111.97 24.8636 111.197 25.3409C110.425 25.8068 110.038 26.4318 110.038 27.2159C110.038 27.8409 110.288 28.3693 110.788 28.8011C111.288 29.233 112.146 29.5795 113.362 29.8409L118.101 30.7955C120.646 31.3182 122.544 32.1591 123.794 33.3182C125.044 34.4773 125.669 36 125.669 37.8864C125.669 39.6023 125.163 41.108 124.152 42.4034C123.152 43.6989 121.777 44.7102 120.027 45.4375C118.288 46.1534 116.283 46.5114 114.01 46.5114C110.544 46.5114 107.783 45.7898 105.726 44.3466C103.68 42.892 102.482 40.9148 102.129 38.4148L109.271 38.0398C109.487 39.0966 110.01 39.9034 110.839 40.4602C111.669 41.0057 112.732 41.2784 114.027 41.2784C115.3 41.2784 116.322 41.0341 117.095 40.5455C117.879 40.0455 118.277 39.4034 118.288 38.6193C118.277 37.9602 117.999 37.4205 117.453 37C116.908 36.5682 116.067 36.2386 114.93 36.0114L110.396 35.108C107.839 34.5966 105.936 33.7102 104.686 32.4489C103.447 31.1875 102.828 29.5795 102.828 27.625C102.828 25.9432 103.283 24.4943 104.192 23.2784C105.112 22.0625 106.402 21.125 108.061 20.4659C109.732 19.8068 111.686 19.4773 113.925 19.4773C117.232 19.4773 119.834 20.1761 121.732 21.5739C123.641 22.9716 124.754 24.875 125.072 27.2841ZM147.031 34.8523V19.8182H154.293V46H147.321V41.2443H147.048C146.457 42.7784 145.474 44.0114 144.099 44.9432C142.736 45.875 141.071 46.3409 139.105 46.3409C137.355 46.3409 135.815 45.9432 134.486 45.1477C133.156 44.3523 132.116 43.2216 131.366 41.7557C130.628 40.2898 130.253 38.5341 130.241 36.4886V19.8182H137.503V35.1932C137.514 36.7386 137.929 37.9602 138.747 38.858C139.565 39.7557 140.662 40.2045 142.037 40.2045C142.912 40.2045 143.73 40.0057 144.491 39.608C145.253 39.1989 145.866 38.5966 146.332 37.8011C146.81 37.0057 147.043 36.0227 147.031 34.8523ZM160.101 46V19.8182H167.021V24.4375H167.328C167.874 22.9034 168.783 21.6932 170.055 20.8068C171.328 19.9205 172.851 19.4773 174.624 19.4773C176.419 19.4773 177.947 19.9261 179.209 20.8239C180.47 21.7102 181.311 22.9148 181.732 24.4375H182.004C182.538 22.9375 183.504 21.7386 184.902 20.8409C186.311 19.9318 187.976 19.4773 189.896 19.4773C192.339 19.4773 194.322 20.2557 195.845 21.8125C197.379 23.358 198.146 25.5511 198.146 28.392V46H190.902V29.8239C190.902 28.3693 190.516 27.2784 189.743 26.5511C188.97 25.8239 188.004 25.4602 186.845 25.4602C185.527 25.4602 184.499 25.8807 183.76 26.7216C183.021 27.5511 182.652 28.6477 182.652 30.0114V46H175.612V29.6705C175.612 28.3864 175.243 27.3636 174.504 26.6023C173.777 25.8409 172.817 25.4602 171.624 25.4602C170.817 25.4602 170.089 25.6648 169.442 26.0739C168.805 26.4716 168.3 27.0341 167.925 27.7614C167.55 28.4773 167.362 29.3182 167.362 30.2841V46H160.101ZM215.814 46.5114C213.121 46.5114 210.803 45.9659 208.859 44.875C206.928 43.7727 205.439 42.2159 204.393 40.2045C203.348 38.1818 202.825 35.7898 202.825 33.0284C202.825 30.3352 203.348 27.9716 204.393 25.9375C205.439 23.9034 206.911 22.3182 208.808 21.1818C210.717 20.0455 212.956 19.4773 215.524 19.4773C217.251 19.4773 218.859 19.7557 220.348 20.3125C221.848 20.858 223.155 21.6818 224.268 22.7841C225.393 23.8864 226.268 25.2727 226.893 26.9432C227.518 28.6023 227.831 30.5455 227.831 32.7727V34.767H205.723V30.267H220.996C220.996 29.2216 220.768 28.2955 220.314 27.4886C219.859 26.6818 219.229 26.0511 218.422 25.5966C217.626 25.1307 216.7 24.8977 215.643 24.8977C214.541 24.8977 213.564 25.1534 212.712 25.6648C211.871 26.1648 211.212 26.8409 210.734 27.6932C210.257 28.5341 210.013 29.4716 210.001 30.5057V34.7841C210.001 36.0795 210.24 37.1989 210.717 38.142C211.206 39.0852 211.893 39.8125 212.78 40.3239C213.666 40.8352 214.717 41.0909 215.933 41.0909C216.74 41.0909 217.479 40.9773 218.149 40.75C218.82 40.5227 219.393 40.1818 219.871 39.7273C220.348 39.2727 220.712 38.7159 220.962 38.0568L227.678 38.5C227.337 40.1136 226.638 41.5227 225.581 42.7273C224.536 43.9205 223.183 44.8523 221.524 45.5227C219.876 46.1818 217.973 46.5114 215.814 46.5114ZM232.57 46V19.8182H239.609V24.3864H239.882C240.359 22.7614 241.161 21.5341 242.286 20.7045C243.411 19.8636 244.706 19.4432 246.172 19.4432C246.536 19.4432 246.928 19.4659 247.348 19.5114C247.768 19.5568 248.138 19.6193 248.456 19.6989V26.142C248.115 26.0398 247.643 25.9489 247.041 25.8693C246.439 25.7898 245.888 25.75 245.388 25.75C244.32 25.75 243.365 25.983 242.524 26.4489C241.695 26.9034 241.036 27.5398 240.547 28.358C240.07 29.1761 239.831 30.1193 239.831 31.1875V46H232.57ZM277.399 19.8182V25.2727H261.24V19.8182H277.399ZM264.939 46V17.9261C264.939 16.0284 265.308 14.4545 266.047 13.2045C266.797 11.9545 267.82 11.017 269.115 10.392C270.411 9.76704 271.882 9.45454 273.53 9.45454C274.643 9.45454 275.661 9.53977 276.581 9.71023C277.513 9.88068 278.206 10.0341 278.661 10.1705L277.365 15.625C277.081 15.5341 276.729 15.4489 276.308 15.3693C275.899 15.2898 275.479 15.25 275.047 15.25C273.979 15.25 273.234 15.5 272.814 16C272.393 16.4886 272.183 17.1761 272.183 18.0625V46H264.939ZM281.835 46V19.8182H289.097V46H281.835ZM285.483 16.4432C284.403 16.4432 283.477 16.0852 282.705 15.3693C281.943 14.642 281.562 13.7727 281.562 12.7614C281.562 11.7614 281.943 10.9034 282.705 10.1875C283.477 9.46023 284.403 9.09659 285.483 9.09659C286.563 9.09659 287.483 9.46023 288.244 10.1875C289.017 10.9034 289.403 11.7614 289.403 12.7614C289.403 13.7727 289.017 14.642 288.244 15.3693C287.483 16.0852 286.563 16.4432 285.483 16.4432ZM302.175 30.8636V46H294.913V19.8182H301.834V24.4375H302.141C302.72 22.9148 303.692 21.7102 305.055 20.8239C306.419 19.9261 308.072 19.4773 310.016 19.4773C311.834 19.4773 313.419 19.875 314.771 20.6705C316.124 21.4659 317.175 22.6023 317.925 24.0795C318.675 25.5455 319.05 27.2955 319.05 29.3295V46H311.788V30.625C311.8 29.0227 311.391 27.7727 310.561 26.875C309.732 25.9659 308.589 25.5114 307.135 25.5114C306.158 25.5114 305.294 25.7216 304.544 26.142C303.805 26.5625 303.226 27.1761 302.805 27.983C302.396 28.7784 302.186 29.7386 302.175 30.8636ZM332.239 46.4943C330.568 46.4943 329.08 46.2045 327.773 45.625C326.466 45.0341 325.432 44.1648 324.67 43.017C323.92 41.858 323.545 40.4148 323.545 38.6875C323.545 37.233 323.813 36.0114 324.347 35.0227C324.881 34.0341 325.608 33.2386 326.528 32.6364C327.449 32.0341 328.494 31.5795 329.665 31.2727C330.847 30.9659 332.085 30.75 333.381 30.625C334.903 30.4659 336.131 30.3182 337.062 30.1818C337.994 30.0341 338.67 29.8182 339.091 29.5341C339.511 29.25 339.722 28.8295 339.722 28.2727V28.1705C339.722 27.0909 339.381 26.2557 338.699 25.6648C338.028 25.0739 337.074 24.7784 335.835 24.7784C334.528 24.7784 333.489 25.0682 332.716 25.6477C331.943 26.2159 331.432 26.9318 331.182 27.7955L324.466 27.25C324.807 25.6591 325.477 24.2841 326.477 23.125C327.477 21.9545 328.767 21.0568 330.347 20.4318C331.938 19.7955 333.778 19.4773 335.869 19.4773C337.324 19.4773 338.716 19.6477 340.045 19.9886C341.386 20.3295 342.574 20.858 343.608 21.5739C344.653 22.2898 345.477 23.2102 346.08 24.3352C346.682 25.4489 346.983 26.7841 346.983 28.3409V46H340.097V42.3693H339.892C339.472 43.1875 338.909 43.9091 338.205 44.5341C337.5 45.1477 336.653 45.6307 335.665 45.983C334.676 46.3239 333.534 46.4943 332.239 46.4943ZM334.318 41.483C335.386 41.483 336.33 41.2727 337.148 40.8523C337.966 40.4205 338.608 39.8409 339.074 39.1136C339.54 38.3864 339.773 37.5625 339.773 36.642V33.8636C339.545 34.0114 339.233 34.1477 338.835 34.2727C338.449 34.3864 338.011 34.4943 337.523 34.5966C337.034 34.6875 336.545 34.7727 336.057 34.8523C335.568 34.9205 335.125 34.983 334.727 35.0398C333.875 35.1648 333.131 35.3636 332.494 35.6364C331.858 35.9091 331.364 36.2784 331.011 36.7443C330.659 37.1989 330.483 37.767 330.483 38.4489C330.483 39.4375 330.841 40.1932 331.557 40.7159C332.284 41.2273 333.205 41.483 334.318 41.483ZM359.878 30.8636V46H352.616V19.8182H359.537V24.4375H359.844C360.423 22.9148 361.395 21.7102 362.759 20.8239C364.122 19.9261 365.776 19.4773 367.719 19.4773C369.537 19.4773 371.122 19.875 372.474 20.6705C373.827 21.4659 374.878 22.6023 375.628 24.0795C376.378 25.5455 376.753 27.2955 376.753 29.3295V46H369.491V30.625C369.503 29.0227 369.094 27.7727 368.264 26.875C367.435 25.9659 366.293 25.5114 364.838 25.5114C363.861 25.5114 362.997 25.7216 362.247 26.142C361.509 26.5625 360.929 27.1761 360.509 27.983C360.099 28.7784 359.889 29.7386 359.878 30.8636ZM394.305 46.5114C391.624 46.5114 389.317 45.9432 387.385 44.8068C385.464 43.6591 383.987 42.0682 382.953 40.0341C381.93 38 381.419 35.6591 381.419 33.0114C381.419 30.3295 381.936 27.9773 382.97 25.9545C384.016 23.9205 385.499 22.3352 387.419 21.1989C389.339 20.0511 391.624 19.4773 394.271 19.4773C396.555 19.4773 398.555 19.892 400.271 20.7216C401.987 21.5511 403.345 22.7159 404.345 24.2159C405.345 25.7159 405.896 27.4773 405.999 29.5H399.146C398.953 28.1932 398.442 27.142 397.612 26.3466C396.794 25.5398 395.72 25.1364 394.391 25.1364C393.266 25.1364 392.283 25.4432 391.442 26.0568C390.612 26.6591 389.964 27.5398 389.499 28.6989C389.033 29.858 388.8 31.2614 388.8 32.9091C388.8 34.5795 389.027 36 389.482 37.1705C389.947 38.3409 390.601 39.233 391.442 39.8466C392.283 40.4602 393.266 40.767 394.391 40.767C395.22 40.767 395.964 40.5966 396.624 40.2557C397.294 39.9148 397.845 39.4205 398.277 38.7727C398.72 38.1136 399.01 37.3239 399.146 36.4034H405.999C405.885 38.4034 405.339 40.1648 404.362 41.6875C403.396 43.1989 402.061 44.3807 400.357 45.233C398.652 46.0852 396.635 46.5114 394.305 46.5114ZM422.58 46.5114C419.886 46.5114 417.568 45.9659 415.625 44.875C413.693 43.7727 412.205 42.2159 411.159 40.2045C410.114 38.1818 409.591 35.7898 409.591 33.0284C409.591 30.3352 410.114 27.9716 411.159 25.9375C412.205 23.9034 413.676 22.3182 415.574 21.1818C417.483 20.0455 419.722 19.4773 422.29 19.4773C424.017 19.4773 425.625 19.7557 427.114 20.3125C428.614 20.858 429.92 21.6818 431.034 22.7841C432.159 23.8864 433.034 25.2727 433.659 26.9432C434.284 28.6023 434.597 30.5455 434.597 32.7727V34.767H412.489V30.267H427.761C427.761 29.2216 427.534 28.2955 427.08 27.4886C426.625 26.6818 425.994 26.0511 425.188 25.5966C424.392 25.1307 423.466 24.8977 422.409 24.8977C421.307 24.8977 420.33 25.1534 419.477 25.6648C418.636 26.1648 417.977 26.8409 417.5 27.6932C417.023 28.5341 416.778 29.4716 416.767 30.5057V34.7841C416.767 36.0795 417.006 37.1989 417.483 38.142C417.972 39.0852 418.659 39.8125 419.545 40.3239C420.432 40.8352 421.483 41.0909 422.699 41.0909C423.506 41.0909 424.244 40.9773 424.915 40.75C425.585 40.5227 426.159 40.1818 426.636 39.7273C427.114 39.2727 427.477 38.7159 427.727 38.0568L434.443 38.5C434.102 40.1136 433.403 41.5227 432.347 42.7273C431.301 43.9205 429.949 44.8523 428.29 45.5227C426.642 46.1818 424.739 46.5114 422.58 46.5114ZM472.229 27.2841L465.581 27.6932C465.467 27.125 465.223 26.6136 464.848 26.1591C464.473 25.6932 463.979 25.3239 463.365 25.0511C462.763 24.767 462.041 24.625 461.2 24.625C460.075 24.625 459.126 24.8636 458.354 25.3409C457.581 25.8068 457.195 26.4318 457.195 27.2159C457.195 27.8409 457.445 28.3693 457.945 28.8011C458.445 29.233 459.303 29.5795 460.518 29.8409L465.257 30.7955C467.803 31.3182 469.7 32.1591 470.95 33.3182C472.2 34.4773 472.825 36 472.825 37.8864C472.825 39.6023 472.32 41.108 471.308 42.4034C470.308 43.6989 468.933 44.7102 467.183 45.4375C465.445 46.1534 463.439 46.5114 461.166 46.5114C457.7 46.5114 454.939 45.7898 452.882 44.3466C450.837 42.892 449.638 40.9148 449.286 38.4148L456.428 38.0398C456.643 39.0966 457.166 39.9034 457.996 40.4602C458.825 41.0057 459.888 41.2784 461.183 41.2784C462.456 41.2784 463.479 41.0341 464.251 40.5455C465.036 40.0455 465.433 39.4034 465.445 38.6193C465.433 37.9602 465.155 37.4205 464.609 37C464.064 36.5682 463.223 36.2386 462.087 36.0114L457.553 35.108C454.996 34.5966 453.092 33.7102 451.842 32.4489C450.604 31.1875 449.984 29.5795 449.984 27.625C449.984 25.9432 450.439 24.4943 451.348 23.2784C452.268 22.0625 453.558 21.125 455.217 20.4659C456.888 19.8068 458.842 19.4773 461.081 19.4773C464.388 19.4773 466.99 20.1761 468.888 21.5739C470.797 22.9716 471.911 24.875 472.229 27.2841ZM489.227 46.5114C486.58 46.5114 484.29 45.9489 482.358 44.8239C480.438 43.6875 478.955 42.108 477.909 40.0852C476.864 38.0511 476.341 35.6932 476.341 33.0114C476.341 30.3068 476.864 27.9432 477.909 25.9205C478.955 23.8864 480.438 22.3068 482.358 21.1818C484.29 20.0455 486.58 19.4773 489.227 19.4773C491.875 19.4773 494.159 20.0455 496.08 21.1818C498.011 22.3068 499.5 23.8864 500.545 25.9205C501.591 27.9432 502.114 30.3068 502.114 33.0114C502.114 35.6932 501.591 38.0511 500.545 40.0852C499.5 42.108 498.011 43.6875 496.08 44.8239C494.159 45.9489 491.875 46.5114 489.227 46.5114ZM489.261 40.8864C490.466 40.8864 491.472 40.5455 492.278 39.8636C493.085 39.1705 493.693 38.2273 494.102 37.0341C494.523 35.8409 494.733 34.483 494.733 32.9602C494.733 31.4375 494.523 30.0795 494.102 28.8864C493.693 27.6932 493.085 26.75 492.278 26.0568C491.472 25.3636 490.466 25.017 489.261 25.017C488.045 25.017 487.023 25.3636 486.193 26.0568C485.375 26.75 484.756 27.6932 484.335 28.8864C483.926 30.0795 483.722 31.4375 483.722 32.9602C483.722 34.483 483.926 35.8409 484.335 37.0341C484.756 38.2273 485.375 39.1705 486.193 39.8636C487.023 40.5455 488.045 40.8864 489.261 40.8864ZM514.097 11.0909V46H506.835V11.0909H514.097ZM536.703 34.8523V19.8182H543.964V46H536.993V41.2443H536.72C536.129 42.7784 535.146 44.0114 533.771 44.9432C532.408 45.875 530.743 46.3409 528.777 46.3409C527.027 46.3409 525.487 45.9432 524.158 45.1477C522.828 44.3523 521.788 43.2216 521.038 41.7557C520.3 40.2898 519.925 38.5341 519.913 36.4886V19.8182H527.175V35.1932C527.186 36.7386 527.601 37.9602 528.419 38.858C529.237 39.7557 530.334 40.2045 531.709 40.2045C532.584 40.2045 533.402 40.0057 534.163 39.608C534.925 39.1989 535.538 38.5966 536.004 37.8011C536.482 37.0057 536.714 36.0227 536.703 34.8523ZM563.699 19.8182V25.2727H547.932V19.8182H563.699ZM551.511 13.5455H558.773V37.9545C558.773 38.625 558.875 39.1477 559.08 39.5227C559.284 39.8864 559.568 40.142 559.932 40.2898C560.307 40.4375 560.739 40.5114 561.227 40.5114C561.568 40.5114 561.909 40.483 562.25 40.4261C562.591 40.358 562.852 40.3068 563.034 40.2727L564.176 45.6761C563.813 45.7898 563.301 45.9205 562.642 46.0682C561.983 46.2273 561.182 46.3239 560.239 46.358C558.489 46.4261 556.955 46.1932 555.636 45.6591C554.33 45.125 553.313 44.2955 552.585 43.1705C551.858 42.0455 551.5 40.625 551.511 38.9091V13.5455ZM568.429 46V19.8182H575.69V46H568.429ZM572.077 16.4432C570.997 16.4432 570.071 16.0852 569.298 15.3693C568.537 14.642 568.156 13.7727 568.156 12.7614C568.156 11.7614 568.537 10.9034 569.298 10.1875C570.071 9.46023 570.997 9.09659 572.077 9.09659C573.156 9.09659 574.077 9.46023 574.838 10.1875C575.611 10.9034 575.997 11.7614 575.997 12.7614C575.997 13.7727 575.611 14.642 574.838 15.3693C574.077 16.0852 573.156 16.4432 572.077 16.4432ZM593.337 46.5114C590.689 46.5114 588.399 45.9489 586.467 44.8239C584.547 43.6875 583.064 42.108 582.018 40.0852C580.973 38.0511 580.45 35.6932 580.45 33.0114C580.45 30.3068 580.973 27.9432 582.018 25.9205C583.064 23.8864 584.547 22.3068 586.467 21.1818C588.399 20.0455 590.689 19.4773 593.337 19.4773C595.984 19.4773 598.268 20.0455 600.189 21.1818C602.121 22.3068 603.609 23.8864 604.655 25.9205C605.7 27.9432 606.223 30.3068 606.223 33.0114C606.223 35.6932 605.7 38.0511 604.655 40.0852C603.609 42.108 602.121 43.6875 600.189 44.8239C598.268 45.9489 595.984 46.5114 593.337 46.5114ZM593.371 40.8864C594.575 40.8864 595.581 40.5455 596.388 39.8636C597.195 39.1705 597.803 38.2273 598.212 37.0341C598.632 35.8409 598.842 34.483 598.842 32.9602C598.842 31.4375 598.632 30.0795 598.212 28.8864C597.803 27.6932 597.195 26.75 596.388 26.0568C595.581 25.3636 594.575 25.017 593.371 25.017C592.155 25.017 591.132 25.3636 590.303 26.0568C589.484 26.75 588.865 27.6932 588.445 28.8864C588.036 30.0795 587.831 31.4375 587.831 32.9602C587.831 34.483 588.036 35.8409 588.445 37.0341C588.865 38.2273 589.484 39.1705 590.303 39.8636C591.132 40.5455 592.155 40.8864 593.371 40.8864ZM618.206 30.8636V46H610.945V19.8182H617.865V24.4375H618.172C618.751 22.9148 619.723 21.7102 621.087 20.8239C622.45 19.9261 624.104 19.4773 626.047 19.4773C627.865 19.4773 629.45 19.875 630.803 20.6705C632.155 21.4659 633.206 22.6023 633.956 24.0795C634.706 25.5455 635.081 27.2955 635.081 29.3295V46H627.82V30.625C627.831 29.0227 627.422 27.7727 626.592 26.875C625.763 25.9659 624.621 25.5114 623.166 25.5114C622.189 25.5114 621.325 25.7216 620.575 26.142C619.837 26.5625 619.257 27.1761 618.837 27.983C618.428 28.7784 618.217 29.7386 618.206 30.8636ZM662.588 27.2841L655.94 27.6932C655.827 27.125 655.582 26.6136 655.207 26.1591C654.832 25.6932 654.338 25.3239 653.724 25.0511C653.122 24.767 652.401 24.625 651.56 24.625C650.435 24.625 649.486 24.8636 648.713 25.3409C647.94 25.8068 647.554 26.4318 647.554 27.2159C647.554 27.8409 647.804 28.3693 648.304 28.8011C648.804 29.233 649.662 29.5795 650.878 29.8409L655.616 30.7955C658.162 31.3182 660.06 32.1591 661.31 33.3182C662.56 34.4773 663.185 36 663.185 37.8864C663.185 39.6023 662.679 41.108 661.668 42.4034C660.668 43.6989 659.293 44.7102 657.543 45.4375C655.804 46.1534 653.798 46.5114 651.526 46.5114C648.06 46.5114 645.298 45.7898 643.241 44.3466C641.196 42.892 639.997 40.9148 639.645 38.4148L646.787 38.0398C647.003 39.0966 647.526 39.9034 648.355 40.4602C649.185 41.0057 650.247 41.2784 651.543 41.2784C652.815 41.2784 653.838 41.0341 654.611 40.5455C655.395 40.0455 655.793 39.4034 655.804 38.6193C655.793 37.9602 655.514 37.4205 654.969 37C654.423 36.5682 653.582 36.2386 652.446 36.0114L647.912 35.108C645.355 34.5966 643.452 33.7102 642.202 32.4489C640.963 31.1875 640.344 29.5795 640.344 27.625C640.344 25.9432 640.798 24.4943 641.707 23.2784C642.628 22.0625 643.918 21.125 645.577 20.4659C647.247 19.8068 649.202 19.4773 651.44 19.4773C654.747 19.4773 657.349 20.1761 659.247 21.5739C661.156 22.9716 662.27 24.875 662.588 27.2841ZM21.9773 92.8182V98.2727H5.81818V92.8182H21.9773ZM9.51705 119V90.9261C9.51705 89.0284 9.88636 87.4545 10.625 86.2045C11.375 84.9545 12.3977 84.017 13.6932 83.392C14.9886 82.767 16.4602 82.4545 18.108 82.4545C19.2216 82.4545 20.2386 82.5398 21.1591 82.7102C22.0909 82.8807 22.7841 83.0341 23.2386 83.1705L21.9432 88.625C21.6591 88.5341 21.3068 88.4489 20.8864 88.3693C20.4773 88.2898 20.0568 88.25 19.625 88.25C18.5568 88.25 17.8125 88.5 17.392 89C16.9716 89.4886 16.7614 90.1761 16.7614 91.0625V119H9.51705ZM37.3054 119.511C34.6577 119.511 32.3679 118.949 30.4361 117.824C28.5156 116.687 27.0327 115.108 25.9872 113.085C24.9418 111.051 24.419 108.693 24.419 106.011C24.419 103.307 24.9418 100.943 25.9872 98.9205C27.0327 96.8864 28.5156 95.3068 30.4361 94.1818C32.3679 93.0455 34.6577 92.4773 37.3054 92.4773C39.9531 92.4773 42.2372 93.0455 44.1577 94.1818C46.0895 95.3068 47.5781 96.8864 48.6236 98.9205C49.669 100.943 50.1918 103.307 50.1918 106.011C50.1918 108.693 49.669 111.051 48.6236 113.085C47.5781 115.108 46.0895 116.687 44.1577 117.824C42.2372 118.949 39.9531 119.511 37.3054 119.511ZM37.3395 113.886C38.544 113.886 39.5497 113.545 40.3565 112.864C41.1634 112.17 41.7713 111.227 42.1804 110.034C42.6009 108.841 42.8111 107.483 42.8111 105.96C42.8111 104.438 42.6009 103.08 42.1804 101.886C41.7713 100.693 41.1634 99.75 40.3565 99.0568C39.5497 98.3636 38.544 98.017 37.3395 98.017C36.1236 98.017 35.1009 98.3636 34.2713 99.0568C33.4531 99.75 32.8338 100.693 32.4134 101.886C32.0043 103.08 31.7997 104.438 31.7997 105.96C31.7997 107.483 32.0043 108.841 32.4134 110.034C32.8338 111.227 33.4531 112.17 34.2713 112.864C35.1009 113.545 36.1236 113.886 37.3395 113.886ZM54.9134 119V92.8182H61.9531V97.3864H62.2259C62.7031 95.7614 63.5043 94.5341 64.6293 93.7045C65.7543 92.8636 67.0497 92.4432 68.5156 92.4432C68.8793 92.4432 69.2713 92.4659 69.6918 92.5114C70.1122 92.5568 70.4815 92.6193 70.7997 92.6989V99.142C70.4588 99.0398 69.9872 98.9489 69.3849 98.8693C68.7827 98.7898 68.2315 98.75 67.7315 98.75C66.6634 98.75 65.7088 98.983 64.8679 99.4489C64.0384 99.9034 63.3793 100.54 62.8906 101.358C62.4134 102.176 62.1747 103.119 62.1747 104.188V119H54.9134ZM93.1293 119.494C91.4588 119.494 89.9702 119.205 88.6634 118.625C87.3565 118.034 86.3224 117.165 85.5611 116.017C84.8111 114.858 84.4361 113.415 84.4361 111.688C84.4361 110.233 84.7031 109.011 85.2372 108.023C85.7713 107.034 86.4986 106.239 87.419 105.636C88.3395 105.034 89.3849 104.58 90.5554 104.273C91.7372 103.966 92.9759 103.75 94.2713 103.625C95.794 103.466 97.0213 103.318 97.9531 103.182C98.8849 103.034 99.5611 102.818 99.9815 102.534C100.402 102.25 100.612 101.83 100.612 101.273V101.17C100.612 100.091 100.271 99.2557 99.5895 98.6648C98.919 98.0739 97.9645 97.7784 96.7259 97.7784C95.419 97.7784 94.3793 98.0682 93.6065 98.6477C92.8338 99.2159 92.3224 99.9318 92.0724 100.795L85.3565 100.25C85.6974 98.6591 86.3679 97.2841 87.3679 96.125C88.3679 94.9545 89.6577 94.0568 91.2372 93.4318C92.8281 92.7955 94.669 92.4773 96.7599 92.4773C98.2145 92.4773 99.6065 92.6477 100.936 92.9886C102.277 93.3295 103.464 93.858 104.499 94.5739C105.544 95.2898 106.368 96.2102 106.97 97.3352C107.572 98.4489 107.874 99.7841 107.874 101.341V119H100.987V115.369H100.783C100.362 116.188 99.7997 116.909 99.0952 117.534C98.3906 118.148 97.544 118.631 96.5554 118.983C95.5668 119.324 94.4247 119.494 93.1293 119.494ZM95.2088 114.483C96.277 114.483 97.2202 114.273 98.0384 113.852C98.8565 113.42 99.4986 112.841 99.9645 112.114C100.43 111.386 100.663 110.562 100.663 109.642V106.864C100.436 107.011 100.124 107.148 99.7259 107.273C99.3395 107.386 98.902 107.494 98.4134 107.597C97.9247 107.687 97.4361 107.773 96.9474 107.852C96.4588 107.92 96.0156 107.983 95.6179 108.04C94.7656 108.165 94.0213 108.364 93.3849 108.636C92.7486 108.909 92.2543 109.278 91.902 109.744C91.5497 110.199 91.3736 110.767 91.3736 111.449C91.3736 112.438 91.7315 113.193 92.4474 113.716C93.1747 114.227 94.0952 114.483 95.2088 114.483ZM136.446 119.511C133.764 119.511 131.457 118.943 129.526 117.807C127.605 116.659 126.128 115.068 125.094 113.034C124.071 111 123.56 108.659 123.56 106.011C123.56 103.33 124.077 100.977 125.111 98.9545C126.156 96.9205 127.639 95.3352 129.56 94.1989C131.48 93.0511 133.764 92.4773 136.412 92.4773C138.696 92.4773 140.696 92.892 142.412 93.7216C144.128 94.5511 145.486 95.7159 146.486 97.2159C147.486 98.7159 148.037 100.477 148.139 102.5H141.287C141.094 101.193 140.582 100.142 139.753 99.3466C138.935 98.5398 137.861 98.1364 136.531 98.1364C135.406 98.1364 134.423 98.4432 133.582 99.0568C132.753 99.6591 132.105 100.54 131.639 101.699C131.173 102.858 130.94 104.261 130.94 105.909C130.94 107.58 131.168 109 131.622 110.17C132.088 111.341 132.741 112.233 133.582 112.847C134.423 113.46 135.406 113.767 136.531 113.767C137.361 113.767 138.105 113.597 138.764 113.256C139.435 112.915 139.986 112.42 140.418 111.773C140.861 111.114 141.151 110.324 141.287 109.403H148.139C148.026 111.403 147.48 113.165 146.503 114.688C145.537 116.199 144.202 117.381 142.497 118.233C140.793 119.085 138.776 119.511 136.446 119.511ZM160.05 103.864V119H152.788V84.0909H159.845V97.4375H160.152C160.743 95.892 161.697 94.6818 163.016 93.8068C164.334 92.9205 165.987 92.4773 167.976 92.4773C169.794 92.4773 171.379 92.875 172.732 93.6705C174.095 94.4545 175.152 95.5852 175.902 97.0625C176.663 98.5284 177.038 100.284 177.027 102.33V119H169.766V103.625C169.777 102.011 169.368 100.756 168.538 99.858C167.72 98.9602 166.572 98.5114 165.095 98.5114C164.107 98.5114 163.232 98.7216 162.47 99.142C161.72 99.5625 161.129 100.176 160.697 100.983C160.277 101.778 160.061 102.739 160.05 103.864ZM190.207 119.494C188.537 119.494 187.048 119.205 185.741 118.625C184.435 118.034 183.401 117.165 182.639 116.017C181.889 114.858 181.514 113.415 181.514 111.688C181.514 110.233 181.781 109.011 182.315 108.023C182.849 107.034 183.577 106.239 184.497 105.636C185.418 105.034 186.463 104.58 187.634 104.273C188.815 103.966 190.054 103.75 191.349 103.625C192.872 103.466 194.099 103.318 195.031 103.182C195.963 103.034 196.639 102.818 197.06 102.534C197.48 102.25 197.69 101.83 197.69 101.273V101.17C197.69 100.091 197.349 99.2557 196.668 98.6648C195.997 98.0739 195.043 97.7784 193.804 97.7784C192.497 97.7784 191.457 98.0682 190.685 98.6477C189.912 99.2159 189.401 99.9318 189.151 100.795L182.435 100.25C182.776 98.6591 183.446 97.2841 184.446 96.125C185.446 94.9545 186.736 94.0568 188.315 93.4318C189.906 92.7955 191.747 92.4773 193.838 92.4773C195.293 92.4773 196.685 92.6477 198.014 92.9886C199.355 93.3295 200.543 93.858 201.577 94.5739C202.622 95.2898 203.446 96.2102 204.048 97.3352C204.651 98.4489 204.952 99.7841 204.952 101.341V119H198.065V115.369H197.861C197.44 116.188 196.878 116.909 196.173 117.534C195.469 118.148 194.622 118.631 193.634 118.983C192.645 119.324 191.503 119.494 190.207 119.494ZM192.287 114.483C193.355 114.483 194.298 114.273 195.116 113.852C195.935 113.42 196.577 112.841 197.043 112.114C197.509 111.386 197.741 110.562 197.741 109.642V106.864C197.514 107.011 197.202 107.148 196.804 107.273C196.418 107.386 195.98 107.494 195.491 107.597C195.003 107.687 194.514 107.773 194.026 107.852C193.537 107.92 193.094 107.983 192.696 108.04C191.844 108.165 191.099 108.364 190.463 108.636C189.827 108.909 189.332 109.278 188.98 109.744C188.628 110.199 188.452 110.767 188.452 111.449C188.452 112.438 188.81 113.193 189.526 113.716C190.253 114.227 191.173 114.483 192.287 114.483ZM217.847 103.864V119H210.585V92.8182H217.506V97.4375H217.812C218.392 95.9148 219.364 94.7102 220.727 93.8239C222.091 92.9261 223.744 92.4773 225.688 92.4773C227.506 92.4773 229.091 92.875 230.443 93.6705C231.795 94.4659 232.847 95.6023 233.597 97.0795C234.347 98.5455 234.722 100.295 234.722 102.33V119H227.46V103.625C227.472 102.023 227.063 100.773 226.233 99.875C225.403 98.9659 224.261 98.5114 222.807 98.5114C221.83 98.5114 220.966 98.7216 220.216 99.142C219.477 99.5625 218.898 100.176 218.477 100.983C218.068 101.778 217.858 102.739 217.847 103.864ZM252.24 129.364C249.888 129.364 247.871 129.04 246.189 128.392C244.518 127.756 243.189 126.886 242.2 125.784C241.212 124.682 240.57 123.443 240.274 122.068L246.99 121.165C247.195 121.688 247.518 122.176 247.962 122.631C248.405 123.085 248.99 123.449 249.717 123.722C250.456 124.006 251.354 124.148 252.411 124.148C253.99 124.148 255.291 123.761 256.314 122.989C257.348 122.227 257.865 120.949 257.865 119.153V114.364H257.558C257.24 115.091 256.763 115.778 256.126 116.426C255.49 117.074 254.672 117.602 253.672 118.011C252.672 118.42 251.479 118.625 250.092 118.625C248.126 118.625 246.337 118.17 244.723 117.261C243.121 116.341 241.842 114.937 240.888 113.051C239.945 111.153 239.473 108.756 239.473 105.858C239.473 102.892 239.956 100.415 240.922 98.4261C241.888 96.4375 243.172 94.9489 244.774 93.9602C246.388 92.9716 248.155 92.4773 250.075 92.4773C251.541 92.4773 252.768 92.7273 253.757 93.2273C254.746 93.7159 255.541 94.3295 256.143 95.0682C256.757 95.7955 257.229 96.5114 257.558 97.2159H257.831V92.8182H265.041V119.256C265.041 121.483 264.496 123.347 263.405 124.847C262.314 126.347 260.803 127.472 258.871 128.222C256.95 128.983 254.74 129.364 252.24 129.364ZM252.393 113.17C253.564 113.17 254.553 112.881 255.359 112.301C256.178 111.71 256.803 110.869 257.234 109.778C257.678 108.676 257.899 107.358 257.899 105.824C257.899 104.29 257.683 102.96 257.251 101.835C256.82 100.699 256.195 99.8182 255.376 99.1932C254.558 98.5682 253.564 98.2557 252.393 98.2557C251.2 98.2557 250.195 98.5795 249.376 99.2273C248.558 99.8636 247.939 100.75 247.518 101.886C247.098 103.023 246.888 104.335 246.888 105.824C246.888 107.335 247.098 108.642 247.518 109.744C247.95 110.835 248.57 111.682 249.376 112.284C250.195 112.875 251.2 113.17 252.393 113.17ZM270.82 119V92.8182H278.081V119H270.82ZM274.467 89.4432C273.388 89.4432 272.462 89.0852 271.689 88.3693C270.928 87.642 270.547 86.7727 270.547 85.7614C270.547 84.7614 270.928 83.9034 271.689 83.1875C272.462 82.4602 273.388 82.0966 274.467 82.0966C275.547 82.0966 276.467 82.4602 277.229 83.1875C278.001 83.9034 278.388 84.7614 278.388 85.7614C278.388 86.7727 278.001 87.642 277.229 88.3693C276.467 89.0852 275.547 89.4432 274.467 89.4432ZM291.159 103.864V119H283.898V92.8182H290.818V97.4375H291.125C291.705 95.9148 292.676 94.7102 294.04 93.8239C295.403 92.9261 297.057 92.4773 299 92.4773C300.818 92.4773 302.403 92.875 303.756 93.6705C305.108 94.4659 306.159 95.6023 306.909 97.0795C307.659 98.5455 308.034 100.295 308.034 102.33V119H300.773V103.625C300.784 102.023 300.375 100.773 299.545 99.875C298.716 98.9659 297.574 98.5114 296.119 98.5114C295.142 98.5114 294.278 98.7216 293.528 99.142C292.79 99.5625 292.21 100.176 291.79 100.983C291.381 101.778 291.17 102.739 291.159 103.864ZM325.553 129.364C323.2 129.364 321.183 129.04 319.501 128.392C317.831 127.756 316.501 126.886 315.513 125.784C314.524 124.682 313.882 123.443 313.587 122.068L320.303 121.165C320.507 121.688 320.831 122.176 321.274 122.631C321.717 123.085 322.303 123.449 323.03 123.722C323.768 124.006 324.666 124.148 325.723 124.148C327.303 124.148 328.604 123.761 329.626 122.989C330.661 122.227 331.178 120.949 331.178 119.153V114.364H330.871C330.553 115.091 330.075 115.778 329.439 116.426C328.803 117.074 327.984 117.602 326.984 118.011C325.984 118.42 324.791 118.625 323.405 118.625C321.439 118.625 319.649 118.17 318.036 117.261C316.433 116.341 315.155 114.937 314.2 113.051C313.257 111.153 312.786 108.756 312.786 105.858C312.786 102.892 313.268 100.415 314.234 98.4261C315.2 96.4375 316.484 94.9489 318.087 93.9602C319.7 92.9716 321.467 92.4773 323.388 92.4773C324.854 92.4773 326.081 92.7273 327.07 93.2273C328.058 93.7159 328.854 94.3295 329.456 95.0682C330.07 95.7955 330.541 96.5114 330.871 97.2159H331.143V92.8182H338.354V119.256C338.354 121.483 337.808 123.347 336.717 124.847C335.626 126.347 334.115 127.472 332.183 128.222C330.263 128.983 328.053 129.364 325.553 129.364ZM325.706 113.17C326.876 113.17 327.865 112.881 328.672 112.301C329.49 111.71 330.115 110.869 330.547 109.778C330.99 108.676 331.212 107.358 331.212 105.824C331.212 104.29 330.996 102.96 330.564 101.835C330.132 100.699 329.507 99.8182 328.689 99.1932C327.871 98.5682 326.876 98.2557 325.706 98.2557C324.513 98.2557 323.507 98.5795 322.689 99.2273C321.871 99.8636 321.251 100.75 320.831 101.886C320.411 103.023 320.2 104.335 320.2 105.824C320.2 107.335 320.411 108.642 320.831 109.744C321.263 110.835 321.882 111.682 322.689 112.284C323.507 112.875 324.513 113.17 325.706 113.17ZM360.406 119L353.281 92.8182H360.628L364.685 110.409H364.923L369.151 92.8182H376.361L380.656 110.307H380.878L384.866 92.8182H392.196L385.088 119H377.401L372.901 102.534H372.577L368.077 119H360.406ZM407.345 119.511C404.652 119.511 402.334 118.966 400.391 117.875C398.459 116.773 396.97 115.216 395.925 113.205C394.879 111.182 394.357 108.79 394.357 106.028C394.357 103.335 394.879 100.972 395.925 98.9375C396.97 96.9034 398.442 95.3182 400.339 94.1818C402.249 93.0455 404.487 92.4773 407.055 92.4773C408.783 92.4773 410.391 92.7557 411.879 93.3125C413.379 93.858 414.686 94.6818 415.8 95.7841C416.925 96.8864 417.8 98.2727 418.425 99.9432C419.05 101.602 419.362 103.545 419.362 105.773V107.767H397.254V103.267H412.527C412.527 102.222 412.3 101.295 411.845 100.489C411.391 99.6818 410.76 99.0511 409.953 98.5966C409.158 98.1307 408.232 97.8977 407.175 97.8977C406.072 97.8977 405.095 98.1534 404.243 98.6648C403.402 99.1648 402.743 99.8409 402.266 100.693C401.788 101.534 401.544 102.472 401.533 103.506V107.784C401.533 109.08 401.771 110.199 402.249 111.142C402.737 112.085 403.425 112.812 404.311 113.324C405.197 113.835 406.249 114.091 407.464 114.091C408.271 114.091 409.01 113.977 409.68 113.75C410.351 113.523 410.925 113.182 411.402 112.727C411.879 112.273 412.243 111.716 412.493 111.057L419.209 111.5C418.868 113.114 418.169 114.523 417.112 115.727C416.067 116.92 414.714 117.852 413.055 118.523C411.408 119.182 409.504 119.511 407.345 119.511ZM424.237 119V84.0909H431.499V97.2159H431.72C432.038 96.5114 432.499 95.7955 433.101 95.0682C433.714 94.3295 434.51 93.7159 435.487 93.2273C436.476 92.7273 437.703 92.4773 439.169 92.4773C441.078 92.4773 442.839 92.9773 444.453 93.9773C446.067 94.9659 447.357 96.4602 448.322 98.4602C449.288 100.449 449.771 102.943 449.771 105.943C449.771 108.864 449.3 111.33 448.357 113.341C447.425 115.341 446.152 116.858 444.538 117.892C442.936 118.915 441.141 119.426 439.152 119.426C437.743 119.426 436.544 119.193 435.555 118.727C434.578 118.261 433.777 117.676 433.152 116.972C432.527 116.256 432.05 115.534 431.72 114.807H431.396V119H424.237ZM431.345 105.909C431.345 107.466 431.561 108.824 431.993 109.983C432.425 111.142 433.05 112.045 433.868 112.693C434.686 113.33 435.68 113.648 436.851 113.648C438.033 113.648 439.033 113.324 439.851 112.676C440.669 112.017 441.288 111.108 441.709 109.949C442.141 108.778 442.357 107.432 442.357 105.909C442.357 104.398 442.146 103.068 441.726 101.92C441.305 100.773 440.686 99.875 439.868 99.2273C439.05 98.5795 438.044 98.2557 436.851 98.2557C435.669 98.2557 434.669 98.5682 433.851 99.1932C433.044 99.8182 432.425 100.705 431.993 101.852C431.561 103 431.345 104.352 431.345 105.909Z" fill="black"/>
<rect y="33" width="603" height="77" fill="black" fill-opacity="0.94"/>
</svg>
