<svg xmlns="http://www.w3.org/2000/svg" viewBox="55.465 50 464.0708426963141 474.9919984741211"> <g transform="rotate(0 287.50042134815703 238.3436842982312)"><svg xmlns="http://www.w3.org/2000/svg" viewBox="-0.00016009912360459566 0.0007373737171292305 157.3105926513672 114.89288330078125" height="236.68736859646245" width="324.0708426963141" y="120" x="125.465" preserveAspectRatio="xMinYMin" style="overflow: visible;"><path class="a" d="M156.86283,54.31765,128.6574,37.29637l-8.37274-10.40376a.93011.93011,0,0,0-.61491-.34l-15.49757-1.805c-.028-.00181-.05471.00723-.08229.00723a.90549.90549,0,0,0-.13067.01176,56.7283,56.7283,0,0,0-.36216.10218L94.50723,30.196,80.896,33.8592,40.36792,4.89869c-.0113-.00814-.02622-.00723-.038-.01447a.91226.91226,0,0,0-.38793-.15011l-.01447-.00181-.01176-.0018L1.02808.00111A.8471.8471,0,0,0,.93223.00653C.91912.00653.906.00382.89289.00382.878.00472.86305-.0007.84813.00111.812.00382.7785.012.74233.01829A.9082.9082,0,0,0,.58589.06622C.56735.07255.54836.07707.53073.0843.49817.09967.46924.11685.43849.13494A.90984.90984,0,0,0,.31913.22266a.86854.86854,0,0,0-.06963.066C.23684.30223.21966.30856.2079.323.1975.33569.19479.35106.18529.36372A.85359.85359,0,0,0,.11838.465C.10933.48038.09486.49123.08673.5075.07587.52921.07587.55362.06683.57623a.88411.88411,0,0,0-.038.10851C.02433.70283.01258.71549.009.73357.00625.74714.01077.7607.00851.77427a.91378.91378,0,0,0-.00814.1266.835.835,0,0,0,.005.12569c.00317.02713.00271.05426.00859.08139a.89085.89085,0,0,0,.03889.11394.9104.9104,0,0,0,.05018.123c.01176.02261.01854.04521.03165.066a.83331.83331,0,0,0,.08681.10038A.88523.88523,0,0,0,.27663,1.589L57.60081,56.31611l-6.14188,8.56354a.91565.91565,0,0,0-.13971.30746c-.00136.00542-.00633.009-.00769.01446l-.00136.00543-.00045.00271-2.79694,11.5956c-.00542.02261.00317.04431-.00045.06691a.82291.82291,0,0,0-.024.09586l-1.43691,24.24377v.00091a.92736.92736,0,0,0,.1257.52177l7.44766,12.70153a.9256.9256,0,0,0,.79848.45756.78755.78755,0,0,0,.11213-.00723.92439.92439,0,0,0,.77587-.6547L67.34308,77.04585l20.61534-7.47841a.9132.9132,0,0,0,.40964-.29479L103.579,50.1245l22.13228-6.14821,30.3323,11.99438a.94213.94213,0,0,0,.34091.06511.92555.92555,0,0,0,.47837-1.71813ZM66.39675,75.02749,54.004,65.61664,83.01472,52.33546,68.22159,72.5362ZM59.41208,55.117l-5.215-14.32562,28.176,9.06994L66.08839,53.5888ZM28.39343,20.15663,5.60736,3.24838l32.89051,9.55735L50.14049,36.29352ZM53.2069,38.30826,41.28758,14.26343l36.60891,20.113Zm3.44441,1.32748,23.43625-3.73106,1.1412,3.35307,3.16589,9.30867L67.26621,43.053ZM82.44773,37.0929,100.088,48.50583l-13.56964.55162Zm2.46869-.60948L106.923,40.03724l-4.2257,7.95044Zm-44.78271-24.969.12751-1.19.32057-2.99679L67.42311,26.5083ZM77.2644,52.93048,54.99648,63.12535l4.3731-6.09848ZM52.77918,67.01285l11.19319,8.49934-2.53018.10128-10.84233.434Zm-2.4922,10.902,14.3957-.576L49.08338,98.235Zm74.29121-42.73361-13.48555-6.93854-2.069-1.06434,10.0556,1.17014Zm-20.48378-8.45683L124.65279,37.3027l-15.21136,1.02545-.86088.05788L96.67207,31.074Zm-9.36654,5.32983,9.1459,5.61559-18.7566-3.02935ZM38.36765,10.61284l-.02351.21884L12.14893,3.21944,38.81166,6.46129Zm-26.00983-.04973L51.90474,39.90884l4.69231,12.88962ZM49.08519,101.3276,64.2224,81.05091,55.143,111.65811ZM87.08037,67.91623,69.1331,74.427,86.3488,50.91936l.63164-.02532,14.07649-.57241ZM126.10371,42.1406a.92463.92463,0,0,0-.34092-.06511.89027.89027,0,0,0-.24777.03437l-20.64383,5.735,4.053-7.6249,18.8841-1.27323,18.592,11.22032Z" style="fill: #0B3EDF; fill-opacity: 1;"></path></svg></g> <g transform="rotate(0 287.5000036621094 421.06699923706054)"><svg y="387.142" viewBox="11.90999984741211 31.829999923706055 324.07000732421875 67.8499984741211" x="125.465" height="67.8499984741211" width="324.07000732421875" xmlns="http://www.w3.org/2000/svg" style="overflow: visible;"><g fill="#0B5FFF" fill-opacity="1" style=""><path d="M23.52 98.48L11.91 98.48L11.91 33.03L53.75 33.03L53.75 42.84L23.52 42.84L23.52 61.35L49.24 61.35L49.24 71.16L23.52 71.16L23.52 98.48ZM121.70 98.48L78.47 98.48L78.47 88.67L94.28 88.67L94.28 42.84L78.47 42.84L78.47 33.03L121.70 33.03L121.70 42.84L105.89 42.84L105.89 88.67L121.70 88.67L121.70 98.48ZM156.63 98.48L146.62 98.48L146.62 33.03L159.43 33.03L167.24 58.55L169.94 68.36L170.34 68.36L172.94 58.55L180.85 33.03L193.66 33.03L193.66 98.48L183.45 98.48L183.45 72.06Q183.45 69.46 183.65 65.86Q183.85 62.25 184.10 58.45Q184.35 54.65 184.65 51.14Q184.95 47.64 185.16 45.24L185.16 45.24L184.85 45.24L180.45 60.45L173.25 81.17L166.64 81.17L159.53 60.45L155.23 45.24L154.93 45.24Q155.23 47.64 155.53 51.14Q155.83 54.65 156.08 58.45Q156.33 62.25 156.48 65.86Q156.63 69.46 156.63 72.06L156.63 72.06L156.63 98.48ZM261.82 98.48L218.58 98.48L218.58 88.67L234.40 88.67L234.40 42.84L218.58 42.84L218.58 33.03L261.82 33.03L261.82 42.84L246.01 42.84L246.01 88.67L261.82 88.67L261.82 98.48ZM310.26 99.68L310.26 99.68Q304.56 99.68 299.80 97.43Q295.05 95.18 291.69 90.83Q288.34 86.47 286.44 80.07Q284.54 73.66 284.54 65.45L284.54 65.45Q284.54 57.35 286.44 51.09Q288.34 44.84 291.69 40.58Q295.05 36.33 299.80 34.08Q304.56 31.83 310.26 31.83L310.26 31.83Q315.96 31.83 320.72 34.08Q325.47 36.33 328.83 40.58Q332.18 44.84 334.08 51.09Q335.98 57.35 335.98 65.45L335.98 65.45Q335.98 73.66 334.08 80.07Q332.18 86.47 328.83 90.83Q325.47 95.18 320.72 97.43Q315.96 99.68 310.26 99.68ZM310.26 89.58L310.26 89.58Q316.57 89.58 320.32 83.32Q324.07 77.06 324.07 65.45L324.07 65.45Q324.07 54.15 320.32 48.04Q316.57 41.94 310.26 41.94L310.26 41.94Q303.95 41.94 300.20 48.04Q296.45 54.15 296.45 65.45L296.45 65.45Q296.45 77.06 300.20 83.32Q303.95 89.58 310.26 89.58Z" transform="translate(0, 0)"></path></g></svg></g></svg>