<svg width="361" height="322" viewBox="0 0 361 322" fill="none" xmlns="http://www.w3.org/2000/svg">
<path d="M35.3709 23.3125H27.905C27.7687 22.3466 27.4903 21.4886 27.0698 20.7386C26.6493 19.9773 26.1096 19.3295 25.4505 18.7955C24.7914 18.2614 24.03 17.8523 23.1664 17.5682C22.3141 17.2841 21.388 17.142 20.388 17.142C18.5812 17.142 17.0073 17.5909 15.6664 18.4886C14.3255 19.375 13.2857 20.6705 12.5471 22.375C11.8084 24.0682 11.4391 26.125 11.4391 28.5455C11.4391 31.0341 11.8084 33.125 12.5471 34.8182C13.2971 36.5114 14.3425 37.7898 15.6834 38.6534C17.0243 39.517 18.5755 39.9489 20.3368 39.9489C21.3255 39.9489 22.2403 39.8182 23.0812 39.5568C23.9334 39.2955 24.6891 38.9148 25.3482 38.4148C26.0073 37.9034 26.5528 37.2841 26.9846 36.5568C27.4278 35.8295 27.7346 35 27.905 34.0682L35.3709 34.1023C35.1778 35.7045 34.6948 37.25 33.9221 38.7386C33.1607 40.2159 32.1323 41.5398 30.8368 42.7102C29.5528 43.8693 28.0187 44.7898 26.2346 45.4716C24.4618 46.142 22.4562 46.4773 20.2175 46.4773C17.1039 46.4773 14.3198 45.7727 11.8653 44.3636C9.42207 42.9545 7.49025 40.9148 6.0698 38.2443C4.66071 35.5739 3.95616 32.3409 3.95616 28.5455C3.95616 24.7386 4.67207 21.5 6.10389 18.8295C7.53571 16.1591 9.47889 14.125 11.9334 12.7273C14.388 11.3182 17.1493 10.6136 20.2175 10.6136C22.2403 10.6136 24.1153 10.8977 25.8425 11.4659C27.5812 12.0341 29.1209 12.8636 30.4618 13.9545C31.8028 15.0341 32.8937 16.358 33.7346 17.9261C34.5868 19.4943 35.1323 21.2898 35.3709 23.3125ZM52.3567 46.5114C49.709 46.5114 47.4192 45.9489 45.4874 44.8239C43.567 43.6875 42.084 42.108 41.0385 40.0852C39.9931 38.0511 39.4704 35.6932 39.4704 33.0114C39.4704 30.3068 39.9931 27.9432 41.0385 25.9205C42.084 23.8864 43.567 22.3068 45.4874 21.1818C47.4192 20.0455 49.709 19.4773 52.3567 19.4773C55.0045 19.4773 57.2885 20.0455 59.209 21.1818C61.1408 22.3068 62.6295 23.8864 63.6749 25.9205C64.7204 27.9432 65.2431 30.3068 65.2431 33.0114C65.2431 35.6932 64.7204 38.0511 63.6749 40.0852C62.6295 42.108 61.1408 43.6875 59.209 44.8239C57.2885 45.9489 55.0045 46.5114 52.3567 46.5114ZM52.3908 40.8864C53.5954 40.8864 54.601 40.5455 55.4079 39.8636C56.2147 39.1705 56.8226 38.2273 57.2317 37.0341C57.6522 35.8409 57.8624 34.483 57.8624 32.9602C57.8624 31.4375 57.6522 30.0795 57.2317 28.8864C56.8226 27.6932 56.2147 26.75 55.4079 26.0568C54.601 25.3636 53.5954 25.017 52.3908 25.017C51.1749 25.017 50.1522 25.3636 49.3226 26.0568C48.5045 26.75 47.8851 27.6932 47.4647 28.8864C47.0556 30.0795 46.851 31.4375 46.851 32.9602C46.851 34.483 47.0556 35.8409 47.4647 37.0341C47.8851 38.2273 48.5045 39.1705 49.3226 39.8636C50.1522 40.5455 51.1749 40.8864 52.3908 40.8864ZM77.226 30.8636V46H69.9647V19.8182H76.8851V24.4375H77.192C77.7715 22.9148 78.7431 21.7102 80.1067 20.8239C81.4704 19.9261 83.1238 19.4773 85.067 19.4773C86.8851 19.4773 88.4704 19.875 89.8226 20.6705C91.1749 21.4659 92.226 22.6023 92.976 24.0795C93.726 25.5455 94.101 27.2955 94.101 29.3295V46H86.8397V30.625C86.851 29.0227 86.442 27.7727 85.6124 26.875C84.7829 25.9659 83.6408 25.5114 82.1863 25.5114C81.209 25.5114 80.3454 25.7216 79.5954 26.142C78.8567 26.5625 78.2772 27.1761 77.8567 27.983C77.4476 28.7784 77.2374 29.7386 77.226 30.8636ZM121.608 27.2841L114.96 27.6932C114.847 27.125 114.602 26.6136 114.227 26.1591C113.852 25.6932 113.358 25.3239 112.745 25.0511C112.142 24.767 111.421 24.625 110.58 24.625C109.455 24.625 108.506 24.8636 107.733 25.3409C106.96 25.8068 106.574 26.4318 106.574 27.2159C106.574 27.8409 106.824 28.3693 107.324 28.8011C107.824 29.233 108.682 29.5795 109.898 29.8409L114.637 30.7955C117.182 31.3182 119.08 32.1591 120.33 33.3182C121.58 34.4773 122.205 36 122.205 37.8864C122.205 39.6023 121.699 41.108 120.688 42.4034C119.688 43.6989 118.313 44.7102 116.563 45.4375C114.824 46.1534 112.818 46.5114 110.546 46.5114C107.08 46.5114 104.318 45.7898 102.262 44.3466C100.216 42.892 99.0172 40.9148 98.665 38.4148L105.807 38.0398C106.023 39.0966 106.546 39.9034 107.375 40.4602C108.205 41.0057 109.267 41.2784 110.563 41.2784C111.835 41.2784 112.858 41.0341 113.631 40.5455C114.415 40.0455 114.813 39.4034 114.824 38.6193C114.813 37.9602 114.534 37.4205 113.989 37C113.443 36.5682 112.602 36.2386 111.466 36.0114L106.932 35.108C104.375 34.5966 102.472 33.7102 101.222 32.4489C99.9831 31.1875 99.3638 29.5795 99.3638 27.625C99.3638 25.9432 99.8184 24.4943 100.727 23.2784C101.648 22.0625 102.938 21.125 104.597 20.4659C106.267 19.8068 108.222 19.4773 110.46 19.4773C113.767 19.4773 116.37 20.1761 118.267 21.5739C120.176 22.9716 121.29 24.875 121.608 27.2841ZM143.567 34.8523V19.8182H150.828V46H143.857V41.2443H143.584C142.993 42.7784 142.01 44.0114 140.635 44.9432C139.272 45.875 137.607 46.3409 135.641 46.3409C133.891 46.3409 132.351 45.9432 131.022 45.1477C129.692 44.3523 128.652 43.2216 127.902 41.7557C127.164 40.2898 126.789 38.5341 126.777 36.4886V19.8182H134.039V35.1932C134.05 36.7386 134.465 37.9602 135.283 38.858C136.101 39.7557 137.198 40.2045 138.573 40.2045C139.448 40.2045 140.266 40.0057 141.027 39.608C141.789 39.1989 142.402 38.5966 142.868 37.8011C143.345 37.0057 143.578 36.0227 143.567 34.8523ZM156.637 46V19.8182H163.557V24.4375H163.864C164.409 22.9034 165.318 21.6932 166.591 20.8068C167.864 19.9205 169.387 19.4773 171.159 19.4773C172.955 19.4773 174.483 19.9261 175.745 20.8239C177.006 21.7102 177.847 22.9148 178.267 24.4375H178.54C179.074 22.9375 180.04 21.7386 181.438 20.8409C182.847 19.9318 184.512 19.4773 186.432 19.4773C188.875 19.4773 190.858 20.2557 192.381 21.8125C193.915 23.358 194.682 25.5511 194.682 28.392V46H187.438V29.8239C187.438 28.3693 187.051 27.2784 186.279 26.5511C185.506 25.8239 184.54 25.4602 183.381 25.4602C182.063 25.4602 181.034 25.8807 180.296 26.7216C179.557 27.5511 179.188 28.6477 179.188 30.0114V46H172.148V29.6705C172.148 28.3864 171.779 27.3636 171.04 26.6023C170.313 25.8409 169.352 25.4602 168.159 25.4602C167.352 25.4602 166.625 25.6648 165.977 26.0739C165.341 26.4716 164.835 27.0341 164.46 27.7614C164.085 28.4773 163.898 29.3182 163.898 30.2841V46H156.637ZM212.35 46.5114C209.656 46.5114 207.338 45.9659 205.395 44.875C203.463 43.7727 201.975 42.2159 200.929 40.2045C199.884 38.1818 199.361 35.7898 199.361 33.0284C199.361 30.3352 199.884 27.9716 200.929 25.9375C201.975 23.9034 203.446 22.3182 205.344 21.1818C207.253 20.0455 209.492 19.4773 212.06 19.4773C213.787 19.4773 215.395 19.7557 216.884 20.3125C218.384 20.858 219.691 21.6818 220.804 22.7841C221.929 23.8864 222.804 25.2727 223.429 26.9432C224.054 28.6023 224.367 30.5455 224.367 32.7727V34.767H202.259V30.267H217.531C217.531 29.2216 217.304 28.2955 216.85 27.4886C216.395 26.6818 215.764 26.0511 214.958 25.5966C214.162 25.1307 213.236 24.8977 212.179 24.8977C211.077 24.8977 210.1 25.1534 209.247 25.6648C208.406 26.1648 207.747 26.8409 207.27 27.6932C206.793 28.5341 206.548 29.4716 206.537 30.5057V34.7841C206.537 36.0795 206.776 37.1989 207.253 38.142C207.742 39.0852 208.429 39.8125 209.316 40.3239C210.202 40.8352 211.253 41.0909 212.469 41.0909C213.276 41.0909 214.014 40.9773 214.685 40.75C215.355 40.5227 215.929 40.1818 216.406 39.7273C216.884 39.2727 217.247 38.7159 217.497 38.0568L224.213 38.5C223.872 40.1136 223.173 41.5227 222.117 42.7273C221.071 43.9205 219.719 44.8523 218.06 45.5227C216.412 46.1818 214.509 46.5114 212.35 46.5114ZM229.105 46V19.8182H236.145V24.3864H236.418C236.895 22.7614 237.696 21.5341 238.821 20.7045C239.946 19.8636 241.242 19.4432 242.708 19.4432C243.071 19.4432 243.463 19.4659 243.884 19.5114C244.304 19.5568 244.673 19.6193 244.992 19.6989V26.142C244.651 26.0398 244.179 25.9489 243.577 25.8693C242.975 25.7898 242.423 25.75 241.923 25.75C240.855 25.75 239.901 25.983 239.06 26.4489C238.23 26.9034 237.571 27.5398 237.083 28.358C236.605 29.1761 236.367 30.1193 236.367 31.1875V46H229.105ZM18.513 77.8182V83.2727H2.35389V77.8182H18.513ZM6.05275 104V75.9261C6.05275 74.0284 6.42207 72.4545 7.16071 71.2045C7.91071 69.9545 8.93343 69.017 10.2289 68.392C11.5243 67.767 12.9959 67.4545 14.6437 67.4545C15.7573 67.4545 16.7743 67.5398 17.6948 67.7102C18.6266 67.8807 19.3198 68.0341 19.7743 68.1705L18.4789 73.625C18.1948 73.5341 17.8425 73.4489 17.4221 73.3693C17.013 73.2898 16.5925 73.25 16.1607 73.25C15.0925 73.25 14.3482 73.5 13.9278 74C13.5073 74.4886 13.2971 75.1761 13.2971 76.0625V104H6.05275ZM22.9491 104V77.8182H30.2104V104H22.9491ZM26.5968 74.4432C25.5172 74.4432 24.5911 74.0852 23.8184 73.3693C23.057 72.642 22.6763 71.7727 22.6763 70.7614C22.6763 69.7614 23.057 68.9034 23.8184 68.1875C24.5911 67.4602 25.5172 67.0966 26.5968 67.0966C27.6763 67.0966 28.5968 67.4602 29.3581 68.1875C30.1309 68.9034 30.5172 69.7614 30.5172 70.7614C30.5172 71.7727 30.1309 72.642 29.3581 73.3693C28.5968 74.0852 27.6763 74.4432 26.5968 74.4432ZM43.2885 88.8636V104H36.0272V77.8182H42.9476V82.4375H43.2545C43.834 80.9148 44.8056 79.7102 46.1692 78.8239C47.5329 77.9261 49.1863 77.4773 51.1295 77.4773C52.9476 77.4773 54.5329 77.875 55.8851 78.6705C57.2374 79.4659 58.2885 80.6023 59.0385 82.0795C59.7885 83.5455 60.1635 85.2955 60.1635 87.3295V104H52.9022V88.625C52.9135 87.0227 52.5045 85.7727 51.6749 84.875C50.8454 83.9659 49.7033 83.5114 48.2488 83.5114C47.2715 83.5114 46.4079 83.7216 45.6579 84.142C44.9192 84.5625 44.3397 85.1761 43.9192 85.983C43.5101 86.7784 43.2999 87.7386 43.2885 88.8636ZM73.3525 104.494C71.682 104.494 70.1934 104.205 68.8866 103.625C67.5797 103.034 66.5456 102.165 65.7843 101.017C65.0343 99.858 64.6593 98.4148 64.6593 96.6875C64.6593 95.233 64.9263 94.0114 65.4604 93.0227C65.9945 92.0341 66.7218 91.2386 67.6422 90.6364C68.5627 90.0341 69.6081 89.5795 70.7786 89.2727C71.9604 88.9659 73.1991 88.75 74.4945 88.625C76.0172 88.4659 77.2445 88.3182 78.1763 88.1818C79.1081 88.0341 79.7843 87.8182 80.2047 87.5341C80.6252 87.25 80.8354 86.8295 80.8354 86.2727V86.1705C80.8354 85.0909 80.4945 84.2557 79.8127 83.6648C79.1422 83.0739 78.1877 82.7784 76.9491 82.7784C75.6422 82.7784 74.6025 83.0682 73.8297 83.6477C73.057 84.2159 72.5456 84.9318 72.2956 85.7955L65.5797 85.25C65.9206 83.6591 66.5911 82.2841 67.5911 81.125C68.5911 79.9545 69.8809 79.0568 71.4604 78.4318C73.0513 77.7955 74.8922 77.4773 76.9831 77.4773C78.4377 77.4773 79.8297 77.6477 81.1593 77.9886C82.5002 78.3295 83.6877 78.858 84.7218 79.5739C85.7672 80.2898 86.5911 81.2102 87.1934 82.3352C87.7956 83.4489 88.0968 84.7841 88.0968 86.3409V104H81.2104V100.369H81.0059C80.5854 101.188 80.0229 101.909 79.3184 102.534C78.6138 103.148 77.7672 103.631 76.7786 103.983C75.79 104.324 74.6479 104.494 73.3525 104.494ZM75.432 99.483C76.5002 99.483 77.4434 99.2727 78.2616 98.8523C79.0797 98.4205 79.7218 97.8409 80.1877 97.1136C80.6536 96.3864 80.8866 95.5625 80.8866 94.642V91.8636C80.6593 92.0114 80.3468 92.1477 79.9491 92.2727C79.5627 92.3864 79.1252 92.4943 78.6366 92.5966C78.1479 92.6875 77.6593 92.7727 77.1706 92.8523C76.682 92.9205 76.2388 92.983 75.8411 93.0398C74.9888 93.1648 74.2445 93.3636 73.6081 93.6364C72.9718 93.9091 72.4775 94.2784 72.1252 94.7443C71.7729 95.1989 71.5968 95.767 71.5968 96.4489C71.5968 97.4375 71.9547 98.1932 72.6706 98.7159C73.3979 99.2273 74.3184 99.483 75.432 99.483ZM100.992 88.8636V104H93.7303V77.8182H100.651V82.4375H100.958C101.537 80.9148 102.509 79.7102 103.872 78.8239C105.236 77.9261 106.889 77.4773 108.833 77.4773C110.651 77.4773 112.236 77.875 113.588 78.6705C114.941 79.4659 115.992 80.6023 116.742 82.0795C117.492 83.5455 117.867 85.2955 117.867 87.3295V104H110.605V88.625C110.617 87.0227 110.208 85.7727 109.378 84.875C108.548 83.9659 107.406 83.5114 105.952 83.5114C104.975 83.5114 104.111 83.7216 103.361 84.142C102.622 84.5625 102.043 85.1761 101.622 85.983C101.213 86.7784 101.003 87.7386 100.992 88.8636ZM135.419 104.511C132.737 104.511 130.431 103.943 128.499 102.807C126.578 101.659 125.101 100.068 124.067 98.0341C123.044 96 122.533 93.6591 122.533 91.0114C122.533 88.3295 123.05 85.9773 124.084 83.9545C125.129 81.9205 126.612 80.3352 128.533 79.1989C130.453 78.0511 132.737 77.4773 135.385 77.4773C137.669 77.4773 139.669 77.892 141.385 78.7216C143.101 79.5511 144.459 80.7159 145.459 82.2159C146.459 83.7159 147.01 85.4773 147.112 87.5H140.26C140.067 86.1932 139.556 85.142 138.726 84.3466C137.908 83.5398 136.834 83.1364 135.504 83.1364C134.379 83.1364 133.397 83.4432 132.556 84.0568C131.726 84.6591 131.078 85.5398 130.612 86.6989C130.147 87.858 129.914 89.2614 129.914 90.9091C129.914 92.5795 130.141 94 130.595 95.1705C131.061 96.3409 131.715 97.233 132.556 97.8466C133.397 98.4602 134.379 98.767 135.504 98.767C136.334 98.767 137.078 98.5966 137.737 98.2557C138.408 97.9148 138.959 97.4205 139.391 96.7727C139.834 96.1136 140.124 95.3239 140.26 94.4034H147.112C146.999 96.4034 146.453 98.1648 145.476 99.6875C144.51 101.199 143.175 102.381 141.47 103.233C139.766 104.085 137.749 104.511 135.419 104.511ZM163.693 104.511C161 104.511 158.682 103.966 156.739 102.875C154.807 101.773 153.318 100.216 152.273 98.2045C151.227 96.1818 150.705 93.7898 150.705 91.0284C150.705 88.3352 151.227 85.9716 152.273 83.9375C153.318 81.9034 154.79 80.3182 156.688 79.1818C158.597 78.0455 160.835 77.4773 163.404 77.4773C165.131 77.4773 166.739 77.7557 168.227 78.3125C169.727 78.858 171.034 79.6818 172.148 80.7841C173.273 81.8864 174.148 83.2727 174.773 84.9432C175.398 86.6023 175.71 88.5455 175.71 90.7727V92.767H153.602V88.267H168.875C168.875 87.2216 168.648 86.2955 168.193 85.4886C167.739 84.6818 167.108 84.0511 166.301 83.5966C165.506 83.1307 164.58 82.8977 163.523 82.8977C162.421 82.8977 161.443 83.1534 160.591 83.6648C159.75 84.1648 159.091 84.8409 158.614 85.6932C158.137 86.5341 157.892 87.4716 157.881 88.5057V92.7841C157.881 94.0795 158.12 95.1989 158.597 96.142C159.085 97.0852 159.773 97.8125 160.659 98.3239C161.546 98.8352 162.597 99.0909 163.813 99.0909C164.62 99.0909 165.358 98.9773 166.029 98.75C166.699 98.5227 167.273 98.1818 167.75 97.7273C168.227 97.2727 168.591 96.7159 168.841 96.0568L175.557 96.5C175.216 98.1136 174.517 99.5227 173.46 100.727C172.415 101.92 171.063 102.852 169.404 103.523C167.756 104.182 165.852 104.511 163.693 104.511ZM26.2175 143.284L19.5698 143.693C19.4562 143.125 19.2118 142.614 18.8368 142.159C18.4618 141.693 17.9675 141.324 17.3539 141.051C16.7516 140.767 16.03 140.625 15.1891 140.625C14.0641 140.625 13.1153 140.864 12.3425 141.341C11.5698 141.807 11.1834 142.432 11.1834 143.216C11.1834 143.841 11.4334 144.369 11.9334 144.801C12.4334 145.233 13.2914 145.58 14.5073 145.841L19.2459 146.795C21.7914 147.318 23.6891 148.159 24.9391 149.318C26.1891 150.477 26.8141 152 26.8141 153.886C26.8141 155.602 26.3084 157.108 25.2971 158.403C24.2971 159.699 22.9221 160.71 21.1721 161.438C19.4334 162.153 17.4278 162.511 15.155 162.511C11.6891 162.511 8.92775 161.79 6.87093 160.347C4.82548 158.892 3.62661 156.915 3.27434 154.415L10.4164 154.04C10.6323 155.097 11.155 155.903 11.9846 156.46C12.8141 157.006 13.8766 157.278 15.1721 157.278C16.4448 157.278 17.4675 157.034 18.2403 156.545C19.0243 156.045 19.4221 155.403 19.4334 154.619C19.4221 153.96 19.1437 153.42 18.5982 153C18.0528 152.568 17.2118 152.239 16.0755 152.011L11.5414 151.108C8.98457 150.597 7.08116 149.71 5.83116 148.449C4.59252 147.187 3.97321 145.58 3.97321 143.625C3.97321 141.943 4.42775 140.494 5.33684 139.278C6.2573 138.062 7.54707 137.125 9.20616 136.466C10.8766 135.807 12.8312 135.477 15.0698 135.477C18.3766 135.477 20.9789 136.176 22.8766 137.574C24.7857 138.972 25.8993 140.875 26.2175 143.284ZM43.2161 162.511C40.5684 162.511 38.2786 161.949 36.3468 160.824C34.4263 159.687 32.9434 158.108 31.8979 156.085C30.8525 154.051 30.3297 151.693 30.3297 149.011C30.3297 146.307 30.8525 143.943 31.8979 141.92C32.9434 139.886 34.4263 138.307 36.3468 137.182C38.2786 136.045 40.5684 135.477 43.2161 135.477C45.8638 135.477 48.1479 136.045 50.0684 137.182C52.0002 138.307 53.4888 139.886 54.5343 141.92C55.5797 143.943 56.1025 146.307 56.1025 149.011C56.1025 151.693 55.5797 154.051 54.5343 156.085C53.4888 158.108 52.0002 159.687 50.0684 160.824C48.1479 161.949 45.8638 162.511 43.2161 162.511ZM43.2502 156.886C44.4547 156.886 45.4604 156.545 46.2672 155.864C47.0741 155.17 47.682 154.227 48.0911 153.034C48.5116 151.841 48.7218 150.483 48.7218 148.96C48.7218 147.438 48.5116 146.08 48.0911 144.886C47.682 143.693 47.0741 142.75 46.2672 142.057C45.4604 141.364 44.4547 141.017 43.2502 141.017C42.0343 141.017 41.0116 141.364 40.182 142.057C39.3638 142.75 38.7445 143.693 38.3241 144.886C37.915 146.08 37.7104 147.438 37.7104 148.96C37.7104 150.483 37.915 151.841 38.3241 153.034C38.7445 154.227 39.3638 155.17 40.182 155.864C41.0116 156.545 42.0343 156.886 43.2502 156.886ZM68.0854 127.091V162H60.8241V127.091H68.0854ZM90.692 150.852V135.818H97.9533V162H90.9817V157.244H90.709C90.1181 158.778 89.1351 160.011 87.7601 160.943C86.3965 161.875 84.7317 162.341 82.7658 162.341C81.0158 162.341 79.476 161.943 78.1465 161.148C76.817 160.352 75.7772 159.222 75.0272 157.756C74.2885 156.29 73.9135 154.534 73.9022 152.489V135.818H81.1635V151.193C81.1749 152.739 81.5897 153.96 82.4079 154.858C83.226 155.756 84.3226 156.205 85.6976 156.205C86.5726 156.205 87.3908 156.006 88.1522 155.608C88.9135 155.199 89.5272 154.597 89.9931 153.801C90.4704 153.006 90.7033 152.023 90.692 150.852ZM117.688 135.818V141.273H101.921V135.818H117.688ZM105.5 129.545H112.762V153.955C112.762 154.625 112.864 155.148 113.068 155.523C113.273 155.886 113.557 156.142 113.921 156.29C114.296 156.437 114.727 156.511 115.216 156.511C115.557 156.511 115.898 156.483 116.239 156.426C116.58 156.358 116.841 156.307 117.023 156.273L118.165 161.676C117.801 161.79 117.29 161.92 116.631 162.068C115.972 162.227 115.171 162.324 114.227 162.358C112.477 162.426 110.943 162.193 109.625 161.659C108.318 161.125 107.301 160.295 106.574 159.17C105.847 158.045 105.489 156.625 105.5 154.909V129.545ZM122.418 162V135.818H129.679V162H122.418ZM126.066 132.443C124.986 132.443 124.06 132.085 123.287 131.369C122.526 130.642 122.145 129.773 122.145 128.761C122.145 127.761 122.526 126.903 123.287 126.188C124.06 125.46 124.986 125.097 126.066 125.097C127.145 125.097 128.066 125.46 128.827 126.188C129.6 126.903 129.986 127.761 129.986 128.761C129.986 129.773 129.6 130.642 128.827 131.369C128.066 132.085 127.145 132.443 126.066 132.443ZM147.325 162.511C144.678 162.511 142.388 161.949 140.456 160.824C138.536 159.687 137.053 158.108 136.007 156.085C134.962 154.051 134.439 151.693 134.439 149.011C134.439 146.307 134.962 143.943 136.007 141.92C137.053 139.886 138.536 138.307 140.456 137.182C142.388 136.045 144.678 135.477 147.325 135.477C149.973 135.477 152.257 136.045 154.178 137.182C156.11 138.307 157.598 139.886 158.644 141.92C159.689 143.943 160.212 146.307 160.212 149.011C160.212 151.693 159.689 154.051 158.644 156.085C157.598 158.108 156.11 159.687 154.178 160.824C152.257 161.949 149.973 162.511 147.325 162.511ZM147.36 156.886C148.564 156.886 149.57 156.545 150.377 155.864C151.183 155.17 151.791 154.227 152.2 153.034C152.621 151.841 152.831 150.483 152.831 148.96C152.831 147.438 152.621 146.08 152.2 144.886C151.791 143.693 151.183 142.75 150.377 142.057C149.57 141.364 148.564 141.017 147.36 141.017C146.144 141.017 145.121 141.364 144.291 142.057C143.473 142.75 142.854 143.693 142.433 144.886C142.024 146.08 141.82 147.438 141.82 148.96C141.82 150.483 142.024 151.841 142.433 153.034C142.854 154.227 143.473 155.17 144.291 155.864C145.121 156.545 146.144 156.886 147.36 156.886ZM172.195 146.864V162H164.933V135.818H171.854V140.438H172.161C172.74 138.915 173.712 137.71 175.075 136.824C176.439 135.926 178.093 135.477 180.036 135.477C181.854 135.477 183.439 135.875 184.791 136.67C186.144 137.466 187.195 138.602 187.945 140.08C188.695 141.545 189.07 143.295 189.07 145.33V162H181.808V146.625C181.82 145.023 181.411 143.773 180.581 142.875C179.752 141.966 178.61 141.511 177.155 141.511C176.178 141.511 175.314 141.722 174.564 142.142C173.825 142.562 173.246 143.176 172.825 143.983C172.416 144.778 172.206 145.739 172.195 146.864ZM216.577 143.284L209.929 143.693C209.816 143.125 209.571 142.614 209.196 142.159C208.821 141.693 208.327 141.324 207.713 141.051C207.111 140.767 206.389 140.625 205.548 140.625C204.423 140.625 203.475 140.864 202.702 141.341C201.929 141.807 201.543 142.432 201.543 143.216C201.543 143.841 201.793 144.369 202.293 144.801C202.793 145.233 203.651 145.58 204.867 145.841L209.605 146.795C212.151 147.318 214.048 148.159 215.298 149.318C216.548 150.477 217.173 152 217.173 153.886C217.173 155.602 216.668 157.108 215.656 158.403C214.656 159.699 213.281 160.71 211.531 161.438C209.793 162.153 207.787 162.511 205.514 162.511C202.048 162.511 199.287 161.79 197.23 160.347C195.185 158.892 193.986 156.915 193.634 154.415L200.776 154.04C200.992 155.097 201.514 155.903 202.344 156.46C203.173 157.006 204.236 157.278 205.531 157.278C206.804 157.278 207.827 157.034 208.6 156.545C209.384 156.045 209.781 155.403 209.793 154.619C209.781 153.96 209.503 153.42 208.958 153C208.412 152.568 207.571 152.239 206.435 152.011L201.901 151.108C199.344 150.597 197.441 149.71 196.191 148.449C194.952 147.187 194.333 145.58 194.333 143.625C194.333 141.943 194.787 140.494 195.696 139.278C196.617 138.062 197.906 137.125 199.566 136.466C201.236 135.807 203.191 135.477 205.429 135.477C208.736 135.477 211.338 136.176 213.236 137.574C215.145 138.972 216.259 140.875 216.577 143.284ZM18.513 208.818V214.273H2.35389V208.818H18.513ZM6.05275 235V206.926C6.05275 205.028 6.42207 203.455 7.16071 202.205C7.91071 200.955 8.93343 200.017 10.2289 199.392C11.5243 198.767 12.9959 198.455 14.6437 198.455C15.7573 198.455 16.7743 198.54 17.6948 198.71C18.6266 198.881 19.3198 199.034 19.7743 199.17L18.4789 204.625C18.1948 204.534 17.8425 204.449 17.4221 204.369C17.013 204.29 16.5925 204.25 16.1607 204.25C15.0925 204.25 14.3482 204.5 13.9278 205C13.5073 205.489 13.2971 206.176 13.2971 207.062V235H6.05275ZM33.8411 235.511C31.1934 235.511 28.9036 234.949 26.9718 233.824C25.0513 232.687 23.5684 231.108 22.5229 229.085C21.4775 227.051 20.9547 224.693 20.9547 222.011C20.9547 219.307 21.4775 216.943 22.5229 214.92C23.5684 212.886 25.0513 211.307 26.9718 210.182C28.9036 209.045 31.1934 208.477 33.8411 208.477C36.4888 208.477 38.7729 209.045 40.6934 210.182C42.6252 211.307 44.1138 212.886 45.1593 214.92C46.2047 216.943 46.7275 219.307 46.7275 222.011C46.7275 224.693 46.2047 227.051 45.1593 229.085C44.1138 231.108 42.6252 232.687 40.6934 233.824C38.7729 234.949 36.4888 235.511 33.8411 235.511ZM33.8752 229.886C35.0797 229.886 36.0854 229.545 36.8922 228.864C37.6991 228.17 38.307 227.227 38.7161 226.034C39.1366 224.841 39.3468 223.483 39.3468 221.96C39.3468 220.438 39.1366 219.08 38.7161 217.886C38.307 216.693 37.6991 215.75 36.8922 215.057C36.0854 214.364 35.0797 214.017 33.8752 214.017C32.6593 214.017 31.6366 214.364 30.807 215.057C29.9888 215.75 29.3695 216.693 28.9491 217.886C28.54 219.08 28.3354 220.438 28.3354 221.96C28.3354 223.483 28.54 224.841 28.9491 226.034C29.3695 227.227 29.9888 228.17 30.807 228.864C31.6366 229.545 32.6593 229.886 33.8752 229.886ZM51.4491 235V208.818H58.4888V213.386H58.7616C59.2388 211.761 60.04 210.534 61.165 209.705C62.29 208.864 63.5854 208.443 65.0513 208.443C65.415 208.443 65.807 208.466 66.2275 208.511C66.6479 208.557 67.0172 208.619 67.3354 208.699V215.142C66.9945 215.04 66.5229 214.949 65.9206 214.869C65.3184 214.79 64.7672 214.75 64.2672 214.75C63.1991 214.75 62.2445 214.983 61.4036 215.449C60.5741 215.903 59.915 216.54 59.4263 217.358C58.9491 218.176 58.7104 219.119 58.7104 220.188V235H51.4491ZM89.665 235.494C87.9945 235.494 86.5059 235.205 85.1991 234.625C83.8922 234.034 82.8581 233.165 82.0968 232.017C81.3468 230.858 80.9718 229.415 80.9718 227.688C80.9718 226.233 81.2388 225.011 81.7729 224.023C82.307 223.034 83.0343 222.239 83.9547 221.636C84.8752 221.034 85.9206 220.58 87.0911 220.273C88.2729 219.966 89.5116 219.75 90.807 219.625C92.3297 219.466 93.557 219.318 94.4888 219.182C95.4206 219.034 96.0968 218.818 96.5172 218.534C96.9377 218.25 97.1479 217.83 97.1479 217.273V217.17C97.1479 216.091 96.807 215.256 96.1252 214.665C95.4547 214.074 94.5002 213.778 93.2616 213.778C91.9547 213.778 90.915 214.068 90.1422 214.648C89.3695 215.216 88.8581 215.932 88.6081 216.795L81.8922 216.25C82.2331 214.659 82.9036 213.284 83.9036 212.125C84.9036 210.955 86.1934 210.057 87.7729 209.432C89.3638 208.795 91.2047 208.477 93.2956 208.477C94.7502 208.477 96.1422 208.648 97.4718 208.989C98.8127 209.33 100 209.858 101.034 210.574C102.08 211.29 102.904 212.21 103.506 213.335C104.108 214.449 104.409 215.784 104.409 217.341V235H97.5229V231.369H97.3184C96.8979 232.188 96.3354 232.909 95.6309 233.534C94.9263 234.148 94.0797 234.631 93.0911 234.983C92.1025 235.324 90.9604 235.494 89.665 235.494ZM91.7445 230.483C92.8127 230.483 93.7559 230.273 94.5741 229.852C95.3922 229.42 96.0343 228.841 96.5002 228.114C96.9661 227.386 97.1991 226.562 97.1991 225.642V222.864C96.9718 223.011 96.6593 223.148 96.2616 223.273C95.8752 223.386 95.4377 223.494 94.9491 223.597C94.4604 223.687 93.9718 223.773 93.4831 223.852C92.9945 223.92 92.5513 223.983 92.1536 224.04C91.3013 224.165 90.557 224.364 89.9206 224.636C89.2843 224.909 88.79 225.278 88.4377 225.744C88.0854 226.199 87.9093 226.767 87.9093 227.449C87.9093 228.438 88.2672 229.193 88.9831 229.716C89.7104 230.227 90.6309 230.483 91.7445 230.483ZM132.982 235.511C130.3 235.511 127.993 234.943 126.061 233.807C124.141 232.659 122.664 231.068 121.629 229.034C120.607 227 120.095 224.659 120.095 222.011C120.095 219.33 120.612 216.977 121.647 214.955C122.692 212.92 124.175 211.335 126.095 210.199C128.016 209.051 130.3 208.477 132.948 208.477C135.232 208.477 137.232 208.892 138.948 209.722C140.664 210.551 142.022 211.716 143.022 213.216C144.022 214.716 144.573 216.477 144.675 218.5H137.823C137.629 217.193 137.118 216.142 136.289 215.347C135.47 214.54 134.397 214.136 133.067 214.136C131.942 214.136 130.959 214.443 130.118 215.057C129.289 215.659 128.641 216.54 128.175 217.699C127.709 218.858 127.476 220.261 127.476 221.909C127.476 223.58 127.703 225 128.158 226.17C128.624 227.341 129.277 228.233 130.118 228.847C130.959 229.46 131.942 229.767 133.067 229.767C133.897 229.767 134.641 229.597 135.3 229.256C135.97 228.915 136.522 228.42 136.953 227.773C137.397 227.114 137.686 226.324 137.823 225.403H144.675C144.561 227.403 144.016 229.165 143.039 230.688C142.073 232.199 140.737 233.381 139.033 234.233C137.328 235.085 135.311 235.511 132.982 235.511ZM156.585 219.864V235H149.324V200.091H156.381V213.438H156.688C157.279 211.892 158.233 210.682 159.551 209.807C160.87 208.92 162.523 208.477 164.512 208.477C166.33 208.477 167.915 208.875 169.267 209.67C170.631 210.455 171.688 211.585 172.438 213.062C173.199 214.528 173.574 216.284 173.563 218.33V235H166.301V219.625C166.313 218.011 165.904 216.756 165.074 215.858C164.256 214.96 163.108 214.511 161.631 214.511C160.642 214.511 159.767 214.722 159.006 215.142C158.256 215.562 157.665 216.176 157.233 216.983C156.813 217.778 156.597 218.739 156.585 219.864ZM186.743 235.494C185.073 235.494 183.584 235.205 182.277 234.625C180.97 234.034 179.936 233.165 179.175 232.017C178.425 230.858 178.05 229.415 178.05 227.688C178.05 226.233 178.317 225.011 178.851 224.023C179.385 223.034 180.112 222.239 181.033 221.636C181.953 221.034 182.999 220.58 184.169 220.273C185.351 219.966 186.59 219.75 187.885 219.625C189.408 219.466 190.635 219.318 191.567 219.182C192.499 219.034 193.175 218.818 193.595 218.534C194.016 218.25 194.226 217.83 194.226 217.273V217.17C194.226 216.091 193.885 215.256 193.203 214.665C192.533 214.074 191.578 213.778 190.34 213.778C189.033 213.778 187.993 214.068 187.22 214.648C186.448 215.216 185.936 215.932 185.686 216.795L178.97 216.25C179.311 214.659 179.982 213.284 180.982 212.125C181.982 210.955 183.272 210.057 184.851 209.432C186.442 208.795 188.283 208.477 190.374 208.477C191.828 208.477 193.22 208.648 194.55 208.989C195.891 209.33 197.078 209.858 198.112 210.574C199.158 211.29 199.982 212.21 200.584 213.335C201.186 214.449 201.487 215.784 201.487 217.341V235H194.601V231.369H194.397C193.976 232.188 193.414 232.909 192.709 233.534C192.004 234.148 191.158 234.631 190.169 234.983C189.181 235.324 188.039 235.494 186.743 235.494ZM188.823 230.483C189.891 230.483 190.834 230.273 191.652 229.852C192.47 229.42 193.112 228.841 193.578 228.114C194.044 227.386 194.277 226.562 194.277 225.642V222.864C194.05 223.011 193.737 223.148 193.34 223.273C192.953 223.386 192.516 223.494 192.027 223.597C191.539 223.687 191.05 223.773 190.561 223.852C190.073 223.92 189.629 223.983 189.232 224.04C188.379 224.165 187.635 224.364 186.999 224.636C186.362 224.909 185.868 225.278 185.516 225.744C185.164 226.199 184.987 226.767 184.987 227.449C184.987 228.438 185.345 229.193 186.061 229.716C186.789 230.227 187.709 230.483 188.823 230.483ZM214.382 219.864V235H207.121V208.818H214.041V213.438H214.348C214.928 211.915 215.899 210.71 217.263 209.824C218.627 208.926 220.28 208.477 222.223 208.477C224.041 208.477 225.627 208.875 226.979 209.67C228.331 210.466 229.382 211.602 230.132 213.08C230.882 214.545 231.257 216.295 231.257 218.33V235H223.996V219.625C224.007 218.023 223.598 216.773 222.769 215.875C221.939 214.966 220.797 214.511 219.343 214.511C218.365 214.511 217.502 214.722 216.752 215.142C216.013 215.562 215.433 216.176 215.013 216.983C214.604 217.778 214.394 218.739 214.382 219.864ZM248.776 245.364C246.423 245.364 244.406 245.04 242.725 244.392C241.054 243.756 239.725 242.886 238.736 241.784C237.747 240.682 237.105 239.443 236.81 238.068L243.526 237.165C243.73 237.688 244.054 238.176 244.497 238.631C244.941 239.085 245.526 239.449 246.253 239.722C246.992 240.006 247.889 240.148 248.946 240.148C250.526 240.148 251.827 239.761 252.85 238.989C253.884 238.227 254.401 236.949 254.401 235.153V230.364H254.094C253.776 231.091 253.298 231.778 252.662 232.426C252.026 233.074 251.208 233.602 250.208 234.011C249.208 234.42 248.014 234.625 246.628 234.625C244.662 234.625 242.872 234.17 241.259 233.261C239.656 232.341 238.378 230.937 237.423 229.051C236.48 227.153 236.009 224.756 236.009 221.858C236.009 218.892 236.492 216.415 237.458 214.426C238.423 212.437 239.708 210.949 241.31 209.96C242.923 208.972 244.691 208.477 246.611 208.477C248.077 208.477 249.304 208.727 250.293 209.227C251.281 209.716 252.077 210.33 252.679 211.068C253.293 211.795 253.764 212.511 254.094 213.216H254.367V208.818H261.577V235.256C261.577 237.483 261.031 239.347 259.941 240.847C258.85 242.347 257.338 243.472 255.406 244.222C253.486 244.983 251.276 245.364 248.776 245.364ZM248.929 229.17C250.1 229.17 251.088 228.881 251.895 228.301C252.713 227.71 253.338 226.869 253.77 225.778C254.213 224.676 254.435 223.358 254.435 221.824C254.435 220.29 254.219 218.96 253.787 217.835C253.355 216.699 252.73 215.818 251.912 215.193C251.094 214.568 250.1 214.256 248.929 214.256C247.736 214.256 246.73 214.58 245.912 215.227C245.094 215.864 244.475 216.75 244.054 217.886C243.634 219.023 243.423 220.335 243.423 221.824C243.423 223.335 243.634 224.642 244.054 225.744C244.486 226.835 245.105 227.682 245.912 228.284C246.73 228.875 247.736 229.17 248.929 229.17ZM267.355 235V208.818H274.617V235H267.355ZM271.003 205.443C269.923 205.443 268.997 205.085 268.225 204.369C267.463 203.642 267.083 202.773 267.083 201.761C267.083 200.761 267.463 199.903 268.225 199.188C268.997 198.46 269.923 198.097 271.003 198.097C272.083 198.097 273.003 198.46 273.764 199.188C274.537 199.903 274.923 200.761 274.923 201.761C274.923 202.773 274.537 203.642 273.764 204.369C273.003 205.085 272.083 205.443 271.003 205.443ZM287.695 219.864V235H280.433V208.818H287.354V213.438H287.661C288.24 211.915 289.212 210.71 290.575 209.824C291.939 208.926 293.593 208.477 295.536 208.477C297.354 208.477 298.939 208.875 300.291 209.67C301.644 210.466 302.695 211.602 303.445 213.08C304.195 214.545 304.57 216.295 304.57 218.33V235H297.308V219.625C297.32 218.023 296.911 216.773 296.081 215.875C295.252 214.966 294.11 214.511 292.655 214.511C291.678 214.511 290.814 214.722 290.064 215.142C289.325 215.562 288.746 216.176 288.325 216.983C287.916 217.778 287.706 218.739 287.695 219.864ZM322.088 245.364C319.736 245.364 317.719 245.04 316.037 244.392C314.367 243.756 313.037 242.886 312.048 241.784C311.06 240.682 310.418 239.443 310.122 238.068L316.838 237.165C317.043 237.688 317.367 238.176 317.81 238.631C318.253 239.085 318.838 239.449 319.566 239.722C320.304 240.006 321.202 240.148 322.259 240.148C323.838 240.148 325.139 239.761 326.162 238.989C327.196 238.227 327.713 236.949 327.713 235.153V230.364H327.406C327.088 231.091 326.611 231.778 325.975 232.426C325.338 233.074 324.52 233.602 323.52 234.011C322.52 234.42 321.327 234.625 319.941 234.625C317.975 234.625 316.185 234.17 314.571 233.261C312.969 232.341 311.691 230.937 310.736 229.051C309.793 227.153 309.321 224.756 309.321 221.858C309.321 218.892 309.804 216.415 310.77 214.426C311.736 212.437 313.02 210.949 314.622 209.96C316.236 208.972 318.003 208.477 319.923 208.477C321.389 208.477 322.617 208.727 323.605 209.227C324.594 209.716 325.389 210.33 325.992 211.068C326.605 211.795 327.077 212.511 327.406 213.216H327.679V208.818H334.889V235.256C334.889 237.483 334.344 239.347 333.253 240.847C332.162 242.347 330.651 243.472 328.719 244.222C326.798 244.983 324.588 245.364 322.088 245.364ZM322.242 229.17C323.412 229.17 324.401 228.881 325.208 228.301C326.026 227.71 326.651 226.869 327.083 225.778C327.526 224.676 327.747 223.358 327.747 221.824C327.747 220.29 327.531 218.96 327.1 217.835C326.668 216.699 326.043 215.818 325.225 215.193C324.406 214.568 323.412 214.256 322.242 214.256C321.048 214.256 320.043 214.58 319.225 215.227C318.406 215.864 317.787 216.75 317.367 217.886C316.946 219.023 316.736 220.335 316.736 221.824C316.736 223.335 316.946 224.642 317.367 225.744C317.798 226.835 318.418 227.682 319.225 228.284C320.043 228.875 321.048 229.17 322.242 229.17ZM9.59821 293L2.47321 266.818H9.8198L13.8766 284.409H14.1153L18.3425 266.818H25.5528L29.8482 284.307H30.0698L34.0584 266.818H41.388L34.28 293H26.5925L22.0925 276.534H21.7687L17.2687 293H9.59821ZM56.5371 293.511C53.8439 293.511 51.5258 292.966 49.5826 291.875C47.6508 290.773 46.1621 289.216 45.1167 287.205C44.0712 285.182 43.5485 282.79 43.5485 280.028C43.5485 277.335 44.0712 274.972 45.1167 272.938C46.1621 270.903 47.6337 269.318 49.5314 268.182C51.4405 267.045 53.6792 266.477 56.2474 266.477C57.9746 266.477 59.5826 266.756 61.0712 267.312C62.5712 267.858 63.878 268.682 64.9917 269.784C66.1167 270.886 66.9917 272.273 67.6167 273.943C68.2417 275.602 68.5542 277.545 68.5542 279.773V281.767H46.4462V277.267H61.7189C61.7189 276.222 61.4917 275.295 61.0371 274.489C60.5826 273.682 59.9519 273.051 59.1451 272.597C58.3496 272.131 57.4235 271.898 56.3667 271.898C55.2644 271.898 54.2871 272.153 53.4349 272.665C52.5939 273.165 51.9349 273.841 51.4576 274.693C50.9803 275.534 50.736 276.472 50.7246 277.506V281.784C50.7246 283.08 50.9633 284.199 51.4405 285.142C51.9292 286.085 52.6167 286.812 53.503 287.324C54.3894 287.835 55.4405 288.091 56.6564 288.091C57.4633 288.091 58.2019 287.977 58.8724 287.75C59.5428 287.523 60.1167 287.182 60.5939 286.727C61.0712 286.273 61.4349 285.716 61.6849 285.057L68.4008 285.5C68.0599 287.114 67.361 288.523 66.3042 289.727C65.2587 290.92 63.9064 291.852 62.2474 292.523C60.5996 293.182 58.6962 293.511 56.5371 293.511ZM73.4292 293V258.091H80.6905V271.216H80.9121C81.2303 270.511 81.6905 269.795 82.2928 269.068C82.9064 268.33 83.7019 267.716 84.6792 267.227C85.6678 266.727 86.8951 266.477 88.361 266.477C90.2701 266.477 92.0314 266.977 93.6451 267.977C95.2587 268.966 96.5485 270.46 97.5144 272.46C98.4803 274.449 98.9633 276.943 98.9633 279.943C98.9633 282.864 98.4917 285.33 97.5485 287.341C96.6167 289.341 95.3439 290.858 93.7303 291.892C92.128 292.915 90.3326 293.426 88.3439 293.426C86.9349 293.426 85.736 293.193 84.7474 292.727C83.7701 292.261 82.9689 291.676 82.3439 290.972C81.7189 290.256 81.2417 289.534 80.9121 288.807H80.5883V293H73.4292ZM80.5371 279.909C80.5371 281.466 80.753 282.824 81.1849 283.983C81.6167 285.142 82.2417 286.045 83.0599 286.693C83.878 287.33 84.8724 287.648 86.0428 287.648C87.2246 287.648 88.2246 287.324 89.0428 286.676C89.861 286.017 90.4803 285.108 90.9008 283.949C91.3326 282.778 91.5485 281.432 91.5485 279.909C91.5485 278.398 91.3383 277.068 90.9178 275.92C90.4974 274.773 89.878 273.875 89.0599 273.227C88.2417 272.58 87.236 272.256 86.0428 272.256C84.861 272.256 83.861 272.568 83.0428 273.193C82.236 273.818 81.6167 274.705 81.1849 275.852C80.753 277 80.5371 278.352 80.5371 279.909Z" fill="black"/>
<rect x="24" y="25" width="216" height="62" fill="black" fill-opacity="0.94"/>
<rect x="14" y="76" width="249" height="75" fill="black" fill-opacity="0.9"/>
<rect x="35" y="141" width="249" height="63" fill="black" fill-opacity="0.98"/>
<rect y="218" width="361" height="63" fill="black" fill-opacity="0.99"/>
</svg>
